<svg width="15" height="16" viewBox="0 0 15 16" fill="none" xmlns="http://www.w3.org/2000/svg">
<path fill-rule="evenodd" clip-rule="evenodd" d="M0.243486 2.63479H3.19396L3.19005 2.58666V1.33149C3.19005 1.05133 3.49734 0.821777 3.87494 0.821777C4.25124 0.821777 4.55982 1.05257 4.55982 1.33149V2.58666L4.55592 2.63479H9.58058L9.57667 2.58666V1.33149C9.57667 1.05133 9.88396 0.821777 10.2603 0.821777C10.6366 0.821777 10.9451 1.05257 10.9451 1.33149V2.58666L10.9412 2.63479H14.0805C14.2146 2.63479 14.324 2.73846 14.324 2.86558V5.2673C14.324 5.39442 14.2146 5.49809 14.0805 5.49809H0.243486C0.109373 5.49685 0 5.39318 0 5.26606V2.86435C0 2.73723 0.109373 2.63479 0.243486 2.63479ZM0.0611969 6.02878H14.2641C14.298 6.02878 14.324 6.0547 14.324 6.08556V15.9294C14.324 15.9602 14.2966 15.9862 14.2641 15.9862H0.0611969C0.0286454 15.9862 0 15.9602 0 15.9294V6.08679C0 6.0547 0.0273433 6.02878 0.0611969 6.02878ZM12.6652 7.33331H10.8813C10.7733 7.33331 10.686 7.41107 10.686 7.5061V9.07845C10.686 9.17348 10.7733 9.25123 10.8813 9.25123H12.6665C12.7745 9.25123 12.8631 9.17348 12.8631 9.07845V7.5061C12.8618 7.41107 12.7732 7.33331 12.6652 7.33331ZM1.59372 10.0695H3.37755C3.48562 10.0695 3.57416 10.1472 3.57416 10.2423V11.8146C3.57416 11.9097 3.48562 11.9874 3.37755 11.9874H1.65492C1.54685 11.9874 1.45961 11.9097 1.45961 11.8146V10.1855C1.45961 10.0905 1.54815 10.0127 1.65492 10.0127L1.59372 10.0695ZM1.59372 12.8069H3.37755C3.48562 12.8069 3.57416 12.8847 3.57416 12.9797V14.552C3.57416 14.6471 3.48562 14.7248 3.37755 14.7248H1.65362C1.54555 14.7248 1.45831 14.6471 1.45831 14.552V12.9797C1.45831 12.8847 1.54685 12.8069 1.65362 12.8069H1.59372ZM1.59372 7.33331H3.37755C3.48562 7.33331 3.57416 7.41107 3.57416 7.5061V9.07845C3.57416 9.17348 3.48562 9.25123 3.37755 9.25123H1.65362C1.54555 9.25123 1.45831 9.17348 1.45831 9.07845V7.5061C1.45831 7.41107 1.54685 7.33331 1.65362 7.33331H1.59372ZM4.69003 7.33331H6.47516C6.58323 7.33331 6.67047 7.41107 6.67047 7.5061V9.07845C6.67047 9.17348 6.58193 9.25123 6.47516 9.25123H4.69003C4.58196 9.25123 4.49342 9.17348 4.49342 9.07845V7.5061C4.49342 7.41107 4.58196 7.33331 4.69003 7.33331ZM4.69003 10.0695H6.47516C6.58323 10.0695 6.67047 10.1472 6.67047 10.2423V11.8146C6.67047 11.9097 6.58193 11.9874 6.47516 11.9874H4.69003C4.58196 11.9874 4.49342 11.9097 4.49342 11.8146V10.1855C4.49342 10.0905 4.58196 10.0127 4.69003 10.0127V10.0695ZM4.69003 12.8069H6.47516C6.58323 12.8069 6.67047 12.8847 6.67047 12.9797V14.552C6.67047 14.6471 6.58193 14.7248 6.47516 14.7248H4.69003C4.58196 14.7248 4.49342 14.6471 4.49342 14.552V12.9797C4.49342 12.8847 4.58196 12.8069 4.69003 12.8069ZM7.78503 7.33331H9.57016C9.67823 7.33331 9.76677 7.41107 9.76677 7.5061V9.07845C9.76677 9.17348 9.67823 9.25123 9.57016 9.25123H7.78503C7.67696 9.25123 7.58842 9.17348 7.58842 9.07845V7.5061C7.58972 7.41107 7.67696 7.33331 7.78503 7.33331ZM7.78503 10.0695H9.57016C9.67823 10.0695 9.76677 10.1472 9.76677 10.2423V11.8146C9.76677 11.9097 9.67823 11.9874 9.57016 11.9874H7.78503C7.67696 11.9874 7.58842 11.9097 7.58842 11.8146V10.1855C7.58842 10.0905 7.67696 10.0127 7.78503 10.0127V10.0695ZM12.6652 10.0695H10.8813C10.7733 10.0695 10.686 10.1472 10.686 10.2423V11.8146C10.686 11.9097 10.7733 11.9874 10.8813 11.9874H12.6665C12.7745 11.9874 12.8631 11.9097 12.8631 11.8146V10.1843C12.8631 10.0892 12.7745 10.0115 12.6665 10.0115L12.6652 10.0695ZM12.6652 12.8069H10.8813C10.7733 12.8069 10.686 12.8847 10.686 12.9797V14.552C10.686 14.6471 10.7733 14.7248 10.8813 14.7248H12.6665C12.7745 14.7248 12.8631 14.6471 12.8631 14.552V12.9217C12.8631 12.8267 12.7745 12.7489 12.6665 12.7489L12.6652 12.8069ZM7.78503 12.8069H9.57016C9.67823 12.8069 9.76677 12.8847 9.76677 12.9797V14.552C9.76677 14.6471 9.67823 14.7248 9.57016 14.7248H7.78503C7.67696 14.7248 7.58842 14.6471 7.58842 14.552V12.9797C7.58972 12.8847 7.67696 12.8069 7.78503 12.8069ZM0.912746 6.71005H13.5323C13.6 6.71005 13.6547 6.76436 13.6547 6.82607V15.1901C13.6547 15.2518 13.5974 15.3061 13.5323 15.3061H0.791654C0.726551 15.3061 0.66926 15.2543 0.66926 15.1901V6.94084C0.66926 6.81372 0.778634 6.71005 0.912746 6.71005ZM10.2603 4.45027C10.6366 4.45027 10.9451 4.21948 10.9451 3.94055V2.68662L10.9412 2.63602H9.58058L9.57667 2.68662V3.94055C9.57667 4.22071 9.88396 4.45027 10.2603 4.45027ZM3.87494 4.45027C4.25124 4.45027 4.55982 4.21948 4.55982 3.94055V2.68662L4.55592 2.63602H3.19396L3.19005 2.68662V3.94055C3.19005 4.22071 3.49734 4.45027 3.87494 4.45027Z" fill="#B8B8B8"/>
</svg>
