<svg width="19" height="16" viewBox="0 0 19 16" fill="none" xmlns="http://www.w3.org/2000/svg">
<path d="M7.85537 0.223402C8.40745 2.6325 8.68349 4.94121 8.68349 7.14955C8.68349 9.96016 8.03103 12.0932 6.7261 13.5487C5.47137 14.954 3.58926 15.6567 1.07979 15.6567V12.57C2.38472 12.57 3.31322 12.2438 3.86531 11.5913C4.41739 10.8887 4.69343 9.83469 4.69343 8.42938V6.69785H0.929221V0.223402H7.85537ZM18.0187 0.223402C18.621 2.83325 18.9221 5.14197 18.9221 7.14955C18.9221 9.96016 18.2697 12.0932 16.9648 13.5487C15.6598 14.954 13.7526 15.6567 11.2432 15.6567V12.57C12.5481 12.57 13.4766 12.2438 14.0287 11.5913C14.5808 10.8887 14.8568 9.83469 14.8568 8.42938V6.69785H11.0926V0.223402H18.0187Z" fill="black"/>
</svg>
