<svg width="52" height="52" viewBox="0 0 52 52" fill="none" xmlns="http://www.w3.org/2000/svg">
<path d="M18.5479 11.5H34.4521C37.8067 11.5002 40.4999 14.1342 40.5 17.3516V32.6484C40.4999 35.8658 37.8067 38.4998 34.4521 38.5H18.5479C15.1933 38.4998 12.5001 35.8658 12.5 32.6484V17.3516C12.5001 14.2347 15.0276 11.6655 18.2354 11.5078L18.5479 11.5Z" stroke="white"/>
<path fill-rule="evenodd" clip-rule="evenodd" d="M23.6096 21.853H27.2737V23.6749H27.327C27.8373 22.787 29.0851 21.853 30.9457 21.853C34.8148 21.853 35.5302 24.1886 35.5302 27.2268V33.6504H31.7092L31.7087 27.9295C31.7087 26.6213 31.6809 24.9379 29.7217 24.9379C27.7325 24.9379 27.4272 26.3615 27.4272 27.8344V33.6504H23.6096V21.853ZM21.4443 18.2769C21.4443 19.3406 20.5539 20.2043 19.4573 20.2043C18.3602 20.2043 17.4698 19.3406 17.4698 18.2769C17.4698 17.2127 18.3602 16.3496 19.4573 16.3496C20.5539 16.3496 21.4443 17.2127 21.4443 18.2769ZM17.4698 21.853H21.4443V33.6504H17.4698V21.853Z" fill="white"/>
</svg>
