<svg width="23" height="23" viewBox="0 0 23 23" fill="none" xmlns="http://www.w3.org/2000/svg">
<g clip-path="url(#clip0_303_891)">
<path fill-rule="evenodd" clip-rule="evenodd" d="M0 23.0003V19.2819C1.96533 18.3973 7.98299 16.7133 8.26562 14.2792C8.32926 13.7298 7.04899 11.6348 6.75513 10.6308C6.12622 9.61741 5.90161 8.0073 6.58854 6.93704C6.86182 6.51084 6.74577 4.95945 6.74577 4.37412C6.74577 -1.45449 16.8382 -1.45638 16.8382 4.37412C16.8382 5.11099 16.6698 6.46538 17.0666 7.04502C17.7292 8.01487 17.3866 9.73296 16.8289 10.6308C16.4714 11.6859 15.1106 13.6825 15.2266 14.2792C15.659 16.503 21.2406 17.9976 22.9981 18.7875V22.9984L0 23.0003Z" fill="#9F9F9F"/>
</g>
<defs>
<clipPath id="clip0_303_891">
<rect width="23" height="23" fill="white"/>
</clipPath>
</defs>
</svg>
