<svg width="21" height="28" viewBox="0 0 21 28" fill="none" xmlns="http://www.w3.org/2000/svg">
<g clip-path="url(#clip0_230_913)">
<path fill-rule="evenodd" clip-rule="evenodd" d="M5.40421 24.2172C6.67673 25.614 8.15869 26.865 9.82275 27.8767C10.0276 28.0271 10.3054 28.0454 10.533 27.8995C12.9915 26.3341 15.0562 24.4542 16.6793 22.4103C18.9193 19.5984 20.3284 16.4812 20.811 13.478C21.3028 10.4337 20.8429 7.50336 19.3291 5.12218C18.7327 4.1811 17.9701 3.32433 17.0413 2.58377C14.906 0.881619 12.468 -0.0184459 10.0367 -0.000216766C7.69657 0.0180124 5.386 0.890734 3.38958 2.71593C2.68844 3.35395 2.09885 4.0854 1.61625 4.87836C-0.0113964 7.56261 -0.361963 10.9851 0.352833 14.4532C1.05852 17.8803 2.81137 21.3621 5.40421 24.2104V24.2172ZM10.5011 5.41385C7.61462 5.41385 5.27673 7.75629 5.27673 10.6433C5.27673 13.5327 7.6169 15.8728 10.5011 15.8728C13.3876 15.8728 15.7255 13.5327 15.7255 10.6433C15.7278 7.75401 13.3876 5.41385 10.5011 5.41385Z" fill="white"/>
</g>
<defs>
<clipPath id="clip0_230_913">
<rect width="21" height="28" fill="white" transform="matrix(-1 0 0 1 21 0)"/>
</clipPath>
</defs>
</svg>
