<svg width="123" height="84" viewBox="0 0 123 84" fill="none" xmlns="http://www.w3.org/2000/svg">
<g clip-path="url(#clip0_40_490)">
<path d="M95.73 10.81C106.26 17.9 115.33 28.18 122.21 40.67L122.88 41.89L122.21 43.1C115.33 55.59 106.25 65.87 95.73 72.96C85.46 79.88 73.8 83.78 61.44 83.78C49.08 83.78 37.42 79.88 27.16 72.97C16.62 65.87 7.55 55.59 0.67 43.1L0 41.89L0.67 40.67C7.55 28.18 16.62 17.9 27.15 10.81C37.42 3.9 49.08 0 61.44 0C73.8 0 85.45 3.9 95.73 10.81ZM60.79 22.17L64.87 22.56C63.42 24.74 62.56 27.38 62.56 30.23C62.56 37.71 68.42 43.77 75.66 43.77C77.98 43.77 80.16 43.15 82.05 42.05C82.08 42.52 82.1 42.99 82.1 43.47C82.1 55.24 72.56 64.78 60.79 64.78C49.02 64.78 39.48 55.24 39.48 43.47C39.48 31.71 49.02 22.17 60.79 22.17ZM109 41.89C103.5 32.23 96.39 24.29 88.21 18.78C80.16 13.36 71.06 10.3 61.44 10.3C51.83 10.3 42.73 13.36 34.68 18.78C26.5 24.29 19.39 32.23 13.88 41.89C19.38 51.55 26.5 59.49 34.68 64.99C42.73 70.41 51.83 73.47 61.44 73.47C71.06 73.47 80.15 70.41 88.21 64.99C96.39 59.49 103.5 51.55 109 41.89Z" fill="#1E3C4F"/>
</g>
<defs>
<clipPath id="clip0_40_490">
<rect width="122.88" height="83.78" fill="white"/>
</clipPath>
</defs>
</svg>
