<svg width="21" height="23" viewBox="0 0 21 23" fill="none" xmlns="http://www.w3.org/2000/svg">
<g clip-path="url(#clip0_303_898)">
<path d="M15.7747 0.950854H5.22509C2.87644 0.950854 0.955178 2.86361 0.955178 5.20162V12.7034C0.955178 15.0411 2.87682 16.9542 5.22509 16.9542H8.54245C8.06787 18.8234 7.49307 20.5029 5.73708 22.0531C9.09469 21.1982 11.6866 19.47 13.5889 16.9542H14.1626C16.5107 16.9542 20.045 15.0415 20.045 12.7034V5.20162C20.0446 2.86361 18.1234 0.950854 15.7747 0.950854ZM15.2545 7.68713C14.3987 7.68713 13.7051 8.378 13.7051 9.22984C13.7051 10.0817 14.3987 10.7725 15.2545 10.7725C16.1105 10.7725 16.8042 10.0817 16.8042 9.22984C16.8042 8.378 16.1105 7.68713 15.2545 7.68713ZM5.74536 7.68713C4.88946 7.68713 4.19564 8.378 4.19564 9.22984C4.19564 10.0817 4.88946 10.7725 5.74536 10.7725C6.60107 10.7725 7.29508 10.0817 7.29508 9.22984C7.29508 8.378 6.60107 7.68713 5.74536 7.68713ZM10.5 7.68713C9.64429 7.68713 8.95028 8.378 8.95028 9.22984C8.95028 10.0817 9.64429 10.7725 10.5 10.7725C11.3559 10.7725 12.0495 10.0817 12.0495 9.22984C12.0495 8.378 11.3559 7.68713 10.5 7.68713ZM5.22509 0H15.7749H15.776V0.00374352C17.216 0.00411787 18.522 0.587546 19.4657 1.52717L19.4638 1.52904C20.409 2.4711 20.9959 3.77085 20.9962 5.20106H21V5.20162H20.9962V12.7034H21V12.7042H20.9962C20.9955 14.2334 19.9282 15.5659 18.5068 16.4966C17.1829 17.363 15.5111 17.9011 14.1626 17.9013V17.9053H14.1622V17.9013H14.0539C13.1017 19.0822 11.9967 20.0902 10.7307 20.9177C9.33122 21.8326 7.74785 22.522 5.97174 22.9742L5.97099 22.9712C5.63668 23.0554 5.26833 22.9553 5.02409 22.6807C4.67586 22.2889 4.71271 21.6901 5.10625 21.3435C5.88055 20.6601 6.39405 19.9488 6.76578 19.2033C6.9728 18.788 7.1392 18.3547 7.2838 17.9047H5.2249H5.22358V17.9008C3.78405 17.9004 2.47801 17.317 1.53411 16.3773C0.590029 15.4379 0.00394857 14.1374 0.00376054 12.7038H0V12.7033H0.00376054V5.20162H0V5.20031H0.00376054C0.00394857 3.7963 0.568406 2.51939 1.48128 1.58426C1.49801 1.56479 1.51531 1.5457 1.53374 1.52736C2.47782 0.587545 3.78405 0.00374352 5.22433 0.00355634V0H5.22509Z" fill="#9F9F9F"/>
</g>
<defs>
<clipPath id="clip0_303_898">
<rect width="21" height="23" fill="white"/>
</clipPath>
</defs>
</svg>
