<svg width="49" height="43" viewBox="0 0 49 43" fill="none" xmlns="http://www.w3.org/2000/svg">
<path fill-rule="evenodd" clip-rule="evenodd" d="M37.001 12.5931C36.0084 13.037 34.9391 13.332 33.8224 13.4636C34.9665 12.7784 35.8414 11.6926 36.259 10.4001C35.1897 11.0324 34.0013 11.4963 32.7421 11.7445C31.7296 10.6687 30.2916 10 28.6986 10C25.6396 10 23.1631 12.4779 23.1631 15.5349C23.1631 15.9664 23.211 16.3885 23.3047 16.7956C18.702 16.5624 14.6216 14.3589 11.89 11.0065C11.399 11.8523 11.1404 12.8129 11.1406 13.7909C11.1406 15.7103 12.1152 17.408 13.6021 18.3981C12.6947 18.3711 11.8412 18.118 11.0917 17.7079V17.7772C11.0917 20.4614 12.9997 22.7012 15.5349 23.2075C15.0705 23.3335 14.5802 23.4033 14.075 23.4033C13.7172 23.4033 13.3724 23.3664 13.0296 23.3042C13.7376 25.5026 15.7816 27.105 18.2023 27.1519C16.3043 28.6388 13.9205 29.5242 11.3219 29.5242C10.8734 29.5242 10.4365 29.4968 10 29.4445C12.4565 31.0206 15.3665 31.9334 18.4928 31.9334C28.6777 31.9334 34.252 23.493 34.252 16.1747C34.252 15.9315 34.2465 15.6959 34.2365 15.4577C35.3183 14.6838 36.2561 13.7072 36.9985 12.5955L37.001 12.593L37.001 12.5931Z" fill="white"/>
</svg>
