<svg width="60" height="54" viewBox="0 0 60 54" fill="none" xmlns="http://www.w3.org/2000/svg">
<path d="M50.3189 0.33745C49.876 0.759325 49.8971 1.77183 50.3189 2.13042C50.551 2.32026 51.4158 2.46792 52.5971 2.5312L54.5166 2.63667L45.9736 9.68198C41.2697 13.5421 37.3252 16.7484 37.1986 16.8117C37.0721 16.8539 33.465 14.7867 29.2041 12.2132C24.9643 9.63979 21.2518 7.53042 20.9775 7.53042C20.6611 7.53042 17.1174 10.1671 10.4939 15.2929C5.00957 19.5539 0.390035 23.2031 0.242379 23.3929C-0.221683 23.9624 0.010348 24.9539 0.685348 25.2703C1.1916 25.5234 1.36035 25.5023 1.8455 25.1859C2.16191 24.9749 6.61269 21.5578 11.7596 17.5499L21.083 10.2937L28.5291 14.7867C37.4307 20.1656 37.0299 19.9335 37.5994 19.6593C37.8525 19.5539 42.2822 15.989 47.4502 11.7281L56.8369 3.98667L56.9002 6.37026C56.9424 8.18432 57.0267 8.81714 57.301 9.11245C57.7439 9.6187 58.5244 9.59761 59.0517 9.07026C59.4525 8.66948 59.4736 8.37417 59.4736 4.78823C59.4736 1.64526 59.4103 0.8437 59.1361 0.464014C58.8197 0.0210438 58.7142 -4.95911e-05 54.7275 -4.95911e-05C51.2892 -4.95911e-05 50.5932 0.0632324 50.3189 0.33745Z" fill="white"/>
<path d="M47.2814 16.3688L46.8174 16.6852V34.9945C46.8174 52.4602 46.8385 53.325 47.1971 53.6414C47.5346 53.9578 48.2729 54 53.1877 54C58.3346 54 58.7986 53.9789 59.115 53.6203C59.4525 53.2617 59.4736 51.6586 59.4736 34.9523V16.6852L59.0096 16.3688C58.6088 16.0734 57.6807 16.0313 53.1455 16.0313C48.6104 16.0313 47.6822 16.0734 47.2814 16.3688ZM56.9424 35.0156V51.4688H53.1455H49.3486V35.0156V18.5625H53.1455H56.9424V35.0156Z" fill="white"/>
<path d="M22.0322 53.9209C24.6917 53.9209 26.0911 53.9155 26.876 53.8604C27.2685 53.8328 27.5005 53.793 27.6572 53.7383C27.8092 53.6852 27.8932 53.6175 27.9883 53.5225C28.039 53.4717 28.0785 53.4274 28.1133 53.3604C28.1486 53.2922 28.1811 53.1954 28.21 53.0381C28.268 52.721 28.3076 52.1752 28.334 51.1582C28.3867 49.1266 28.3867 45.2361 28.3867 37.5889C28.3867 29.8046 28.3864 25.909 28.3311 23.9092C28.3034 22.9082 28.2618 22.3885 28.2012 22.0947C28.1711 21.9491 28.1375 21.8635 28.1016 21.8047C28.0658 21.7462 28.0253 21.7084 27.9697 21.6582L27.9688 21.6572C27.876 21.5694 27.7816 21.5041 27.6182 21.4521C27.4509 21.399 27.2097 21.3599 26.8223 21.3311C26.435 21.3022 25.9075 21.2833 25.1709 21.2695L22.2637 21.2363C20.8087 21.2258 19.4487 21.2313 18.4316 21.2471C17.9232 21.255 17.5008 21.2649 17.1953 21.2773C17.0427 21.2836 16.9196 21.2908 16.8301 21.2979C16.7852 21.3014 16.7492 21.3051 16.7227 21.3086C16.7094 21.3103 16.6991 21.312 16.6914 21.3135C16.684 21.3149 16.6807 21.3154 16.6807 21.3154C16.522 21.375 16.2156 21.5588 16.0342 21.7402L16.0283 21.7451L15.9795 21.7969C15.9311 21.863 15.8846 21.9841 15.8457 22.2559C15.7941 22.6168 15.7584 23.2247 15.7334 24.2832C15.6833 26.3993 15.6777 30.3005 15.6777 37.5889C15.6777 45.2361 15.6778 49.1266 15.7305 51.1582C15.7568 52.1752 15.7964 52.721 15.8545 53.0381C15.8833 53.1954 15.9158 53.2922 15.9512 53.3604C15.986 53.4274 16.0254 53.4717 16.0762 53.5225C16.1712 53.6175 16.2553 53.6852 16.4072 53.7383C16.5639 53.793 16.796 53.8328 17.1885 53.8604C17.9733 53.9155 19.3728 53.9209 22.0322 53.9209ZM18.0508 23.7568H26.0137V51.5479H18.0508V23.7568Z" fill="white" stroke="white" stroke-width="0.158203"/>
<path d="M31.5666 29.4891C31.2502 29.8477 31.208 30.9445 31.208 41.618V53.3461L31.6721 53.6625C32.0729 53.9578 33.001 54 37.6416 54C40.658 54 43.2314 53.9156 43.358 53.8313C44.033 53.3883 44.0752 52.7555 44.0752 41.5125C44.0752 32.8852 44.0119 30.143 43.801 29.7422L43.5268 29.2148L37.726 29.1516C32.3049 29.1094 31.883 29.1305 31.5666 29.4891ZM41.333 41.5547V51.4688H37.5361H33.7393V41.5547V31.6406H37.5361H41.333V41.5547Z" fill="white"/>
<path d="M6.50793 52.8135C9.13349 52.8135 10.5046 52.8079 11.2648 52.7607C11.3794 52.7536 11.4713 52.7429 11.545 52.7354C11.5686 52.5311 11.5924 52.2206 11.6105 51.7451C11.6595 50.4547 11.67 48.1771 11.67 44.0439C11.67 39.7164 11.6643 37.4482 11.6154 36.2178C11.6012 35.8623 11.5835 35.6203 11.5665 35.4561C11.4628 35.4435 11.3208 35.4284 11.13 35.417C10.3351 35.3695 8.96836 35.3584 6.50793 35.3584C4.25729 35.3584 2.86702 35.3748 2.00208 35.418C1.73074 35.4315 1.52584 35.4495 1.37122 35.4658C1.35751 35.6061 1.3432 35.7981 1.3302 36.0586C1.30069 36.6503 1.28043 37.5032 1.26379 38.752L1.2179 43.8203C1.18613 48.3101 1.17614 50.5391 1.22473 51.7207C1.2495 52.3228 1.28784 52.5574 1.31262 52.6514C1.31429 52.658 1.28649 52.6223 1.35168 52.707L1.35071 52.708L1.43469 52.8135H6.50793Z" fill="#74AB5A" stroke="white" stroke-width="2.37305"/>
<rect x="1.96362" y="36.3273" width="8.83635" height="15.7091" fill="white"/>
<rect x="17.6727" y="23.5636" width="8.83635" height="28.4727" fill="white"/>
<rect x="33.3818" y="31.4181" width="8.83635" height="20.6182" fill="white"/>
<rect x="48.109" y="17.6727" width="8.83635" height="34.3636" fill="white"/>
</svg>
