<svg width="54" height="57" viewBox="0 0 54 57" fill="none" xmlns="http://www.w3.org/2000/svg">
<path fill-rule="evenodd" clip-rule="evenodd" d="M27.9262 12.7747L30.6952 17.5606C29.9891 17.9783 29.1989 18.2338 28.3818 18.3088C27.5648 18.3837 26.7413 18.2762 25.9709 17.994C25.2005 17.7118 24.5024 17.2619 23.9271 16.6769C23.3519 16.0919 22.9138 15.3864 22.6445 14.6114C22.3752 13.8363 22.2815 13.0112 22.3701 12.1955C22.4588 11.3798 22.7275 10.594 23.157 9.89494C23.5865 9.19584 24.1659 8.6009 24.8534 8.15312C25.5409 7.70534 26.3193 7.41592 27.1324 7.30577L27.9308 12.7747H27.9262ZM39.0625 31.0691C41.0787 31.0702 43.0571 31.616 44.7887 32.6487C46.5203 33.6814 47.9408 35.1627 48.9 36.936C49.8593 38.7094 50.3217 40.7089 50.2383 42.7234C50.155 44.7378 49.529 46.6924 48.4266 48.3804L53.2725 53.6555L49.9311 56.7107L45.2606 51.5741C43.8069 52.5399 42.1473 53.1523 40.4146 53.3621C38.682 53.5719 36.9242 53.3734 35.282 52.7825C33.6397 52.1915 32.1585 51.2245 30.9568 49.9588C29.7551 48.6931 28.8662 47.1637 28.3612 45.4931C27.8562 43.8224 27.7491 42.0567 28.0485 40.3372C28.3479 38.6178 29.0454 36.9922 30.0853 35.5905C31.1253 34.1888 32.4787 33.0499 34.0375 32.2648C35.5963 31.4797 37.3171 31.0702 39.0625 31.0691ZM34.8489 43.3038C34.7902 43.2429 34.7376 43.1765 34.6919 43.1053C34.648 43.0345 34.6094 42.9604 34.5766 42.8838C34.461 42.6067 34.4359 42.3002 34.5047 42.008C34.5735 41.7157 34.7328 41.4527 34.9599 41.2563C35.187 41.0599 35.4703 40.9402 35.7694 40.9142C36.0685 40.8882 36.3681 40.9573 36.6257 41.1116C36.7054 41.1587 36.7797 41.2144 36.8472 41.2777C37.2349 41.6516 37.3595 41.7393 37.7702 42.1131L38.1441 42.45L41.1854 39.1825C42.4731 37.8579 44.5268 39.7963 43.2438 41.1531L39.4778 45.2283L39.284 45.4267C39.0288 45.6968 38.6784 45.857 38.3072 45.8734C37.9359 45.8897 37.5729 45.761 37.2949 45.5144L36.9903 45.2283L36.2657 44.596C35.7027 44.1068 35.375 43.8391 34.8489 43.3084V43.3038ZM39.0717 33.4043C40.8327 33.4043 42.5541 33.9266 44.0182 34.905C45.4823 35.8834 46.6234 37.2741 47.2971 38.9011C47.9707 40.5281 48.1468 42.3184 47.8029 44.0454C47.459 45.7725 46.6107 47.3588 45.3652 48.6036C44.1196 49.8485 42.5329 50.696 40.8057 51.039C39.0784 51.382 37.2883 51.205 35.6616 50.5305C34.035 49.856 32.6449 48.7142 31.6672 47.2496C30.6896 45.7849 30.1682 44.0633 30.1691 42.3023C30.1703 39.942 31.1088 37.6788 32.7783 36.0102C34.4477 34.3416 36.7114 33.4043 39.0717 33.4043ZM16.393 11.7132H18.9682C19.0343 11.7132 19.0977 11.7395 19.1444 11.7862C19.1912 11.8329 19.2174 11.8963 19.2174 11.9624V17.0391C19.2174 17.1052 19.1912 17.1686 19.1444 17.2153C19.0977 17.262 19.0343 17.2883 18.9682 17.2883H16.393C16.3269 17.2883 16.2635 17.262 16.2167 17.2153C16.17 17.1686 16.1437 17.1052 16.1437 17.0391V11.9624C16.1437 11.8963 16.17 11.8329 16.2167 11.7862C16.2635 11.7395 16.3269 11.7132 16.393 11.7132ZM40.6132 7.73959H44.8129C45.6025 7.74323 46.3587 8.05851 46.9171 8.61684C47.4754 9.17517 47.7907 9.93138 47.7943 10.721V26.2093C47.7066 27.1324 45.4129 27.1554 45.2191 26.2093V10.721C45.2199 10.6655 45.2097 10.6105 45.1891 10.559C45.1685 10.5075 45.1379 10.4606 45.0991 10.421C45.0596 10.3803 45.0122 10.3483 44.9598 10.3268C44.9074 10.3054 44.8511 10.295 44.7945 10.2964H40.6132V26.2093C40.3916 27.0539 38.481 27.1831 38.0518 26.2093V2.98139C38.0531 2.92549 38.0429 2.86992 38.022 2.81808C38.001 2.76624 37.9697 2.71922 37.93 2.6799C37.8902 2.64058 37.8429 2.60979 37.7908 2.58942C37.7387 2.56904 37.6831 2.55951 37.6272 2.56141H2.96755C2.9121 2.56062 2.85704 2.57081 2.80555 2.59141C2.75407 2.612 2.70717 2.64259 2.66756 2.68141C2.62727 2.72014 2.5954 2.76678 2.57396 2.8184C2.55252 2.87002 2.54196 2.92551 2.54295 2.98139V43.3822C2.54234 43.4382 2.5529 43.4937 2.57401 43.5454C2.59513 43.5972 2.62639 43.6443 2.66594 43.6838C2.70549 43.7234 2.75254 43.7547 2.80433 43.7758C2.85613 43.7969 2.91162 43.8074 2.96755 43.8068H23.3249C24.6171 43.9361 24.654 46.1652 23.3249 46.3636H9.69179V51.1172C9.69044 51.1738 9.70081 51.2301 9.72225 51.2825C9.7437 51.3349 9.77575 51.3824 9.8164 51.4218C9.856 51.4606 9.9029 51.4912 9.95439 51.5118C10.0059 51.5324 10.0609 51.5426 10.1164 51.5418H23.3249C24.2479 51.6479 24.5617 53.7709 23.3249 54.1032H10.1533C9.76169 54.1053 9.37363 54.0288 9.01213 53.8782C8.65064 53.7275 8.32306 53.5059 8.0488 53.2263C7.76953 52.9506 7.54779 52.6222 7.39647 52.2602C7.24515 51.8981 7.16726 51.5096 7.16731 51.1172V46.3636H2.98139C2.1918 46.36 1.43559 46.0447 0.877265 45.4864C0.318936 44.928 0.00365854 44.1718 1.70316e-05 43.3822V2.98139C-0.00131556 2.58989 0.0755631 2.20207 0.226141 1.84068C0.37672 1.47929 0.597964 1.15162 0.876892 0.876892C1.15255 0.599207 1.4804 0.378778 1.84157 0.228288C2.20275 0.0777983 2.59012 0.000219847 2.98139 1.70316e-05H37.6502C38.0417 -0.00131556 38.4296 0.0755631 38.791 0.226141C39.1523 0.37672 39.48 0.597964 39.7547 0.876892C40.0291 1.15406 40.2461 1.4826 40.3934 1.8437C40.5407 2.20481 40.6154 2.59141 40.6132 2.98139V7.73959ZM6.92271 26.034C6.63591 26.0156 6.36687 25.8887 6.17025 25.6791C5.97363 25.4695 5.86421 25.1929 5.86421 24.9056C5.86421 24.6182 5.97363 24.3416 6.17025 24.132C6.36687 23.9224 6.63591 23.7955 6.92271 23.7772H27.2754C27.5622 23.7955 27.8313 23.9224 28.0279 24.132C28.2245 24.3416 28.3339 24.6182 28.3339 24.9056C28.3339 25.1929 28.2245 25.4695 28.0279 25.6791C27.8313 25.8887 27.5622 26.0156 27.2754 26.034H6.92271ZM6.92271 31.9229C6.62283 31.9229 6.33523 31.8037 6.12318 31.5917C5.91113 31.3796 5.79201 31.092 5.79201 30.7922C5.79201 30.4923 5.91113 30.2047 6.12318 29.9926C6.33523 29.7806 6.62283 29.6615 6.92271 29.6615H23.9249C24.2247 29.6615 24.5123 29.7806 24.7244 29.9926C24.9364 30.2047 25.0556 30.4923 25.0556 30.7922C25.0556 31.092 24.9364 31.3796 24.7244 31.5917C24.5123 31.8037 24.2247 31.9229 23.9249 31.9229H6.92271ZM7.05194 38.4348C6.75205 38.4348 6.46445 38.3157 6.25241 38.1036C6.04036 37.8916 5.92123 37.604 5.92123 37.3041C5.92123 37.0042 6.04036 36.7166 6.25241 36.5046C6.46445 36.2925 6.75205 36.1734 7.05194 36.1734H19.7666C20.0665 36.1734 20.3541 36.2925 20.5661 36.5046C20.7782 36.7166 20.8973 37.0042 20.8973 37.3041C20.8973 37.604 20.7782 37.8916 20.5661 38.1036C20.3541 38.3157 20.0665 38.4348 19.7666 38.4348H7.05194ZM7.17193 8.598H9.75179C9.81788 8.598 9.88127 8.62426 9.92801 8.671C9.97475 8.71773 10.001 8.78112 10.001 8.84722V17.0252C9.99982 17.091 9.97318 17.1537 9.9267 17.2001C9.88022 17.2466 9.81751 17.2733 9.75179 17.2744H7.19962C7.13352 17.2744 7.07013 17.2482 7.0234 17.2015C6.97666 17.1547 6.9504 17.0913 6.9504 17.0252V8.84722C6.9504 8.78112 6.97666 8.71773 7.0234 8.671C7.07013 8.62426 7.13352 8.598 7.19962 8.598H7.17193ZM11.7871 6.84887H14.3623C14.4284 6.84887 14.4918 6.87513 14.5385 6.92186C14.5853 6.9686 14.6115 7.03199 14.6115 7.09809V17.0252C14.6115 17.0913 14.5853 17.1547 14.5385 17.2015C14.4918 17.2482 14.4284 17.2744 14.3623 17.2744H11.7963C11.7302 17.2744 11.6668 17.2482 11.6201 17.2015C11.5733 17.1547 11.5471 17.0913 11.5471 17.0252V7.09809C11.5471 7.03199 11.5733 6.9686 11.6201 6.92186C11.6668 6.87513 11.7302 6.84887 11.7963 6.84887H11.7871ZM29.0753 13.0101H34.2304C34.2274 13.8567 34.0152 14.6895 33.6126 15.4342C33.21 16.179 32.6295 16.8128 31.9229 17.2791L29.0753 13.0101ZM28.4984 11.9994L28.1892 6.10583L28.7938 6.07814C30.2955 6.05975 31.7478 6.614 32.8555 7.62819C33.9631 8.64237 34.6429 10.0403 34.7566 11.5378L34.7843 11.9071L28.5169 12.3686V11.9901L28.4984 11.9994ZM28.96 6.82579L29.2092 11.5794L33.9581 11.2286C33.7822 10.0214 33.183 8.91587 32.2675 8.10943C31.352 7.30299 30.1798 6.84805 28.96 6.82579Z" fill="white"/>
</svg>
