<svg width="62" height="62" viewBox="0 0 62 62" fill="none" xmlns="http://www.w3.org/2000/svg">
<path d="M9.36017 5.29998C8.28244 5.49373 6.88986 6.26873 5.99376 7.15271C2.70001 10.4101 3.62033 15.9926 7.77384 17.9906C8.57306 18.366 9.77189 18.7172 10.2805 18.7172C10.341 18.7172 10.2442 18.584 10.0867 18.4144C9.83244 18.1722 9.784 18.0027 9.784 17.4457C9.784 16.9129 9.74767 16.7797 9.59025 16.7797C8.65783 16.7797 7.30158 15.714 7.02306 14.7695C6.79298 13.9945 6.84142 13.5344 7.18048 13.2074C7.77384 12.6019 8.81525 13.0258 8.81525 13.8734C8.81525 14.1035 8.92423 14.3578 9.11798 14.5394C9.3965 14.8301 9.49337 14.8422 10.7527 14.8422C12.0121 14.8422 12.109 14.8301 12.3875 14.5394C12.7871 14.1519 12.7871 13.5949 12.3875 13.2074C12.109 12.9168 12.0121 12.9047 10.7406 12.9047C8.99689 12.9047 8.54884 12.7715 7.78595 11.9965C6.92619 11.1488 6.684 10.2406 7.02306 9.10232C7.30158 8.15779 8.65783 7.09216 9.59025 7.09216C9.74767 7.09216 9.784 6.95896 9.784 6.42615C9.784 5.86912 9.83244 5.69958 10.0867 5.4574C10.4137 5.11834 10.3774 5.10623 9.36017 5.29998Z" fill="white"/>
<path d="M11.4188 5.45748C11.6731 5.69966 11.7216 5.86919 11.7216 6.42623C11.7216 6.95904 11.7579 7.09224 11.9153 7.09224C12.8477 7.09224 14.204 8.15787 14.4825 9.1024C14.7126 9.8774 14.6641 10.3376 14.3251 10.6645C13.7317 11.27 12.6903 10.8461 12.6903 9.99849C12.6903 9.76841 12.5813 9.51412 12.3876 9.33248C12.1091 9.04185 12.0122 9.02974 10.7528 9.02974C9.49343 9.02974 9.39656 9.04185 9.11804 9.33248C8.92429 9.51412 8.81531 9.76841 8.81531 9.99849C8.81531 10.2286 8.92429 10.4829 9.11804 10.6645C9.39656 10.9551 9.49343 10.9672 10.7649 10.9672C12.5087 10.9672 12.9567 11.1004 13.7196 11.8754C14.5794 12.7231 14.8216 13.6313 14.4825 14.7696C14.204 15.7141 12.8477 16.7797 11.9153 16.7797C11.7579 16.7797 11.7216 16.9129 11.7216 17.4458C11.7216 18.0028 11.6731 18.1723 11.4188 18.4145C11.0798 18.7657 11.0798 18.7657 12.0364 18.584C13.2352 18.3661 14.6157 17.6274 15.536 16.695C18.1759 14.0309 18.1759 9.80474 15.5239 7.1649C14.6157 6.24459 13.2231 5.4938 12.0364 5.28794C11.0798 5.1063 11.0798 5.1063 11.4188 5.45748Z" fill="white"/>
<path d="M19.0477 9.23552C19.3141 9.91365 19.4958 11.4758 19.4352 12.4929C19.2899 14.6726 18.4665 16.4769 16.8802 18.0633C15.2938 19.6496 13.4895 20.473 11.3098 20.6183C10.2927 20.6789 8.73054 20.4972 8.06453 20.2308C7.85867 20.1461 7.84656 20.9574 7.84656 36.082V52.0301L8.14929 52.3207L8.43992 52.6234H24.1337H39.8153V51.7273V50.8312L39.0524 50.8918C38.011 50.9765 37.0423 50.698 36.4852 50.141C35.8677 49.5234 35.6497 48.6394 35.7587 47.2711C35.8677 45.8179 35.7708 45.5758 34.6204 44.5344C33.579 43.5898 33.0341 42.7058 33.0341 41.9672C33.0341 41.2285 33.579 40.3445 34.6204 39.4C35.7708 38.3586 35.8677 38.1164 35.7587 36.6633C35.5407 34.0113 36.7032 32.8488 39.3552 33.0668C40.8083 33.1758 41.0505 33.0789 42.0919 31.9285C43.0364 30.8871 43.9204 30.3422 44.6591 30.3422C45.3977 30.3422 46.2817 30.8871 47.2262 31.9285C48.2677 33.0789 48.5098 33.1758 49.963 33.0668C52.6149 32.8488 53.7774 34.0113 53.5594 36.6633C53.4505 38.1164 53.5473 38.3586 54.6977 39.4C55.7391 40.3445 56.2841 41.2285 56.2841 41.9672C56.2841 42.7058 55.7391 43.5898 54.6977 44.5344C53.5473 45.5758 53.4505 45.8179 53.5594 47.2711C53.6684 48.6394 53.4505 49.5234 52.8329 50.141C52.2759 50.698 51.3071 50.9765 50.2657 50.8918L49.5028 50.8312V51.7273V52.6234H53.5594H57.6282L57.9188 52.3207L58.2216 52.0301V30.8265V9.62302L57.9188 9.3324L57.6282 9.02966H38.2895C19.9317 9.02966 18.963 9.04177 19.0477 9.23552ZM35.02 13.3648C36.1219 13.8734 36.8243 14.5758 37.3692 15.6656C37.793 16.5375 37.8173 16.6465 37.8173 17.7484C37.8173 18.8504 37.793 18.9594 37.3692 19.8312C36.8243 20.9332 36.1219 21.6113 34.9958 22.1441C34.2571 22.4953 34.0755 22.5316 33.0341 22.5316C31.9927 22.5316 31.811 22.4953 31.0723 22.1441C29.9462 21.6113 29.2438 20.9332 28.6989 19.8312C28.2751 18.9594 28.2509 18.8504 28.2509 17.7605C28.2509 16.707 28.2872 16.5254 28.6384 15.7867C29.1227 14.7574 29.813 14.0066 30.7212 13.5344C31.6657 13.0258 32.1985 12.9047 33.3005 12.9531C34.0391 12.9894 34.4145 13.0863 35.02 13.3648ZM54.0438 24.8324C54.4434 25.2199 54.4434 25.7769 54.0438 26.1644L53.7532 26.4672H33.0341H12.3149L12.0243 26.1644C11.8305 25.9828 11.7216 25.7285 11.7216 25.4984C11.7216 25.2683 11.8305 25.014 12.0243 24.8324L12.3149 24.5297H33.0341H53.7532L54.0438 24.8324ZM41.4501 28.7074C41.6438 28.889 41.7528 29.1433 41.7528 29.3734C41.7528 29.6035 41.6438 29.8578 41.4501 30.0394L41.1594 30.3422H26.7372H12.3149L12.0243 30.0394C11.8305 29.8578 11.7216 29.6035 11.7216 29.3734C11.7216 29.1433 11.8305 28.889 12.0243 28.7074L12.3149 28.4047H26.7372H41.1594L41.4501 28.7074ZM54.0438 28.7074C54.2376 28.889 54.3466 29.1433 54.3466 29.3734C54.3466 29.6035 54.2376 29.8578 54.0438 30.0394L53.7532 30.3422H50.9559H48.1587L47.868 30.0394C47.6743 29.8578 47.5653 29.6035 47.5653 29.3734C47.5653 29.1433 47.6743 28.889 47.868 28.7074L48.1587 28.4047H50.9559H53.7532L54.0438 28.7074ZM34.6688 32.5824C34.8626 32.764 34.9716 33.0183 34.9716 33.2484C34.9716 33.4785 34.8626 33.7328 34.6688 33.9144L34.3782 34.2172H23.3466H12.3149L12.0243 33.9144C11.8305 33.7328 11.7216 33.4785 11.7216 33.2484C11.7216 33.0183 11.8305 32.764 12.0243 32.5824L12.3149 32.2797H23.3466H34.3782L34.6688 32.5824ZM32.7313 36.4574C32.9251 36.639 33.0341 36.8933 33.0341 37.1234C33.0341 37.3535 32.9251 37.6078 32.7313 37.7894L32.4407 38.0922H22.3778H12.3149L12.0243 37.7894C11.8305 37.6078 11.7216 37.3535 11.7216 37.1234C11.7216 36.8933 11.8305 36.639 12.0243 36.4574L12.3149 36.1547H22.3778H32.4407L32.7313 36.4574ZM30.7938 41.3011L31.0966 41.5918V44.8734V48.1551L30.7938 48.4457L30.5032 48.7484H21.4091H12.3149L12.0243 48.4457L11.7216 48.1551V44.8734V41.5918L12.0243 41.3011L12.3149 40.9984H21.4091H30.5032L30.7938 41.3011Z" fill="white"/>
<path d="M32.0652 14.9996C31.4719 15.1933 30.4547 16.2347 30.2731 16.8523C29.934 17.9906 30.1762 18.8988 31.036 19.7465C32.2711 20.9937 33.9785 20.9695 35.1289 19.6859C36.2188 18.475 36.2188 17.0219 35.1289 15.8109C34.3418 14.939 33.2156 14.6363 32.0652 14.9996Z" fill="white"/>
<path d="M13.6591 44.8734V46.8109H21.4091H29.1591V44.8734V42.9359H21.4091H13.6591V44.8734Z" fill="white"/>
<path d="M43.4239 33.3574C41.9466 34.8711 41.6438 35.0043 39.5489 35.0043C38.6407 35.0043 37.8536 35.0527 37.793 35.1011C37.7446 35.1617 37.6962 35.9488 37.6962 36.857C37.6962 38.9398 37.5751 39.2304 36.0493 40.7199C35.4559 41.3011 34.9716 41.8582 34.9716 41.9672C34.9716 42.0761 35.4559 42.6211 36.0372 43.1902C37.5509 44.6554 37.6962 44.9824 37.6962 47.0168C37.6962 48.1672 37.7446 48.6636 37.8536 48.7726C37.9626 48.8816 38.4712 48.9301 39.67 48.9301C41.2805 48.9301 41.3532 48.9422 41.9223 49.2812C42.2372 49.4629 42.9395 50.0804 43.4844 50.6375C44.0173 51.1945 44.5501 51.6547 44.6591 51.6547C44.768 51.6547 45.3372 51.1582 45.9305 50.5527C47.3837 49.039 47.6501 48.9301 49.7692 48.9301C50.6774 48.9301 51.4645 48.8816 51.5251 48.8332C51.5735 48.7726 51.6219 47.9855 51.6219 47.0773C51.6219 44.9945 51.743 44.7039 53.2688 43.2144C53.8622 42.6332 54.3466 42.0761 54.3466 41.9672C54.3466 41.8582 53.8622 41.3011 53.2688 40.7199C51.743 39.2304 51.6219 38.9398 51.6219 36.857C51.6219 35.9488 51.5735 35.1617 51.5251 35.1011C51.4645 35.0527 50.6774 35.0043 49.7692 35.0043C47.6864 35.0043 47.3958 34.8832 45.9063 33.3574C45.3251 32.764 44.768 32.2797 44.6591 32.2797C44.5501 32.2797 43.993 32.764 43.4239 33.3574ZM46.8509 35.5734C48.6552 36.2394 49.9266 37.3535 50.7137 38.9883C52.518 42.7301 50.7137 47.0289 46.754 48.3972C43.7024 49.4386 40.0696 47.9492 38.6407 45.0551C38.0958 43.9652 37.9384 43.275 37.9384 41.9672C37.9384 40.0539 38.5438 38.5523 39.8274 37.2445C40.7962 36.2636 42.0071 35.5976 43.3876 35.2949C44.2352 35.1133 45.9669 35.2586 46.8509 35.5734Z" fill="white"/>
<path d="M43.5208 37.2445C42.7579 37.4383 41.668 38.0922 41.1352 38.6613C40.8688 38.9519 40.4692 39.5574 40.2634 40.0054C39.9122 40.7441 39.8759 40.9258 39.8759 41.9793C39.8759 43.0691 39.9001 43.1781 40.3239 44.05C40.8688 45.1519 41.5712 45.8301 42.6973 46.3629C43.436 46.714 43.6177 46.7504 44.6591 46.7504C45.7005 46.7504 45.8821 46.714 46.6208 46.3629C47.7469 45.8301 48.4493 45.1519 48.9942 44.05C49.418 43.1781 49.4423 43.0691 49.4423 41.9672C49.4423 40.8652 49.418 40.7562 48.9942 39.8844C48.1708 38.2375 46.7177 37.2566 44.9255 37.1719C44.4169 37.1476 43.7872 37.184 43.5208 37.2445Z" fill="white"/>
<path d="M41.7528 54.8273V58L43.0122 56.7648C44.6833 55.118 44.6348 55.118 46.3059 56.7648L47.5653 58V54.8273V51.6668L46.9477 52.3207C46.2454 53.0715 45.3009 53.5922 44.6591 53.5922C44.0173 53.5922 43.0727 53.0715 42.3704 52.3207L41.7528 51.6668V54.8273Z" fill="white"/>
</svg>
