<svg width="50" height="64" viewBox="0 0 50 64" fill="none" xmlns="http://www.w3.org/2000/svg">
<path d="M19.3464 19.4313C19.6074 19.4375 19.8684 19.4431 20.1294 19.4482C20.7656 19.4617 21.4014 19.4822 22.0372 19.5083C21.9684 20.1273 21.8408 20.6711 21.6452 21.2633C21.6175 21.3481 21.5897 21.4329 21.5612 21.5202C21.5013 21.7029 21.4412 21.8854 21.3807 22.0679C21.285 22.3575 21.1904 22.6474 21.0962 22.9375C20.8283 23.7618 20.5593 24.5857 20.2873 25.4085C20.1206 25.9131 19.9559 26.4185 19.7926 26.9244C19.7303 27.1161 19.6672 27.3075 19.6032 27.4987C19.1218 28.8876 19.1218 28.8876 19.2141 30.338C19.4743 30.7792 19.7031 31.0014 20.1551 31.1994C20.6895 31.2869 21.1098 31.2487 21.6035 31.0148C22.2283 30.4067 22.4737 29.5327 22.7332 28.6997C22.7641 28.6028 22.7949 28.5058 22.8267 28.4059C22.9274 28.089 23.027 27.7718 23.1267 27.4546C23.1969 27.2331 23.2671 27.0116 23.3375 26.7901C23.5216 26.2098 23.7048 25.6292 23.8879 25.0485C24.1819 24.1165 24.4772 23.1849 24.7724 22.2532C24.8754 21.9278 24.9781 21.6024 25.0807 21.2768C25.1434 21.0785 25.2061 20.8801 25.2688 20.6818C25.2973 20.591 25.3258 20.5002 25.3552 20.4067C25.5529 19.7823 25.5529 19.7823 25.6838 19.5083C26.5591 19.4882 27.4344 19.473 28.3099 19.4636C28.7165 19.4591 29.1229 19.4531 29.5294 19.4433C29.9975 19.4321 30.4655 19.4279 30.9336 19.4241C31.1511 19.4175 31.1511 19.4175 31.373 19.4107C32.5023 19.4101 32.5023 19.4101 32.994 19.9168C33.1098 20.0646 33.2219 20.2156 33.3299 20.3697C33.4492 20.5166 33.5692 20.6628 33.6902 20.8081C33.7905 20.9302 33.7905 20.9302 33.8928 21.0548C34.2414 21.4555 34.6087 21.8347 34.9768 22.2157C35.4695 22.7258 35.9445 23.2383 36.392 23.7925C36.7986 24.2651 37.2368 24.7055 37.6687 25.1526C38.089 25.5895 38.4876 26.0346 38.8701 26.5081C39.1858 26.8763 39.5224 27.2212 39.8585 27.569C40.4129 28.1447 40.948 28.7236 41.4465 29.3535C41.4992 29.4185 41.5519 29.4836 41.6062 29.5506C46.6508 35.7885 49.3735 43.8127 48.975 51.9974C48.8302 53.5847 48.3744 55.0156 47.681 56.4278C47.6195 56.5563 47.5579 56.6848 47.4945 56.8172C46.0731 59.5664 43.5192 61.7043 40.669 62.6231C39.0544 63.0883 37.5211 63.1269 35.8543 63.123C35.5781 63.1237 35.302 63.1246 35.0259 63.1256C34.2805 63.1278 33.5351 63.1276 32.7896 63.1269C32.086 63.1265 31.3824 63.1275 30.6788 63.1283C29.1999 63.13 27.7211 63.1293 26.2422 63.1279C24.8939 63.1267 23.5457 63.1283 22.1974 63.1312C20.8077 63.1343 19.4181 63.1354 18.0284 63.1346C17.2503 63.1342 16.4722 63.1345 15.6941 63.1366C14.962 63.1385 14.2298 63.138 13.4976 63.1357C13.2305 63.1353 12.9634 63.1356 12.6962 63.1369C8.97419 63.1536 5.96892 62.0874 3.25284 59.3352C1.75477 57.7283 0.792948 55.7633 0.275281 53.5973C0.253379 53.5127 0.231477 53.4281 0.208911 53.341C-0.028359 52.3047 -0.00137348 51.2487 0.00325623 50.1899C0.00347065 50.0888 0.00368508 49.9878 0.003906 49.8836C0.0329066 41.757 3.28968 33.6858 8.79184 27.9403C8.9547 27.7724 9.11809 27.6051 9.28149 27.4378C9.51963 27.1891 9.74083 26.9376 9.95788 26.6691C10.3527 26.184 10.7826 25.7401 11.2151 25.2923C11.852 24.6346 11.852 24.6346 12.4502 23.9386C12.903 23.3779 13.408 22.872 13.9063 22.3562C14.267 21.9812 14.6194 21.6054 14.9499 21.2004C15.008 21.1326 15.0661 21.0647 15.1259 20.9948C15.3412 20.7382 15.3412 20.7382 15.5271 20.4273C16.5048 19.0908 17.8793 19.371 19.3464 19.4313ZM12.8619 40.1832C11.8984 41.354 11.3948 43.0261 11.426 44.563C11.5834 46.4799 12.3005 48.2444 13.6853 49.5361C15.1854 50.7286 16.8078 51.2641 18.6856 51.0792C21.1875 50.6752 22.6969 48.869 24.3899 47.0748C24.8076 47.2593 25.0613 47.5102 25.3714 47.8531C25.4696 47.9595 25.5679 48.0658 25.6691 48.1754C25.8721 48.3974 26.0743 48.6201 26.2757 48.8436C27.63 50.3026 29.1137 51.0251 31.0434 51.1667C32.9425 51.1283 34.4898 50.3138 35.8002 48.9208C35.9037 48.8123 35.9037 48.8123 36.0093 48.7016C37.1762 47.3845 37.545 45.6596 37.4875 43.9102C37.4047 42.5294 36.9279 41.41 36.1531 40.3062C36.0657 40.1768 35.9784 40.0474 35.8884 39.914C34.6092 38.5453 32.9621 37.7743 31.139 37.6757C28.2383 37.7476 26.404 39.7465 24.5075 41.783C23.9925 41.3347 23.5141 40.8723 23.0501 40.367C21.6135 38.8073 20.0541 37.7327 17.9128 37.6911C15.8482 37.7204 14.2454 38.6519 12.8619 40.1832Z" fill="white"/>
<path d="M9.26415 0.0475974C9.374 0.0470488 9.48385 0.0465002 9.59703 0.045935C9.77927 0.045969 9.77927 0.045969 9.9652 0.0460037C10.0936 0.0455512 10.2221 0.0450988 10.3544 0.0446326C10.7877 0.0432699 11.221 0.0428005 11.6543 0.0423326C11.9638 0.0415619 12.2732 0.040744 12.5827 0.039882C13.5136 0.0374484 14.4444 0.0362107 15.3753 0.035116C15.8135 0.0345768 16.2516 0.0339163 16.6898 0.0332714C18.1461 0.0311776 19.6025 0.0293938 21.0588 0.0285027C21.4368 0.0282677 21.8149 0.0280314 22.1929 0.0277907C22.2869 0.0277312 22.3808 0.0276716 22.4777 0.0276103C24 0.0265887 25.5224 0.0234704 27.0448 0.0194739C28.6072 0.0154056 30.1696 0.0131876 31.732 0.0127942C32.6095 0.0125276 33.487 0.0114487 34.3644 0.00830712C35.1117 0.0056379 35.8589 0.00464394 36.6062 0.00584173C36.9875 0.00640167 37.3687 0.00589637 37.75 0.00377898C38.1634 0.00161129 38.5767 0.00246668 38.9901 0.0040907C39.1106 0.00274077 39.231 0.00139084 39.3551 0C40.051 0.00661587 40.4435 0.0758731 40.976 0.556375C41.3456 1.0187 41.4888 1.53465 41.4833 2.13315C41.3587 2.98035 40.8044 3.51323 40.2702 4.12526C40.0524 4.38999 39.838 4.6577 39.6233 4.92518C39.513 5.06109 39.4027 5.19698 39.2924 5.33284C39.0068 5.68601 38.7261 6.04315 38.447 6.40196C38.0061 6.96862 37.5565 7.5268 37.1043 8.08353C36.7633 8.50399 36.427 8.92788 36.0943 9.35552C35.6534 9.92218 35.2039 10.4804 34.7516 11.0371C34.4107 11.4575 34.0744 11.8814 33.7417 12.3091C33.2057 12.9979 32.6669 13.6889 32.0976 14.348C31.9037 14.59 31.9037 14.59 31.7536 14.918C31.4469 15.4524 31.1692 15.8489 30.5863 16.0195C29.7263 16.1541 28.856 16.1291 27.9887 16.1193C27.7053 16.1202 27.4219 16.1215 27.1385 16.1232C26.5455 16.1252 25.9528 16.1223 25.3599 16.116C24.6014 16.1083 23.8436 16.1127 23.0852 16.1208C22.5002 16.1257 21.9154 16.1242 21.3304 16.1207C21.0509 16.1198 20.7714 16.1208 20.4919 16.124C18.1953 16.1443 18.1953 16.1443 17.6375 15.6414C17.3685 15.3009 17.1729 14.9767 16.9791 14.5858C16.8671 14.4372 16.7511 14.2916 16.6299 14.1512C16.0448 13.4334 15.4677 12.71 14.8985 11.9783C14.5957 11.5931 14.2882 11.2124 13.9795 10.8323C13.4947 10.2355 13.0184 9.63222 12.5458 9.02479C12.243 8.63953 11.9355 8.25881 11.6268 7.87874C11.1512 7.29286 10.682 6.70221 10.2185 6.10584C9.9834 5.80483 9.74713 5.50505 9.5099 5.20592C9.43709 5.11395 9.36427 5.02198 9.28925 4.92723C9.14562 4.74589 9.00179 4.56473 8.85773 4.38377C7.52698 2.70138 7.52698 2.70138 7.54324 1.67117C7.59932 1.10897 7.83032 0.765441 8.22284 0.394853C8.60895 0.115201 8.80127 0.0486665 9.26415 0.0475974Z" fill="white"/>
<path d="M33.0654 41.9753C33.7532 42.6596 34.0682 43.4413 34.1093 44.4289C34.071 45.3251 33.8465 46.062 33.2156 46.6907C32.4031 47.3501 31.6506 47.6359 30.6112 47.5454C29.4891 47.3125 28.6243 46.4005 27.8454 45.5826C27.7165 45.4529 27.7165 45.4529 27.5849 45.3206C27.5044 45.2367 27.4239 45.1528 27.3409 45.0663C27.2682 44.9911 27.1954 44.9159 27.1205 44.8384C26.9779 44.6135 26.9779 44.6135 26.9864 44.3713C27.225 43.8245 27.7001 43.4312 28.1027 43.0136C28.1953 42.9143 28.2879 42.815 28.3833 42.7127C29.6863 41.3506 31.4583 40.6851 33.0654 41.9753Z" fill="white"/>
<path d="M19.5766 41.8158C20.4839 42.5132 21.2535 43.4035 22.0372 44.2444C21.7554 44.9276 21.2163 45.3948 20.7212 45.9135C20.6226 46.0197 20.5239 46.1259 20.4223 46.2353C19.6336 47.0643 19.008 47.4911 17.8746 47.5739C16.9788 47.5543 16.2894 47.2231 15.6488 46.5759C15.053 45.859 14.8301 45.0675 14.8617 44.1213C14.9891 43.1953 15.3604 42.5152 16.038 41.9062C17.1716 41.1428 18.408 41.0726 19.5766 41.8158Z" fill="white"/>
</svg>
