<svg width="69" height="69" viewBox="0 0 69 69" fill="none" xmlns="http://www.w3.org/2000/svg">
<path d="M6.79359 8.87796C5.71591 9.05758 4.79218 9.75038 4.29183 10.7511C4.06089 11.2386 4.04806 11.7646 4.00957 30.855C3.98392 49.7017 3.99675 50.4843 4.21485 50.9975C4.56125 51.7801 5.08726 52.3318 5.83138 52.7295L6.48568 53.0759L22.8049 53.1144L39.1241 53.14L39.2268 52.6653C39.2781 52.3959 39.3294 51.0745 39.3294 49.7402V47.3026L24.7678 47.2769L10.2063 47.2384L9.98816 46.969C9.78289 46.7381 9.75723 46.4045 9.75723 44.4031V42.1066H9.19273C8.20485 42.1066 8.21768 42.1451 8.21768 38.463C8.21768 35.9997 8.25617 35.1786 8.38446 34.999C8.4871 34.8579 8.78218 34.7424 9.15424 34.7039L9.75723 34.6269V30.932V27.2243H9.20555C8.21768 27.2243 8.21768 27.2243 8.21768 23.478C8.21768 19.7703 8.21768 19.7831 9.21838 19.7831H9.7444L9.78289 17.3968C9.82137 15.2158 9.84703 14.9977 10.0651 14.8309C10.45 14.5615 47.2966 14.5615 47.6815 14.8309C47.9124 14.9977 47.9252 15.2158 47.9637 17.7175L48.0022 20.4118L48.6052 20.3476C49.375 20.2706 53.0442 20.0397 53.4548 20.0397H53.7627V15.7674C53.7627 11.5722 53.7499 11.4952 53.4548 10.8666C53.0956 10.0711 52.4669 9.44247 51.71 9.08324L51.1326 8.81382L29.2582 8.80099C17.224 8.78816 7.11433 8.82665 6.79359 8.87796Z" fill="white"/>
<path d="M11.2968 17.9227V19.783H11.8484C12.8363 19.783 12.8363 19.783 12.8363 23.5292C12.8363 27.2498 12.8363 27.2241 11.8356 27.2241H11.2968V30.9319V34.6268L11.8997 34.7038C12.2718 34.7423 12.5669 34.8577 12.6695 34.9989C12.8748 35.2939 12.9133 41.465 12.708 41.8627C12.6054 42.0551 12.4258 42.1064 11.9382 42.1064H11.2968V43.9667V45.827H25.2553H39.2011V43.3509C39.2011 41.2725 39.2396 40.7722 39.4449 40.182C40.3173 37.6289 42.216 35.6275 44.8589 34.4728C45.6415 34.1264 45.757 34.0495 45.6672 33.8314C45.4876 33.3567 45.5517 32.5741 45.8212 32.0352L46.0906 31.4836L45.3593 29.1486C44.9487 27.8015 44.6665 26.6853 44.705 26.5185C44.7435 26.3517 45.308 25.8642 46.1291 25.2869C46.8604 24.7609 47.4762 24.2733 47.4762 24.1964C47.4762 24.1194 47.2452 23.4907 46.9502 22.7851L46.4241 21.515L46.4498 18.7823L46.4626 16.0624H28.8861H11.2968V17.9227ZM30.5924 22.0153C32.581 22.4002 34.1077 23.2341 35.6088 24.7224C36.6608 25.7872 37.3793 26.9162 37.8412 28.289L38.0721 28.9561L39.6116 29.0203C40.7663 29.0716 41.2282 29.1486 41.4848 29.3154C42.7292 30.1236 43.05 31.5734 42.2289 32.728C41.7414 33.408 41.0357 33.6389 39.4833 33.6389C38.2774 33.6389 38.0977 33.6646 38.0336 33.857C37.3536 36.0894 35.9552 38.001 34.1206 39.2326C31.4777 40.9903 28.0137 41.311 25.1014 40.0537C22.343 38.8734 20.2005 36.2177 19.5847 33.2284C18.9304 30.098 19.8926 26.9804 22.2019 24.6582C24.4727 22.3874 27.5133 21.438 30.5924 22.0153Z" fill="white"/>
<path d="M28.0394 23.3241C27.8982 23.3497 27.462 23.4395 27.0771 23.5165C24.4086 24.0425 21.9453 26.3903 21.0986 29.2128C20.7265 30.4445 20.7778 32.5357 21.214 33.8058C21.6759 35.1144 22.4072 36.2691 23.4079 37.2057C25.0372 38.7196 26.6666 39.3482 28.9374 39.3354C30.1691 39.3354 30.4898 39.2841 31.4392 38.9505C32.812 38.463 33.7614 37.8471 34.7749 36.7695C35.4677 36.0253 36.2503 34.7424 36.4941 33.9213L36.5839 33.639H33.0429C29.1555 33.639 28.9374 33.6006 28.5525 32.8693C28.2703 32.3176 28.2831 30.2777 28.5782 29.7773C29.0016 29.0717 29.271 29.0204 33.107 29.0204H36.5839L36.5069 28.7253C36.2246 27.8144 35.4164 26.5699 34.5183 25.6847C33.4534 24.607 32.286 23.9142 30.9645 23.5807C30.1434 23.3626 28.4756 23.2214 28.0394 23.3241Z" fill="white"/>
<path d="M29.8612 30.5214C29.8099 30.5599 29.7714 30.9705 29.7714 31.4195V32.2278H35.1983C41.2282 32.2278 41.1897 32.2278 41.1897 31.4195C41.1769 30.4316 41.1897 30.4316 35.1854 30.4316C32.2988 30.4316 29.8997 30.4701 29.8612 30.5214Z" fill="white"/>
<path d="M9.62891 23.5037V25.813H10.527H11.425V23.5037V21.1943H10.527H9.62891V23.5037Z" fill="white"/>
<path d="M50.5809 21.6434C49.2851 21.7461 48.2075 21.8359 48.1818 21.8615C48.169 21.8744 48.5154 22.8494 48.9644 24.0169C50.2987 27.4296 50.4013 27.776 50.2858 28.0839C50.1576 28.4303 49.6572 28.5842 49.298 28.3918C49.144 28.3148 48.8618 27.776 48.5667 26.9805C48.2588 26.1466 48.0407 25.7232 47.938 25.7746C47.8611 25.8131 47.4377 26.1081 47.0015 26.4289L46.2189 27.0062L46.3985 27.5964C46.4883 27.9171 46.7577 28.7895 47.0015 29.5336L47.4249 30.8807H50.876H54.3272L55.5845 28.5073C56.2773 27.1986 56.8161 26.0825 56.8033 26.0055C56.7648 25.9029 55.0456 25.5308 54.9558 25.6078C54.943 25.6206 54.7762 26.2108 54.5838 26.9164C54.1732 28.4559 54.0962 28.6099 53.6857 28.7125C53.3008 28.8152 52.8646 28.4688 52.8646 28.0711C52.8646 27.853 54.1989 22.5543 54.4811 21.6691C54.5709 21.3997 54.1347 21.3997 50.5809 21.6434Z" fill="white"/>
<path d="M47.117 32.6383C46.9245 32.8307 46.9117 33.3439 47.1041 33.4594C47.1811 33.5107 48.9388 33.5492 50.9915 33.5492H54.7249V33.0488V32.5485L51.0043 32.51C48.2075 32.4843 47.2324 32.5228 47.117 32.6383Z" fill="white"/>
<path d="M47.9509 35.0503C46.9245 35.217 45.1797 35.8329 44.3073 36.346C43.1783 37.0132 41.8312 38.4244 41.2923 39.5021C40.5226 41.0288 40.4712 41.6447 40.715 46.2505C40.9459 50.6254 40.8946 52.1264 40.4199 53.9739C40.0992 55.2568 39.2268 57.0273 38.303 58.259C37.9182 58.785 37.5974 59.3367 37.5974 59.4906C37.5974 60.1834 38.7392 60.9917 39.7143 60.9917C40.3301 60.9917 40.5867 60.8762 41.395 60.2604C41.7029 60.0294 42.2802 59.7087 42.6908 59.5419C43.6786 59.157 45.5902 59.157 48.0535 59.5291C50.3115 59.8755 51.2353 59.8755 53.6087 59.5291C55.9822 59.1827 57.804 59.157 58.7791 59.4649C59.1896 59.5804 59.8567 59.9525 60.2929 60.2732C60.7291 60.6068 61.268 60.9019 61.4989 60.9532C62.1917 61.1071 62.9487 60.8762 63.5132 60.3374C64.2316 59.6574 64.206 59.311 63.3336 58.1948C62.4098 56.9888 61.9351 56.1164 61.4733 54.7437C60.7548 52.5626 60.7291 51.9083 61.0242 43.8898C61.114 41.4907 61.0371 40.8877 60.3956 39.5406C59.7798 38.232 58.2402 36.7694 56.7007 36.0253C54.9045 35.1529 54.2374 35.0246 51.2609 34.9861C49.8497 34.9605 48.3614 34.9861 47.9509 35.0503ZM51.2866 41.016C51.5047 41.17 51.5817 41.3624 51.6073 41.9397C51.6458 42.6582 51.6458 42.6582 52.1718 42.8378C53.6472 43.3253 54.7891 45.3011 54.0578 46.1094C53.6472 46.5584 52.8646 46.212 52.8646 45.5833C52.8646 45.0958 52.4284 44.5698 51.7869 44.2747C51.1711 43.9925 50.9273 43.9796 50.2474 44.1721C49.4776 44.3902 49.0157 44.9162 49.0157 45.5962C49.0157 46.5456 49.2852 46.738 51.2737 47.2384C53.0442 47.6874 53.6216 48.021 54.0064 48.8036C54.4298 49.7016 54.3785 50.728 53.8653 51.6004C53.4933 52.2162 53.3265 52.3702 52.5182 52.7551L51.5945 53.2041L51.5817 53.8713C51.5817 54.6154 51.3636 54.9361 50.876 54.9361C50.4527 54.9361 50.1704 54.4742 50.1704 53.7686C50.1704 53.1913 50.1576 53.1656 49.6187 52.9604C48.5539 52.5626 47.7713 51.6774 47.5532 50.6125C47.4505 50.1507 47.6173 49.753 48.0022 49.5477C48.3999 49.3296 48.8233 49.676 48.9901 50.3431C49.298 51.5619 50.6194 52.0751 51.9281 51.485C52.5824 51.177 52.9288 50.5997 52.8133 49.9582C52.685 49.1371 52.4926 49.0345 49.9266 48.3802C48.2203 47.9312 47.566 47.1999 47.5532 45.6988C47.5403 45.006 47.6045 44.7622 47.8996 44.2491C48.2845 43.5948 49.1697 42.9276 49.824 42.7865C50.1447 42.7223 50.1704 42.671 50.1704 42.0552C50.1704 41.3881 50.3244 41.0417 50.6836 40.9134C50.9787 40.8107 50.9915 40.8107 51.2866 41.016Z" fill="white"/>
<path d="M9.62891 38.4501V40.6953H10.527H11.425V38.4501V36.205H10.527H9.62891V38.4501Z" fill="white"/>
<path d="M12.4644 54.7051C12.4644 54.7949 12.7082 55.616 13.0161 56.5397L13.5549 58.2076L15.5307 58.2461L17.5193 58.2717L18.1094 56.4114L18.6996 54.5512H15.582C13.1572 54.5512 12.4516 54.5896 12.4644 54.7051Z" fill="white"/>
</svg>
