<svg width="50" height="45" viewBox="0 0 50 45" fill="none" xmlns="http://www.w3.org/2000/svg">
<path d="M28.7365 5.89596C29.1116 6.05402 29.4207 6.29236 29.7432 6.53659C29.8736 6.63212 30.0043 6.72744 30.135 6.82258C30.4335 7.04058 30.7308 7.26009 31.0273 7.48072C31.4527 7.79692 31.8813 8.10861 32.3114 8.41842C32.3789 8.4671 32.4465 8.51578 32.5161 8.56593C32.6523 8.66409 32.7886 8.76222 32.9249 8.86033C33.3366 9.15688 33.7478 9.4542 34.1591 9.75137C34.501 9.99834 34.843 10.2451 35.1853 10.4915C35.9645 11.0528 36.7399 11.6188 37.5123 12.1894C38.2064 12.7016 38.9056 13.2068 39.6057 13.7108C39.9487 13.9578 40.2912 14.2054 40.6338 14.4529C41.0487 14.7526 41.4637 15.0523 41.8789 15.3516C42.5425 15.83 43.2053 16.3093 43.8655 16.7923C43.9208 16.8327 43.9761 16.873 44.0331 16.9146C44.1818 17.0237 44.3297 17.1339 44.4775 17.2442C44.5578 17.2872 44.6381 17.3301 44.7208 17.3744C45.0683 17.7568 44.9966 18.1701 44.9902 18.6688C44.9906 18.7782 44.9909 18.8877 44.9913 19.0004C44.992 19.3043 44.9905 19.6081 44.9882 19.912C44.9863 20.2396 44.9869 20.5673 44.9873 20.8949C44.9875 21.4626 44.9861 22.0303 44.9835 22.598C44.9798 23.4188 44.9786 24.2395 44.978 25.0603C44.977 26.392 44.974 27.7236 44.9697 29.0552C44.9655 30.3489 44.9622 31.6425 44.9603 32.9362C44.9601 33.0167 44.96 33.0973 44.9599 33.1802C44.959 33.8101 44.9581 34.44 44.9572 35.0698C44.9529 38.1577 44.9437 41.2456 44.9351 44.3335C39.348 44.3335 33.7608 44.3335 28.0043 44.3335C27.9872 36.3485 27.9872 36.3485 27.9853 33.8249C27.9826 33.08 27.9826 33.08 27.9793 32.3352C27.9778 32.0027 27.9776 31.6703 27.9782 31.3379C27.9789 30.9142 27.9774 30.4905 27.9743 30.0668C27.9736 29.9111 27.9736 29.7554 27.9744 29.5997C27.9755 29.3897 27.9738 29.1799 27.9713 28.9699C27.9711 28.8521 27.9708 28.7343 27.9706 28.613C27.9362 28.3082 27.9362 28.3082 27.723 28.0972C27.399 27.9212 27.1329 27.8992 26.7732 27.9018C26.6727 27.9004 26.6727 27.9004 26.5701 27.8989C26.3498 27.8962 26.1295 27.8961 25.9091 27.896C25.7558 27.8946 25.6026 27.8931 25.4494 27.8914C25.0469 27.8874 24.6445 27.8856 24.242 27.8842C23.831 27.8824 23.42 27.8786 23.0089 27.8749C22.2031 27.868 21.3973 27.8634 20.5914 27.8602C20.555 25.6718 20.5276 23.4833 20.5108 21.2946C20.5028 20.2783 20.4919 19.2621 20.474 18.2459C20.4585 17.3598 20.4485 16.4739 20.445 15.5877C20.443 15.1187 20.4383 14.65 20.4269 14.1811C20.4163 13.7389 20.4131 13.2974 20.4154 12.8551C20.415 12.6935 20.4119 12.5319 20.4059 12.3704C20.3641 11.1846 20.3641 11.1846 20.7453 10.7567C21.1214 10.4302 21.5337 10.1751 21.9677 9.93323C22.1899 9.80699 22.394 9.66197 22.5984 9.50877C22.6587 9.46524 22.719 9.42171 22.7812 9.37686C22.84 9.33427 22.8988 9.29168 22.9594 9.2478C23.0265 9.19932 23.0936 9.15083 23.1627 9.10087C23.6651 8.73693 24.1649 8.36942 24.6639 8.00087C25.2533 7.56573 25.8439 7.13241 26.4371 6.70246C26.5051 6.65298 26.5731 6.60349 26.6432 6.5525C27.3561 6.03708 27.8256 5.74697 28.7365 5.89596Z" fill="white"/>
<path d="M5.6741 2.51001C10.0532 2.51001 14.4324 2.51001 18.9442 2.51001C18.9442 11.9629 18.9442 21.4158 18.9442 31.1551C12.6926 31.1551 6.44102 31.1551 0 31.1551C0 23.6049 0 16.0546 0 8.27563C1.69125 8.24543 3.3825 8.21523 5.125 8.18411C5.49107 8.04684 5.49107 8.04684 5.58259 7.81804C5.61279 6.06639 5.64299 4.31474 5.6741 2.51001Z" fill="white"/>
<path d="M20.5918 29.5076C22.4944 29.5076 24.3971 29.5076 26.3574 29.5076C26.3574 34.4001 26.3574 39.2927 26.3574 44.3335C23.3675 44.3335 20.3776 44.3335 17.2971 44.3335C17.2971 40.5281 17.2971 36.7228 17.2971 32.8022C18.1729 32.772 19.0488 32.7418 19.9511 32.7107C20.3477 32.5582 20.3477 32.5582 20.5002 32.1616C20.5304 31.2858 20.5606 30.4099 20.5918 29.5076Z" fill="white"/>
<path d="M28.1074 0.0103673C28.1737 0.00694606 28.24 0.00352487 28.3083 0C28.9994 0.109808 29.5611 0.587596 30.1036 0.999904C30.2578 1.11539 30.4121 1.23073 30.5666 1.34596C30.6435 1.40341 30.7204 1.46086 30.7996 1.52005C31.1299 1.7642 31.4657 2.00017 31.8024 2.23539C32.4388 2.68108 33.0653 3.1393 33.6898 3.60153C34.1126 3.91423 34.5369 4.22429 34.9655 4.52906C35.016 4.56497 35.0665 4.60087 35.1185 4.63787C35.1953 4.69248 35.1953 4.69248 35.2736 4.7482C36.2357 5.4325 37.1905 6.12684 38.14 6.82844C38.7365 7.26913 39.3363 7.70437 39.9407 8.134C40.5309 8.55377 41.1168 8.97965 41.7037 9.40408C41.9107 9.55363 42.1179 9.70292 42.3252 9.85211C43.038 10.3655 43.7482 10.8822 44.4547 11.4043C45.0505 11.8445 45.6496 12.2792 46.2533 12.7085C47.1251 13.3285 47.993 13.9544 48.8533 14.5903C48.9351 14.6507 49.0168 14.7111 49.1011 14.7733C49.9116 15.4269 49.9116 15.4269 49.9994 15.9702C50.009 16.5013 49.9173 16.9011 49.6026 17.3358C49.2282 17.6835 48.8654 17.7792 48.3668 17.8067C47.6999 17.768 47.215 17.2929 46.7104 16.8956C46.3072 16.5783 45.8936 16.2796 45.4729 15.9859C44.9085 15.5912 44.3506 15.1888 43.797 14.7791C43.0284 14.2103 42.2549 13.6488 41.4789 13.0902C41.0672 12.7937 40.656 12.4963 40.2447 12.1992C39.9028 11.9522 39.5608 11.7054 39.2186 11.459C38.5052 10.9452 37.7946 10.4282 37.0876 9.90573C36.491 9.46494 35.891 9.02966 35.2865 8.59981C34.3244 7.91551 33.3697 7.22114 32.4201 6.51957C31.7158 5.99957 31.0101 5.4823 30.2924 4.98093C30.2233 4.93209 30.1543 4.88325 30.0832 4.83293C29.2687 4.28561 28.3728 4.11837 27.4088 4.28954C26.5704 4.53311 25.8923 5.11879 25.2065 5.63706C24.8374 5.91538 24.4644 6.18848 24.092 6.46237C24.0192 6.51618 23.9463 6.56999 23.8712 6.62543C23.2925 7.05264 22.709 7.47244 22.1222 7.8885C21.949 8.01187 21.7764 8.13614 21.6039 8.26056C21.5446 8.30323 21.4853 8.34591 21.4242 8.38988C21.3098 8.47224 21.1955 8.55475 21.0813 8.63744C20.6933 8.91619 20.6933 8.91619 20.5915 8.91619C20.5619 8.39863 20.5404 7.88156 20.5261 7.36334C20.5202 7.18752 20.5121 7.01175 20.5017 6.83613C20.4204 5.42078 20.4204 5.42078 20.7022 4.99767C21.0157 4.67187 21.3867 4.46317 21.7812 4.24879C21.8956 4.16837 22.0089 4.08631 22.1197 4.00104C22.21 3.93746 22.3002 3.87387 22.3932 3.80836C22.5009 3.73214 22.6085 3.65587 22.716 3.57956C22.7718 3.54004 22.8276 3.50052 22.8851 3.4598C23.2124 3.22692 23.5377 2.99129 23.8632 2.7559C23.9322 2.70605 24.0012 2.6562 24.0723 2.60484C24.4281 2.34771 24.7838 2.09027 25.1391 1.8325C27.6314 0.0261238 27.6314 0.0261237 28.1074 0.0103673Z" fill="white"/>
<path d="M33.209 27.8456C33.2931 27.8452 33.3772 27.8447 33.4639 27.8442C33.7429 27.8429 34.022 27.8423 34.3011 27.8418C34.4946 27.8413 34.6882 27.8407 34.8818 27.8402C35.2881 27.8392 35.6944 27.8387 36.1007 27.8384C36.6214 27.8379 37.1421 27.8357 37.6628 27.8331C38.0628 27.8314 38.4628 27.8309 38.8628 27.8308C39.0548 27.8305 39.2467 27.8297 39.4387 27.8285C39.7073 27.827 39.9759 27.8272 40.2445 27.8278C40.3238 27.8269 40.4032 27.8261 40.485 27.8252C40.9146 27.8282 41.2025 27.8528 41.5492 28.1349C41.7905 28.4968 41.76 28.8098 41.7603 29.23C41.761 29.314 41.7618 29.3979 41.7626 29.4845C41.7648 29.7626 41.7656 30.0407 41.7662 30.3188C41.767 30.5121 41.7679 30.7053 41.7687 30.8985C41.7702 31.3039 41.7709 31.7092 41.7712 32.1146C41.7717 32.6338 41.7751 33.1529 41.7793 33.6721C41.782 34.0713 41.7827 34.4705 41.7828 34.8697C41.7832 35.0611 41.7843 35.2525 41.7862 35.4439C41.7887 35.7118 41.7882 35.9796 41.7871 36.2476C41.7885 36.3265 41.7898 36.4054 41.7912 36.4867C41.7866 36.8694 41.759 37.1203 41.5172 37.426C41.1131 37.8039 40.7212 37.7593 40.1964 37.7619C40.1142 37.7627 40.032 37.7634 39.9473 37.7642C39.6752 37.7665 39.403 37.768 39.1308 37.7693C38.9913 37.7701 38.9913 37.7701 38.8491 37.7708C38.3571 37.7732 37.8652 37.775 37.3732 37.7763C36.8651 37.7779 36.3571 37.782 35.849 37.7866C35.4582 37.7897 35.0675 37.7908 34.6767 37.7913C34.4894 37.7919 34.3021 37.7933 34.1148 37.7955C33.8526 37.7984 33.5905 37.7984 33.3282 37.7977C33.251 37.7992 33.1739 37.8007 33.0943 37.8022C32.7117 37.7982 32.4707 37.7683 32.1677 37.5236C31.7905 37.1315 31.8337 36.8125 31.8321 36.2921C31.8315 36.208 31.8309 36.1239 31.8303 36.0372C31.8285 35.7582 31.8274 35.4791 31.8265 35.2C31.8261 35.1048 31.8258 35.0097 31.8254 34.9116C31.8235 34.4079 31.8222 33.9042 31.8213 33.4004C31.8203 32.8797 31.8171 32.359 31.8135 31.8383C31.8111 31.4383 31.8104 31.0383 31.81 30.6383C31.8096 30.4463 31.8085 30.2544 31.8068 30.0624C31.8046 29.7938 31.8047 29.5252 31.8053 29.2566C31.8041 29.1773 31.803 29.0979 31.8018 29.0161C31.805 28.6429 31.8187 28.4563 32.0226 28.1335C32.3848 27.7906 32.7346 27.8462 33.209 27.8456Z" fill="#74AB5A"/>
<path d="M14.1765 7.39746C14.5681 7.50831 14.791 7.8487 14.9869 8.18754C15.0586 8.34024 15.0586 8.34024 15.1317 8.49603C15.1582 8.55169 15.1847 8.60735 15.212 8.66469C15.2959 8.84149 15.3785 9.01889 15.461 9.19636C15.5431 9.37074 15.6256 9.54499 15.7081 9.71922C15.7622 9.83388 15.8161 9.94867 15.8697 10.0636C16.0846 10.5225 16.3175 10.9704 16.559 11.4158C16.672 11.7009 16.6828 11.9065 16.6564 12.2107C16.4492 12.6347 16.4492 12.6347 16.1988 12.7598C15.548 12.8238 15.548 12.8238 15.1979 12.5482C15.0091 12.3022 15.0091 12.3022 14.9176 12.0277C14.9163 12.1473 14.9149 12.2669 14.9135 12.3901C14.9082 12.8344 14.9012 13.2787 14.8936 13.723C14.8905 13.9152 14.888 14.1073 14.8859 14.2995C14.8828 14.576 14.878 14.8525 14.8729 15.1289C14.8723 15.2146 14.8717 15.3004 14.8711 15.3887C14.8611 15.8341 14.8481 16.155 14.5515 16.5121C14.1924 16.7515 13.8893 16.7194 13.4729 16.7159C13.3907 16.7159 13.3086 16.7159 13.2239 16.716C12.9521 16.7158 12.6802 16.7144 12.4084 16.713C12.22 16.7126 12.0316 16.7124 11.8432 16.7122C11.3472 16.7115 10.8511 16.7097 10.3551 16.7077C9.76004 16.7055 9.16499 16.7046 8.56994 16.7036C7.66573 16.7018 6.76154 16.6983 5.85732 16.6951C5.88752 18.0541 5.91772 19.4132 5.94884 20.8134C6.19045 20.9342 6.43205 21.055 6.68098 21.1795C7.20978 21.5681 7.59088 22.1078 7.7792 22.7353C7.8904 23.6493 7.81561 24.3879 7.26548 25.1312C6.81886 25.6719 6.35642 26.0229 5.67429 26.213C4.90241 26.2811 4.1245 26.3322 3.47786 25.8469C3.423 25.8102 3.36815 25.7735 3.31163 25.7357C2.74659 25.3147 2.32383 24.6205 2.19661 23.925C2.11588 23.127 2.28505 22.407 2.75144 21.7515C3.10407 21.3273 3.52881 21.0456 4.02697 20.8134C4.08737 20.8134 4.14777 20.8134 4.21 20.8134C4.20899 20.7479 4.20797 20.6824 4.20692 20.615C4.19774 19.9969 4.19078 19.3789 4.18629 18.7609C4.18391 18.4431 4.18068 18.1254 4.17548 17.8077C4.16955 17.4422 4.16734 17.0767 4.16532 16.7112C4.16295 16.5974 4.16059 16.4837 4.15816 16.3665C4.15812 16.2603 4.15809 16.154 4.15805 16.0446C4.15704 15.9513 4.15602 15.858 4.15498 15.7619C4.23409 15.3931 4.36173 15.2663 4.66759 15.0478C4.94638 14.985 5.21609 14.9898 5.50084 14.9958C5.58392 14.9958 5.667 14.9957 5.7526 14.9956C6.02649 14.9959 6.30023 14.9995 6.57409 15.0031C6.76426 15.0039 6.95443 15.0046 7.1446 15.0051C7.64458 15.0068 8.1445 15.0113 8.64446 15.0164C9.15485 15.021 9.66524 15.0231 10.1756 15.0254C11.1767 15.0303 12.1777 15.0384 13.1787 15.0478C13.1485 14.0511 13.1183 13.0545 13.0872 12.0277C12.9664 12.2089 12.8456 12.3901 12.7212 12.5768C12.5032 12.7947 12.4368 12.7914 12.1377 12.7999C11.821 12.7912 11.7383 12.7784 11.4799 12.5768C11.2816 12.1629 11.2736 11.7881 11.421 11.3584C11.5255 11.1239 11.6384 10.8957 11.7559 10.6674C11.7977 10.5838 11.8395 10.5002 11.8826 10.414C11.9708 10.2382 12.0598 10.0628 12.1494 9.88772C12.2864 9.61972 12.4208 9.35053 12.5549 9.08107C12.6412 8.91005 12.7276 8.73911 12.8141 8.56825C12.8543 8.48788 12.8944 8.40752 12.9358 8.32472C12.9742 8.25015 13.0127 8.17558 13.0523 8.09875C13.0856 8.03328 13.1189 7.96782 13.1533 7.90037C13.4252 7.49591 13.6973 7.42032 14.1765 7.39746Z" fill="#74AB5A"/>
<path d="M11.5312 32.8022C12.8903 32.8022 14.2493 32.8022 15.6496 32.8022C15.6496 36.6076 15.6496 40.4129 15.6496 44.3335C14.2905 44.3335 12.9315 44.3335 11.5312 44.3335C11.5312 40.5282 11.5312 36.7229 11.5312 32.8022Z" fill="white"/>
<path d="M30.3839 13.4919C31.214 14.092 31.8358 14.9437 32.0312 15.9629C32.1521 17.1071 31.8946 18.1444 31.1926 19.0613C30.5664 19.7927 29.7062 20.3354 28.7366 20.4472C27.6455 20.527 26.7456 20.3863 25.8849 19.6804C25.8293 19.6315 25.7737 19.5825 25.7165 19.5321C25.66 19.4841 25.6035 19.436 25.5453 19.3866C24.9022 18.7989 24.4563 17.9272 24.4013 17.0518C24.3694 15.8797 24.577 14.9655 25.3501 14.0439C26.7491 12.6257 28.7074 12.4704 30.3839 13.4919Z" fill="#74AB5A"/>
<path d="M12.4464 20.9051C12.6809 21.0659 12.6809 21.0659 12.9039 21.2826C13.0211 21.3946 13.0211 21.3946 13.1406 21.5089C13.2135 21.5814 13.2864 21.654 13.3615 21.7287C13.4212 21.7871 13.4809 21.8455 13.5424 21.9057C13.6666 22.0283 13.7889 22.1528 13.9106 22.2778C14.3038 22.1268 14.5517 21.837 14.8373 21.54C15.4395 20.9182 15.4395 20.9182 15.8154 20.8765C16.1739 20.9116 16.3096 21.0234 16.5647 21.2711C16.7027 21.5473 16.702 21.6942 16.6562 22.0033C16.4689 22.2722 16.242 22.4993 16.0156 22.7354C15.8462 22.9339 15.6783 23.1334 15.5104 23.3331C15.3749 23.4676 15.3749 23.4676 15.1919 23.4676C15.582 23.9259 15.9858 24.3607 16.4181 24.7796C16.6315 25.0013 16.6551 25.1051 16.6905 25.418C16.6562 25.7555 16.6562 25.7555 16.4731 26.0243C16.1918 26.2178 16.0036 26.2919 15.6595 26.2692C15.2676 26.1553 15.012 25.8584 14.7343 25.5725C14.6721 25.5114 14.61 25.4503 14.5459 25.3873C14.3935 25.237 14.2429 25.0853 14.0937 24.9318C13.813 25.0563 13.629 25.1954 13.4187 25.418C13.3352 25.5026 13.3352 25.5026 13.25 25.5889C13.1498 25.6913 13.0504 25.7946 12.9526 25.8992C12.6873 26.1571 12.4749 26.2485 12.1146 26.2703C11.8106 26.2508 11.7284 26.2241 11.4797 26.0301C11.3138 25.6839 11.2594 25.3957 11.3481 25.0234C11.5422 24.741 11.7814 24.5206 12.0345 24.2912C12.1327 24.198 12.1327 24.198 12.2329 24.1028C12.3941 23.9503 12.5566 23.7997 12.7209 23.6506C12.4186 23.2914 12.1146 22.9423 11.7771 22.6153C11.4641 22.3118 11.3594 22.1928 11.3081 21.7459C11.3125 21.4033 11.3442 21.3671 11.5884 21.0881C11.9301 20.8856 12.0587 20.8572 12.4464 20.9051Z" fill="#74AB5A"/>
<path d="M37.6138 29.5076C38.4292 29.5076 39.2446 29.5076 40.0848 29.5076C40.0848 30.323 40.0848 31.1384 40.0848 31.9785C39.2693 31.9785 38.4539 31.9785 37.6138 31.9785C37.6138 31.1631 37.6138 30.3477 37.6138 29.5076Z" fill="white"/>
<path d="M33.4956 29.5076C34.311 29.5076 35.1265 29.5076 35.9666 29.5076C35.9666 30.323 35.9666 31.1384 35.9666 31.9785C35.1512 31.9785 34.3357 31.9785 33.4956 31.9785C33.4956 31.1631 33.4956 30.3477 33.4956 29.5076Z" fill="#74AB5A"/>
<path d="M39.6956 2.48682C40.0295 2.51249 40.1851 2.58504 40.4507 2.78425C40.6906 3.14419 40.6567 3.44924 40.6516 3.86638C40.6513 3.94521 40.6511 4.02404 40.6508 4.10527C40.6498 4.35704 40.6475 4.60879 40.6451 4.86056C40.6442 5.03126 40.6434 5.20196 40.6426 5.37267C40.6406 5.79112 40.6375 6.20955 40.6337 6.628C40.4393 6.49982 40.2459 6.37072 40.0539 6.239C39.8125 6.07534 39.8125 6.07534 39.5546 5.94202C39.1885 5.73163 38.9398 5.58852 38.8152 5.17185C38.788 4.85531 38.7923 4.55428 38.8091 4.23709C38.8094 4.13033 38.8097 4.02357 38.81 3.91356C38.8321 3.05509 38.8321 3.05509 39.1233 2.76208C39.1989 2.709 39.2745 2.65591 39.3525 2.60121C39.444 2.5097 39.444 2.5097 39.6956 2.48682Z" fill="white"/>
<path d="M37.6138 33.626C38.399 33.626 39.1842 33.626 39.9932 33.626C39.9932 34.4112 39.9932 35.1964 39.9932 36.0054C39.208 36.0054 38.4228 36.0054 37.6138 36.0054C37.6138 35.2202 37.6138 34.435 37.6138 33.626Z" fill="white"/>
<path d="M33.5872 33.626C34.3422 33.626 35.0972 33.626 35.8751 33.626C35.8751 34.4112 35.8751 35.1964 35.8751 36.0054C35.1201 36.0054 34.3651 36.0054 33.5872 36.0054C33.5872 35.2202 33.5872 34.435 33.5872 33.626Z" fill="white"/>
<path d="M4.11827 3.69971C4.11827 4.66614 4.11827 5.63256 4.11827 6.62828C3.15184 6.62828 2.18541 6.62828 1.1897 6.62828C1.54772 6.21058 1.90157 5.8112 2.2897 5.4246C2.33949 5.37473 2.38928 5.32485 2.44058 5.27346C2.54451 5.16946 2.64856 5.06558 2.75272 4.96181C2.9129 4.80212 3.07258 4.64194 3.23222 4.48172C3.33366 4.38034 3.43513 4.27899 3.53663 4.17767C3.58448 4.12964 3.63233 4.0816 3.68163 4.03211C4.01623 3.69971 4.01623 3.69971 4.11827 3.69971Z" fill="white"/>
<path d="M5.39962 22.3691C5.78266 22.5274 5.97065 22.7197 6.13177 23.1013C6.18149 23.5488 6.17946 23.7415 5.97161 24.1423C5.73468 24.4187 5.56173 24.5376 5.203 24.5995C4.81561 24.6111 4.56284 24.5998 4.25565 24.3482C3.90588 23.981 3.8996 23.7362 3.90245 23.2432C3.95544 22.8671 4.1183 22.7157 4.39293 22.4607C4.70883 22.3027 5.05356 22.3362 5.39962 22.3691Z" fill="white"/>
<path d="M4.94179 22.4609C4.88139 22.4609 4.82099 22.4609 4.75875 22.4609C4.75875 22.5213 4.75875 22.5817 4.75875 22.6439C4.7059 22.6552 4.65305 22.6666 4.5986 22.6782C4.39054 22.736 4.21648 22.8167 4.02661 22.9185C4.4842 22.3236 4.4842 22.3236 4.94179 22.4609Z" fill="#74AB5A"/>
</svg>
