<svg width="51" height="56" viewBox="0 0 51 56" fill="none" xmlns="http://www.w3.org/2000/svg">
<path d="M27.6719 22V25.75H16.5625V22H27.6719ZM19.1055 40V20.6992C19.1055 19.3945 19.3594 18.3125 19.8672 17.4531C20.3828 16.5937 21.0859 15.9492 21.9766 15.5195C22.8672 15.0898 23.8789 14.875 25.0117 14.875C25.7773 14.875 26.4766 14.9336 27.1094 15.0508C27.75 15.168 28.2266 15.2734 28.5391 15.3672L27.6484 19.1172C27.4531 19.0547 27.2109 18.9961 26.9219 18.9414C26.6406 18.8867 26.3516 18.8594 26.0547 18.8594C25.3203 18.8594 24.8086 19.0312 24.5195 19.375C24.2305 19.7109 24.0859 20.1836 24.0859 20.793V40H19.1055Z" fill="white"/>
</svg>
