<svg width="73" height="70" viewBox="0 0 73 70" fill="none" xmlns="http://www.w3.org/2000/svg">
<path fill-rule="evenodd" clip-rule="evenodd" d="M39.4501 60.3397H52.4688C53.5146 59.2999 54.6613 58.2185 55.8259 57.1192C58.2681 54.8078 60.8171 52.3954 63.4375 49.377C66.4322 45.9247 66.7531 44.7304 67.6622 41.3495C67.8345 40.7137 68.0246 40.0007 68.2742 39.1154L69.8309 33.6429L69.8488 33.5835C70.6806 31.1473 70.746 29.5371 70.4014 28.6101C70.2944 28.3249 70.1577 28.1348 69.9973 28.0338C69.8725 27.9506 69.7062 27.9209 69.5339 27.9387C69.1298 27.9803 68.6723 28.2358 68.2563 28.6933L63.6336 39.7036C63.592 39.8046 63.5326 39.8997 63.4672 39.9829C63.1939 40.476 62.8255 40.9573 62.3501 41.4149L54.1503 50.5594C53.7047 51.0585 52.9382 51.1001 52.445 50.6545C51.9459 50.2088 51.9043 49.4423 52.35 48.9492L60.5557 39.8046C60.5913 39.763 60.627 39.7214 60.6686 39.6858C61.5183 38.8777 61.7856 38.0042 61.6371 37.3684C61.5896 37.1724 61.5064 37.006 61.3875 36.8931C61.2746 36.7921 61.1261 36.7208 60.9419 36.703C60.2111 36.6257 59.1356 37.1664 57.8224 38.7173C57.7868 38.7588 57.7452 38.8004 57.7036 38.842L54.5247 41.6466L54.5069 41.6644C51.0665 44.9206 49.587 45.693 46.8894 47.1012C46.3249 47.3983 45.7069 47.7192 44.9404 48.1351C44.6374 48.3015 44.3403 48.5035 44.0492 48.7234C43.7402 48.961 43.4431 49.2047 43.1638 49.4423C41.7378 50.6426 40.9891 51.6171 40.5613 52.6925C40.1156 53.8096 39.9552 55.1703 39.7354 57.036C39.6462 57.7907 39.5809 58.5334 39.5274 59.2761C39.4858 59.6326 39.468 59.9892 39.4501 60.3397ZM37.5606 1.59242C46.8299 2.06777 54.4771 8.66919 56.533 17.4275H56.5271L53.877 20.5529L51.3279 17.4275H50.9833L48.3154 20.5708L45.7545 17.4275H45.1187L42.4686 20.5529L39.9195 17.4275H39.5809C39.5809 17.4453 39.5809 17.4572 39.5809 17.4751C39.5809 18.2118 38.957 18.8476 38.0479 19.1507V33.8271C38.0479 35.5443 37.3467 37.1011 36.2178 38.23C35.0888 39.359 33.532 40.0601 31.8148 40.0601C30.1036 40.0601 28.5468 39.359 27.4178 38.23V38.2241C26.2889 37.0951 25.5877 35.5383 25.5877 33.8271V33.2507H28.2556V33.8271C28.2556 34.8075 28.6538 35.6988 29.3014 36.3464L29.3074 36.3524C29.9491 36.9941 30.8404 37.3982 31.8267 37.3982C32.8071 37.3982 33.6984 36.9941 34.3401 36.3524C34.9878 35.7047 35.3918 34.8134 35.3918 33.833V19.0378C34.655 18.705 34.1738 18.1346 34.1738 17.4869C34.1738 17.4691 34.1738 17.4572 34.1738 17.4394H33.1042L30.5552 20.5648L27.9051 17.4394H27.2693L24.7084 20.5827L22.0404 17.4394H21.6899L19.1408 20.5648L16.4907 17.4394H16.4729C18.4991 8.73455 26.0453 2.16878 35.2195 1.60431L36.4436 0L37.5606 1.59242ZM33.5439 60.3397H20.5193C19.4736 59.2999 18.3268 58.2185 17.1622 57.1192C14.7201 54.8078 12.171 52.3954 9.55063 49.377C6.55592 45.9247 6.23506 44.7304 5.32596 41.3495C5.15364 40.7137 4.9635 40.0007 4.71394 39.1154L3.15717 33.6429L3.13935 33.5835C2.30748 31.1473 2.24212 29.5371 2.58675 28.6101C2.69371 28.3249 2.83037 28.1348 2.9908 28.0338C3.11558 27.9506 3.28195 27.9209 3.45427 27.9387C3.85831 27.9803 4.31584 28.2358 4.73177 28.6933L9.35455 39.7036C9.39614 39.8046 9.45556 39.8997 9.52092 39.9829C9.79425 40.476 10.1626 40.9573 10.638 41.4149L18.8378 50.5594C19.2834 51.0585 20.0499 51.1001 20.5431 50.6545C21.0422 50.2088 21.0838 49.4423 20.6382 48.9492L12.4443 39.7927C12.4087 39.7511 12.373 39.7095 12.3314 39.6739C11.4817 38.8658 11.2144 37.9923 11.3629 37.3566C11.4104 37.1605 11.4936 36.9941 11.6125 36.8812C11.7254 36.7802 11.8739 36.7089 12.0581 36.6911C12.7889 36.6138 13.8704 37.1545 15.1776 38.7054C15.1776 38.7054 15.2905 38.8183 15.3024 38.8301L18.4813 41.6347L18.4991 41.6525C21.9394 44.9087 23.419 45.6811 26.1166 47.0893C26.6811 47.3864 27.299 47.7073 28.0655 48.1232C28.3685 48.2896 28.6656 48.4916 28.9568 48.7115C29.2658 48.9492 29.5629 49.1928 29.8421 49.4304C31.2682 50.6307 32.0169 51.6052 32.4447 52.6807C32.8903 53.7977 33.0507 55.1584 33.2706 57.0242C33.3597 57.7788 33.4251 58.5215 33.4786 59.2642C33.5083 59.6326 33.5261 59.9892 33.5439 60.3397ZM17.489 60.7557C17.3048 60.9696 17.1919 61.2488 17.1919 61.5519V68.7653C17.1919 69.4367 17.7385 69.9774 18.404 69.9774H34.7917C35.4631 69.9774 36.0039 69.4308 36.0039 68.7653V61.4806C36.0039 60.7081 35.9563 59.8763 35.9028 59.1038C35.8494 58.3136 35.7781 57.5292 35.6889 56.7508C35.4513 54.7128 35.273 53.2214 34.7026 51.7894C34.1143 50.3217 33.1696 49.0561 31.4167 47.5766C31.0959 47.3033 30.7691 47.0299 30.4244 46.7744C30.062 46.5011 29.6698 46.2397 29.2301 45.996C28.5171 45.6098 27.8516 45.2593 27.2455 44.9384C24.7499 43.6312 23.3833 42.9182 20.1688 39.8759C20.145 39.8521 20.1153 39.8284 20.0915 39.8106L16.9899 37.0714C15.0944 34.855 13.2405 34.1182 11.8204 34.2727H11.8145C11.1193 34.344 10.5251 34.6174 10.0497 35.0333L6.91838 27.5703H6.91244C6.8649 27.4633 6.80548 27.3623 6.72824 27.2673C5.86073 26.2274 4.76148 25.6214 3.70977 25.5144C2.9908 25.4431 2.2956 25.5976 1.68953 25.9898C1.11317 26.3641 0.637817 26.9464 0.340724 27.7486C-0.182161 29.1449 -0.170278 31.3137 0.851725 34.3143L2.39661 39.7511C2.6224 40.5355 2.81849 41.2901 3.00268 41.9556C4.0128 45.7287 4.36931 47.0656 7.73836 50.9397C10.4063 54.0116 13.0147 56.4835 15.5222 58.8483C16.1699 59.496 16.8235 60.1139 17.489 60.7557ZM19.8063 62.764C19.9667 62.7997 20.1331 62.7997 20.2995 62.764H33.5736V67.5532H19.6162V62.764H19.8063ZM55.5051 60.7557C55.6893 60.9696 55.8022 61.2488 55.8022 61.5519V68.7653C55.8022 69.4367 55.2615 69.9774 54.59 69.9774H38.2083C37.5369 69.9774 36.9961 69.4308 36.9961 68.7653V61.4806C36.9961 61.439 36.9961 61.3914 37.0021 61.3498C37.0199 60.5715 37.0496 59.8168 37.0972 59.1038C37.1506 58.3136 37.2219 57.5292 37.3111 56.7508C37.5487 54.7128 37.727 53.2214 38.2974 51.7894C38.8857 50.3217 39.8304 49.0561 41.5833 47.5766C41.9041 47.3033 42.2309 47.0299 42.5756 46.7744C42.938 46.5011 43.3302 46.2397 43.7699 45.996C44.4829 45.6098 45.1484 45.2593 45.7545 44.9384C48.2501 43.6312 49.6167 42.9182 52.8312 39.8759C52.855 39.8521 52.8847 39.8284 52.9085 39.8106L56.0101 37.0714C57.9056 34.855 59.7595 34.1182 61.1796 34.2727H61.1855C61.8807 34.344 62.4749 34.6174 62.9503 35.0333L66.0816 27.5703H66.0876C66.1351 27.4633 66.1945 27.3623 66.2718 27.2673C67.1393 26.2274 68.2385 25.6214 69.2902 25.5144C70.0092 25.4431 70.7044 25.5976 71.3105 25.9898C71.8868 26.3641 72.3622 26.9464 72.6593 27.7486C73.1822 29.1449 73.1703 31.3137 72.1483 34.3143L70.6034 39.7511C70.3776 40.5355 70.1815 41.2901 69.9973 41.9556C68.9872 45.7287 68.6307 47.0656 65.2616 50.9397C62.5937 54.0116 59.9853 56.4835 57.4778 58.8483C56.8242 59.496 56.1706 60.1139 55.5051 60.7557ZM53.1878 62.764C53.0273 62.7997 52.861 62.7997 52.6946 62.764H39.4204V67.5532H53.3779V62.764H53.1878Z" fill="white"/>
</svg>
