<svg width="60" height="57" viewBox="0 0 60 57" fill="none" xmlns="http://www.w3.org/2000/svg">
<path d="M15.355 2.41374V4.82751H20.2116H25.0683V2.41374V-4.00543e-05H20.2116H15.355V2.41374Z" fill="white"/>
<path d="M11.1615 4.08874C11.0103 4.17017 10.83 4.33303 10.7311 4.48425L10.5566 4.74017L10.5392 8.32885L10.5217 11.9233H20.2117H29.8959V8.38701C29.8959 5.07752 29.8843 4.83905 29.7854 4.62385C29.6575 4.34466 29.4713 4.16436 29.1863 4.04221C29.0118 3.97242 28.7152 3.95497 27.6857 3.95497H26.4061V4.79252C26.4061 5.56027 26.3945 5.6417 26.2724 5.82201C26.1909 5.94415 26.0571 6.04885 25.9176 6.09538C25.7373 6.15354 24.5042 6.16517 20.1303 6.15354C15.0585 6.13609 14.5524 6.13027 14.3896 6.03721C14.1046 5.88017 14.0522 5.69987 14.029 4.78089L14.0057 3.95497H12.7145C11.4698 3.95497 11.4058 3.96078 11.1615 4.08874Z" fill="white"/>
<path d="M0 32.1352V57H20.2117H40.4235V53.3357V49.6714H39.9117C39.4871 49.6714 38.0388 49.5842 37.7596 49.5376C37.6956 49.526 37.684 49.9215 37.684 51.5617C37.684 53.7952 37.6666 53.9173 37.3467 54.1093C37.1896 54.2023 36.0729 54.2082 20.1885 54.2082H3.19898L3.01286 54.0395L2.82092 53.8708L2.80347 32.2224C2.79184 12.9471 2.80347 10.5624 2.87908 10.4112C3.05939 10.0564 3.02449 10.0622 6.25255 10.0622H9.1898V8.6663V7.27038H4.5949H0V32.1352Z" fill="white"/>
<path d="M31.2336 8.66623V10.0622H34.1942H37.1489L37.3466 10.1959C37.6781 10.4169 37.684 10.4984 37.684 12.9703C37.684 14.2034 37.7014 15.2038 37.7305 15.198C37.9631 15.1514 40.0686 15.0584 40.2199 15.0875L40.4234 15.1282V11.1963V7.27031H35.8285H31.2336V8.66623Z" fill="white"/>
<path d="M4.12964 32.1351V52.8704H20.2409H36.3521L36.3405 51.0847L36.323 49.305L35.596 49.1188C34.7003 48.892 34.235 48.7408 33.4381 48.4151C32.1236 47.8858 30.4485 46.9552 29.6459 46.3154L29.4772 46.1816H23.2188C16.2043 46.1816 16.6696 46.2107 16.437 45.7686C16.3323 45.5825 16.3323 45.5302 16.3963 45.3149C16.4428 45.1463 16.5242 45.0358 16.6522 44.9602C16.8325 44.8496 16.9895 44.8438 22.358 44.8438H27.8777L27.3601 44.3029C25.8362 42.7267 24.5217 40.6735 23.7249 38.6087L23.5271 38.0969H20.2525C16.6231 38.0969 16.6871 38.1027 16.4544 37.7246C16.3207 37.5094 16.3149 37.3349 16.4312 37.1081C16.6173 36.7417 16.4719 36.7591 19.9384 36.7591H23.1025L23.0792 36.5963C23.0618 36.509 22.992 36.1775 22.928 35.8576C22.707 34.7932 22.6198 34.0662 22.5849 32.9204C22.5558 31.9083 22.6256 30.3728 22.7186 30.0529C22.7477 29.9598 22.579 29.954 19.793 29.954C16.9663 29.954 16.8325 29.9482 16.6522 29.8377C16.5242 29.7621 16.4428 29.6516 16.3963 29.4829C16.3323 29.2677 16.3323 29.2153 16.437 29.0292C16.658 28.6105 16.594 28.6163 19.9617 28.6163H22.9687L23.0269 28.3952C23.056 28.2789 23.1258 28.023 23.1723 27.8311C23.6492 25.964 24.766 23.6666 25.9874 22.0554L26.127 21.8693H21.4972C16.3614 21.8693 16.6231 21.8868 16.4312 21.4854C16.2625 21.1306 16.3963 20.7991 16.7918 20.5955C16.8849 20.549 18.3738 20.5316 22.0847 20.5316H27.2554L27.5985 20.1768C27.9882 19.7813 28.8025 19.0775 29.3725 18.6354C31.2337 17.2104 33.2985 16.2159 35.6251 15.6226L36.323 15.4423V13.4356V11.429L33.7813 11.4116L31.2337 11.3999V12.0688C31.2337 12.5574 31.2105 12.79 31.1465 12.9122C30.9546 13.2844 31.7514 13.2612 20.2292 13.2612C9.81219 13.2612 9.7424 13.2612 9.55046 13.1448C9.26546 12.9703 9.18985 12.7261 9.18985 12.0106V11.3999H6.65974H4.12964V32.1351ZM13.6452 18.4377C13.9011 18.6238 13.9709 18.9495 13.8196 19.2403C13.7731 19.3276 13.017 20.1128 12.1387 20.9911C10.5741 22.5498 10.5392 22.5789 10.2717 22.608L9.99832 22.6429L9.16076 21.8053C8.25342 20.9096 8.17199 20.77 8.32321 20.4094C8.45699 20.0837 8.89903 19.915 9.20729 20.0721C9.27709 20.107 9.53883 20.3396 9.78893 20.5781L10.2368 21.026L11.5629 19.7057C12.29 18.9786 12.9472 18.3621 13.0228 18.333C13.1915 18.2748 13.4823 18.3214 13.6452 18.4377ZM13.7091 26.6096C13.9011 26.8016 13.9127 26.8365 13.8836 27.0866C13.8545 27.3483 13.8196 27.389 12.1736 29.035C10.0565 31.1464 10.2717 31.094 9.0328 29.8144C8.25342 29.0118 8.1778 28.8664 8.33485 28.4825C8.47444 28.1568 8.89321 27.9997 9.20729 28.1568C9.27709 28.1917 9.53883 28.4243 9.78893 28.6628L10.2368 29.1107L11.5338 27.8252C12.2434 27.1157 12.8774 26.5049 12.9414 26.47C13.0054 26.441 13.1566 26.4061 13.2845 26.4061C13.459 26.4061 13.5463 26.4468 13.7091 26.6096ZM13.7033 34.6885C13.9651 34.9502 13.9767 35.2469 13.7324 35.5726C13.6393 35.6947 12.889 36.4683 12.0631 37.2884C11.0104 38.3295 10.5102 38.789 10.3996 38.8065C10.0507 38.8705 9.92852 38.789 9.12005 37.9864C8.44536 37.3175 8.3174 37.1605 8.2825 36.9685C8.23015 36.6719 8.37556 36.3927 8.64893 36.2647C8.97464 36.1077 9.16076 36.1891 9.71913 36.7359L10.2135 37.2244L11.5222 35.9274C12.2376 35.212 12.8774 34.5955 12.9414 34.5606C13.0054 34.5257 13.1566 34.4908 13.2845 34.4908C13.459 34.4908 13.5463 34.5315 13.7033 34.6885ZM13.6626 42.7325C13.8953 42.9303 13.9651 43.2734 13.8255 43.541C13.6975 43.7853 10.6323 46.8039 10.4404 46.8795C10.1205 47.0017 9.9576 46.9028 9.1724 46.1292C8.41046 45.3847 8.25923 45.187 8.25923 44.9485C8.25923 44.7333 8.48025 44.4367 8.70709 44.3436C9.00954 44.2157 9.20729 44.3145 9.75985 44.8555L10.2193 45.3033L11.4059 44.111C12.0573 43.4479 12.6971 42.8372 12.8192 42.7441C13.1217 42.5231 13.4009 42.5173 13.6626 42.7325Z" fill="white"/>
<path d="M56.9885 13.3601L56.1974 14.1627L56.1626 14.9596C56.1044 16.117 56.116 16.1287 57.2909 16.0589L58.0587 16.0123L58.8555 15.2155L59.6465 14.4245L58.873 14.4361L58.0936 14.4535L57.9191 14.25L57.7446 14.0464L57.7795 13.3019C57.7969 12.8948 57.8028 12.5632 57.7969 12.5632C57.7911 12.5632 57.4247 12.9239 56.9885 13.3601Z" fill="white"/>
<path d="M38.7368 16.466C36.3172 16.6115 33.7697 17.4141 31.6351 18.7053C27.4938 21.2005 24.7892 25.2836 24.0389 30.1693C23.9168 30.9778 23.8993 33.5719 24.0099 34.3454C24.3821 36.8988 25.1964 39.1206 26.4702 41.0633C29.2562 45.315 33.7173 47.9266 38.8124 48.2872C43.3782 48.6071 47.8568 46.9029 51.143 43.5992C53.7371 40.9935 55.3541 37.5851 55.7205 33.9325C55.8135 33.031 55.767 30.8498 55.6332 30.0123C55.2319 27.4066 54.1733 24.8648 52.6495 22.8466C52.2423 22.3056 51.6665 21.6193 51.5967 21.5902C51.5793 21.5844 50.8871 22.2533 50.067 23.0734L48.5722 24.574L48.863 24.923C49.3342 25.4872 49.9914 26.505 50.3287 27.1914C52.3994 31.3675 51.777 36.4044 48.7642 39.9408C45.4663 43.8086 40.0746 45.1173 35.3866 43.1863C32.048 41.8136 29.4481 38.8415 28.5408 35.3633C28.407 34.8515 28.3488 34.5548 28.2092 33.6475C28.1162 33.0368 28.1802 31.1755 28.3198 30.3962C28.6513 28.5407 29.3551 26.8947 30.4718 25.3883C30.9953 24.6845 32.1236 23.5445 32.8216 23.0269C35.6774 20.8923 39.2545 20.171 42.7035 21.0319C44.2798 21.4216 45.6466 22.0963 47.0483 23.1665L47.6474 23.6259L49.1538 22.1253L50.6545 20.6247L50.4102 20.4153C48.4733 18.7111 46.1003 17.4781 43.6051 16.8732C42.6454 16.6405 41.8602 16.5242 40.8074 16.4602C39.8419 16.4021 39.7837 16.4021 38.7368 16.466Z" fill="white"/>
<path d="M53.2019 18.0713L51.5908 19.6883L52.0736 20.171L52.5505 20.6479L54.1675 19.031C55.0515 18.1469 55.7786 17.4024 55.7786 17.385C55.7786 17.3617 55.7146 17.3617 55.639 17.3734C55.4238 17.4141 55.0864 17.2803 54.9759 17.1116C54.9236 17.0302 54.8654 16.8499 54.848 16.7103L54.8189 16.4602L53.2019 18.0713Z" fill="white"/>
<path d="M38.888 22.0497C37.6898 22.1544 36.3114 22.5558 35.1714 23.1258C32.5075 24.4577 30.5009 26.9762 29.7854 29.8669C29.5586 30.8091 29.5179 31.1814 29.5237 32.4261C29.5295 33.5021 29.547 33.7347 29.6807 34.3804C30.0355 36.0787 30.7277 37.5677 31.763 38.8531C33.4207 40.9179 35.6774 42.2091 38.3587 42.6395C39.1207 42.7617 40.8423 42.7326 41.6682 42.5814C43.5876 42.2382 45.5826 41.2436 46.8796 39.9873C48.7816 38.1493 49.8111 36.1543 50.1426 33.6359C50.2298 32.9612 50.1833 31.2163 50.0554 30.5358C49.7413 28.8083 48.927 27.0692 47.7812 25.6791L47.6358 25.5046L46.1526 26.9878C45.3383 27.8021 44.6694 28.5059 44.6694 28.5466C44.6694 28.5931 44.745 28.7269 44.8381 28.8432C45.286 29.4074 45.7106 30.4194 45.856 31.2686C46.2166 33.316 45.5884 35.2819 44.1052 36.7418C42.0288 38.7891 38.7949 39.0625 36.387 37.399C33.6242 35.4913 32.9146 31.7921 34.7759 28.9654C35.3051 28.1569 36.3753 27.2379 37.2594 26.8366C39.2602 25.9292 41.4646 26.1037 43.291 27.3252L43.6865 27.5927L45.1929 26.0863L46.6935 24.5857L46.3969 24.3297C45.3209 23.4166 43.5062 22.5383 42.0928 22.2533C40.9586 22.0207 39.9291 21.9567 38.888 22.0497Z" fill="white"/>
<path d="M39.2427 27.6275C37.8468 27.7962 36.5963 28.593 35.8111 29.8145C35.0084 31.065 34.8514 32.6761 35.3865 34.1069C35.9216 35.5319 37.3117 36.7185 38.8239 37.0558C39.3707 37.178 40.534 37.1489 41.0865 36.9976C42.7442 36.5556 44.0994 35.1655 44.4949 33.502C44.6519 32.8332 44.6519 31.9025 44.4949 31.2337C44.3669 30.7218 44.0179 29.925 43.7853 29.6458L43.6515 29.4829L41.9415 31.1988C40.9993 32.141 40.1559 32.9437 40.0686 32.9844C39.5452 33.1996 39.0101 32.6005 39.266 32.0887C39.3009 32.0189 40.0919 31.1929 41.0283 30.2565L42.7209 28.5523L42.5755 28.436C42.3079 28.2266 41.5053 27.8602 41.0632 27.7497C40.5281 27.6159 39.7662 27.5694 39.2427 27.6275Z" fill="white"/>
</svg>
