<svg width="60" height="57" viewBox="0 0 60 57" fill="none" xmlns="http://www.w3.org/2000/svg">
<path d="M10.7131 11.2161C11.4384 11.6568 11.8338 12.1598 12.1201 12.9524C12.1933 13.2998 12.2258 13.646 12.2545 13.9996C12.2639 14.0983 12.2732 14.1971 12.2828 14.2989C12.3076 14.5631 12.331 14.8273 12.3538 15.0917C12.3778 15.3655 12.4036 15.6391 12.4293 15.9127C12.46 16.2399 12.4907 16.5671 12.5206 16.8944C12.6012 17.7744 12.6931 18.6527 12.7931 19.5306C12.8062 19.6464 12.8192 19.7622 12.8322 19.878C12.878 20.2828 12.9243 20.6873 12.9775 21.0911C13.0789 21.9508 13.0481 22.7241 12.6261 23.4928C12.1408 24.0994 11.6988 24.4418 10.9512 24.6718C10.0663 24.7581 10.0663 24.7581 9.7722 24.6111C9.64366 25.601 9.58044 26.5732 9.58497 27.5713C9.58509 27.6377 9.58521 27.7042 9.58534 27.7727C9.58905 28.9188 9.66358 30.0373 9.85316 31.1691C9.864 31.2379 9.87484 31.3068 9.88601 31.3777C10.2874 33.9995 10.2874 33.9995 11.4724 36.2697C11.5004 36.1891 11.5004 36.1891 11.529 36.1068C11.742 35.5304 11.965 35.1761 12.5098 34.8681C12.8447 34.7147 13.133 34.6511 13.4965 34.7314C13.8876 34.8927 14.2313 35.1324 14.4182 35.5242C14.7017 36.5414 14.3294 37.7624 14.1442 38.7694C14.1129 38.9437 14.0817 39.118 14.0506 39.2922C13.9749 39.7153 13.898 40.1381 13.8203 40.5608C14.4074 40.6371 14.9945 40.7133 15.5815 40.7895C15.7803 40.8154 15.9791 40.8412 16.1778 40.867C17.2839 41.0108 18.3899 41.1539 19.497 41.2894C19.9573 41.3462 20.416 41.4102 20.8742 41.4817C21.6418 41.6 22.4115 41.7006 23.1817 41.8005C24.4777 41.9687 25.7716 42.1495 27.0649 42.3374C27.6625 42.4241 28.2598 42.5089 28.8592 42.5823C29.6339 42.6772 30.4062 42.7876 31.179 42.8971C32.5133 43.0859 33.848 43.2713 35.1844 43.4451C36.214 43.579 37.2428 43.7171 38.2711 43.86C38.3337 43.8687 38.3962 43.8773 38.4607 43.8863C38.637 43.9107 38.8134 43.9353 38.9897 43.9599C39.0897 43.9739 39.1896 43.9878 39.2927 44.0022C39.5465 44.0392 39.7994 44.0799 40.0523 44.1231C40.0564 44.0461 40.0605 43.9691 40.0647 43.8897C40.1078 43.1212 40.1774 42.3583 40.2639 41.5935C40.301 41.2652 40.337 40.9367 40.373 40.6082C40.3803 40.5421 40.3875 40.476 40.395 40.4079C40.4614 39.7998 40.521 39.1912 40.5786 38.5822C40.6623 37.6994 40.7525 36.8175 40.8468 35.9357C41.0186 34.3269 41.1756 32.7165 41.332 31.1061C41.4372 30.0257 41.547 28.946 41.664 27.8668C41.758 26.9965 41.8445 26.1254 41.93 25.2542C42.0511 24.0221 42.174 22.7911 42.3286 21.5627C42.3895 21.0749 42.4318 20.5885 42.4619 20.0977C42.4875 19.7489 42.5291 19.4028 42.5732 19.0559C42.6222 18.6624 42.6602 18.2689 42.6934 17.8738C42.7027 17.77 42.7119 17.6663 42.7214 17.5594C42.7397 17.3527 42.7567 17.1459 42.7723 16.939C42.8356 16.2468 42.9651 15.7106 43.4635 15.2067C43.5167 15.1708 43.57 15.1349 43.6248 15.0979C43.7053 15.0416 43.7053 15.0416 43.7874 14.9841C44.2262 14.727 44.7431 14.7629 45.2339 14.8146C45.7305 15.0021 46.0567 15.3489 46.3067 15.8114C46.4715 16.402 46.3323 17.0616 46.2631 17.66C46.1612 18.5748 46.072 19.4901 45.9911 20.407C45.9855 20.4705 45.9798 20.534 45.9741 20.5994C45.945 20.9286 45.916 21.2578 45.8871 21.5871C45.7154 23.5443 45.5401 25.5008 45.3351 27.4549C45.2067 28.6801 45.0914 29.9052 44.9925 31.1332C44.913 32.1208 44.8196 33.1066 44.722 34.0926C44.6716 34.6038 44.6223 35.1151 44.5733 35.6264C44.5608 35.7569 44.5608 35.7569 44.548 35.89C44.5219 36.1616 44.4959 36.4333 44.4699 36.7049C44.3719 37.7266 44.2738 38.7483 44.1729 39.7698C44.0496 41.0182 43.9283 42.2664 43.8224 43.5164C43.8073 43.6947 43.7919 43.873 43.7765 44.0513C43.7339 44.547 43.6929 45.0426 43.659 45.539C43.5405 47.1733 43.5405 47.1733 42.8911 47.7614C42.1093 48.2879 41.4843 48.1964 40.5843 48.0587C40.5049 48.047 40.4256 48.0353 40.3438 48.0232C40.088 47.9853 39.8323 47.9467 39.5767 47.9081C39.4001 47.8819 39.2234 47.8556 39.0468 47.8295C38.6199 47.7661 38.1931 47.7022 37.7663 47.6381C37.3683 47.5784 36.9701 47.5196 36.572 47.4607C36.41 47.4367 36.248 47.4127 36.086 47.3884C35.6536 47.3239 35.2211 47.2613 34.7883 47.1999C33.7252 47.0491 32.6634 46.8898 31.6018 46.7291C31.4117 46.7004 31.2215 46.6717 31.0313 46.643C30.1894 46.5157 29.3476 46.3879 28.5063 46.2569C26.9909 46.0211 25.4743 45.7992 23.955 45.5898C23.0761 45.4685 22.1988 45.3407 21.3223 45.2029C20.4966 45.0735 19.6686 44.9614 18.84 44.8518C20.9883 46.2548 23.2886 47.2381 25.8028 47.7664C25.9041 47.7888 26.0053 47.8111 26.1096 47.8341C27.2958 48.0863 28.4621 48.1927 29.6731 48.2104C30.251 48.2251 30.6085 48.309 31.0553 48.6975C31.2842 48.9939 31.2795 49.2957 31.2612 49.659C31.2127 49.9637 31.1154 50.1342 30.9035 50.3573C30.4546 50.657 30.0276 50.6375 29.5069 50.6305C29.4178 50.6297 29.3287 50.6289 29.2369 50.628C24.8765 50.5482 20.5339 49.0661 16.9779 46.552C16.914 46.509 16.8502 46.466 16.7843 46.4217C16.4418 46.1827 16.2167 45.9929 16.0873 45.5805C16.0256 45.0911 16.1029 44.8057 16.3302 44.366C16.2368 44.3613 16.2368 44.3613 16.1415 44.3565C15.3318 44.3078 14.5351 44.2029 13.733 44.0847C13.5107 44.0521 13.2883 44.0207 13.0659 43.9893C12.9222 43.9684 12.7784 43.9475 12.6347 43.9264C12.5694 43.9173 12.5041 43.9082 12.4368 43.8988C11.7696 43.7983 11.1745 43.6885 10.7561 43.131C10.3078 42.4517 10.5072 41.6133 10.6426 40.8542C10.657 40.7706 10.6714 40.6869 10.6863 40.6007C11.01 38.749 11.01 38.749 11.2295 37.889C11.1644 37.9291 11.0993 37.9691 11.0322 38.0104C10.6867 38.1559 10.3848 38.2101 10.0151 38.1319C9.59684 37.9133 9.40423 37.6543 9.21052 37.2362C9.18346 37.1799 9.15639 37.1236 9.12851 37.0656C8.83709 36.444 8.60201 35.8019 8.37745 35.1538C8.32127 34.9927 8.26271 34.8324 8.20386 34.6723C7.68018 33.2024 7.44877 31.6598 7.26235 30.1165C7.24146 29.969 7.24146 29.969 7.22015 29.8185C7.1724 29.435 7.16542 29.0539 7.1621 28.6677C7.16131 28.5919 7.16053 28.516 7.15973 28.4378C7.15772 28.1928 7.1567 27.9478 7.15609 27.7028C7.15573 27.5777 7.15573 27.5777 7.15536 27.4501C7.15455 26.198 7.21463 24.9955 7.46373 23.7646C7.50205 23.5744 7.53525 23.3841 7.56659 23.1926C7.6611 22.6653 7.74353 22.2988 8.15294 21.9393C8.52399 21.7207 8.86596 21.7097 9.28642 21.7774C9.57187 21.8919 9.84127 22.0217 10.1134 22.1648C10.3392 22.2932 10.3392 22.2932 10.5818 22.1822C10.5307 21.0464 10.4021 19.9201 10.2769 18.7906C10.2144 18.226 10.1525 17.6614 10.091 17.0967C10.084 17.0328 10.077 16.969 10.0698 16.9032C9.97529 16.0364 9.88803 15.1696 9.82041 14.3002C9.81504 14.2327 9.80967 14.1652 9.80414 14.0957C9.79984 14.0384 9.79554 13.9812 9.79112 13.9222C9.77145 13.7557 9.73533 13.5998 9.69124 13.4382C9.25086 13.4693 8.9636 13.7291 8.62354 13.9847C8.49251 14.0813 8.36148 14.1778 8.23043 14.2744C8.1637 14.3239 8.09697 14.3734 8.02822 14.4244C7.7209 14.6517 7.41063 14.8747 7.10042 15.0979C6.97896 15.1856 6.85752 15.2733 6.73609 15.3611C6.00743 15.8873 6.00743 15.8873 5.82514 16.019C5.70408 16.1064 5.58303 16.1938 5.46199 16.2813C5.15253 16.5049 4.84291 16.7282 4.53302 16.9512C4.22894 17.17 3.92547 17.3897 3.6223 17.6098C3.46626 17.7226 3.30948 17.8343 3.15254 17.9459C3.06342 18.0102 2.97434 18.0746 2.88529 18.1391C2.80921 18.1935 2.73313 18.2478 2.65474 18.3039C2.47644 18.4662 2.43033 18.5458 2.40458 18.7817C2.49809 18.8085 2.5916 18.8352 2.68795 18.8627C3.07524 18.9924 3.43953 19.16 3.80625 19.3384C3.8624 19.3649 3.91855 19.3914 3.9764 19.4187C4.31617 19.5876 4.54952 19.7441 4.7525 20.0771C4.93208 20.819 4.62887 21.6664 4.45205 22.3874C3.60457 25.8959 3.75631 29.7712 4.50961 33.2741C4.52232 33.3344 4.53503 33.3948 4.54812 33.457C4.62872 33.8321 4.72728 34.201 4.83346 34.5695C4.8568 34.6514 4.88014 34.7334 4.90419 34.8178C5.51337 36.9311 6.31438 38.9022 7.42428 40.8036C7.46271 40.8696 7.50114 40.9356 7.54074 41.0035C8.20357 42.1322 8.93634 43.1958 9.7722 44.2041C9.8367 44.2827 9.9012 44.3613 9.96765 44.4422C10.3915 44.954 10.8324 45.4484 11.2852 45.9347C11.3342 45.9876 11.3832 46.0405 11.4337 46.095C11.7338 46.4143 12.047 46.7084 12.3794 46.9936C12.5521 47.1421 12.7178 47.2973 12.8842 47.4527C14.3298 48.7511 15.9873 49.8609 17.7066 50.7621C17.7845 50.803 17.7845 50.803 17.8641 50.8447C19.2273 51.554 20.6196 52.1422 22.0786 52.6242C22.1698 52.6549 22.261 52.6856 22.355 52.7172C26.1317 53.9371 30.1891 54.1442 34.0946 53.5407C35.2842 53.3579 35.2842 53.3579 35.6803 53.6233C35.8807 53.7885 36.0492 53.9287 36.1661 54.1625C36.1789 54.1146 36.1918 54.0667 36.205 54.0174C36.2239 53.9534 36.2428 53.8894 36.2622 53.8235C36.2801 53.7606 36.2979 53.6976 36.3163 53.6328C36.4865 53.2675 36.727 53.0671 37.0935 52.9065C37.1993 52.8718 37.3056 52.8384 37.4122 52.8061C37.4977 52.7784 37.4977 52.7784 37.5849 52.7502C37.7661 52.6919 37.9477 52.6352 38.1294 52.5787C38.3679 52.5033 38.6061 52.4271 38.8442 52.3507C38.9012 52.3325 38.9582 52.3144 39.017 52.2957C39.3217 52.1973 39.6139 52.0883 39.9037 51.9522C40.3284 51.7529 40.7246 51.7288 41.1858 51.8146C41.5384 52.0043 41.7604 52.2558 41.9145 52.6242C41.9538 53.049 41.9052 53.3186 41.6716 53.6767C41.2867 54.0502 40.8974 54.2207 40.3964 54.4003C40.3219 54.4277 40.2473 54.4552 40.1705 54.4834C39.9426 54.5665 39.7141 54.648 39.4856 54.7293C39.4172 54.7541 39.3489 54.7789 39.2785 54.8045C37.5462 55.4327 37.5462 55.4327 36.9666 55.2388C36.6888 55.0944 36.4899 54.915 36.328 54.6483C36.3103 54.6962 36.2925 54.7441 36.2743 54.7935C36.1059 55.2131 35.9461 55.5825 35.5184 55.7818C34.6547 56.0318 33.7394 56.1068 32.8466 56.1866C32.7461 56.1958 32.6456 56.205 32.5421 56.2144C25.1726 56.7597 17.5525 54.6431 11.8992 49.7697C11.7836 49.669 11.6685 49.5679 11.5534 49.4667C11.4959 49.4172 11.4384 49.3677 11.3791 49.3168C10.3811 48.4555 9.4116 47.5582 8.55776 46.552C8.49409 46.4794 8.43043 46.4067 8.36484 46.3319C6.00035 43.616 4.09965 40.3424 2.97132 36.9174C2.93791 36.8165 2.93791 36.8165 2.90384 36.7136C1.36781 32.0136 1.09462 26.9542 1.99976 22.1012C2.0302 21.9342 2.06056 21.7673 2.09085 21.6003C2.11446 21.4704 2.13807 21.3405 2.16169 21.2106C2.09823 21.1939 2.03478 21.1772 1.9694 21.16C1.17778 20.8598 0.595932 20.422 0.188218 19.6774C-0.0746055 19.0325 -0.0489731 18.177 0.183158 17.5268C0.607322 16.6583 1.36063 16.2026 2.13504 15.6734C2.44261 15.4611 2.74484 15.2416 3.04722 15.022C3.1694 14.9336 3.29158 14.8451 3.41377 14.7567C3.47439 14.7128 3.53501 14.6688 3.59748 14.6236C3.90129 14.4035 4.20547 14.184 4.50961 13.9644C4.63106 13.8767 4.7525 13.789 4.87395 13.7013C5.11683 13.5259 5.35972 13.3505 5.60261 13.1751C5.66278 13.1316 5.72295 13.0881 5.78494 13.0433C5.90577 12.9561 6.02669 12.869 6.14769 12.782C6.46136 12.5562 6.7732 12.3284 7.08271 12.0969C7.17868 12.0258 7.17868 12.0258 7.27658 11.9533C7.39751 11.8637 7.51794 11.7734 7.63775 11.6823C8.54611 11.0125 9.64283 10.7119 10.7131 11.2161Z" fill="white"/>
<path d="M26.5574 2.89139C26.6848 2.89084 26.6848 2.89084 26.8149 2.89028C27.1 2.88925 27.3852 2.88939 27.6704 2.88952C27.8746 2.88904 28.0789 2.88848 28.2832 2.88787C28.7807 2.88659 29.2782 2.88608 29.7757 2.88599C30.18 2.88591 30.5844 2.88558 30.9888 2.88507C32.1354 2.88364 33.282 2.8829 34.4285 2.88302C34.4903 2.88302 34.5521 2.88303 34.6158 2.88304C34.6777 2.88304 34.7395 2.88305 34.8033 2.88306C35.8063 2.88312 36.8093 2.88157 37.8124 2.87929C38.8424 2.87696 39.8724 2.87585 40.9024 2.87599C41.4806 2.87604 42.0588 2.87559 42.6371 2.87385C43.1807 2.87222 43.7244 2.87227 44.268 2.87345C44.4677 2.87362 44.6674 2.87323 44.8671 2.87226C45.1394 2.87101 45.4116 2.87176 45.6839 2.87301C45.8028 2.87176 45.8028 2.87176 45.9241 2.87048C46.4738 2.87608 46.7534 2.97683 47.1484 3.36909C47.4631 3.77108 47.5105 3.91684 47.4745 4.42635C47.4686 4.51129 47.4686 4.51129 47.4626 4.59793C47.4537 4.72376 47.4446 4.84957 47.4353 4.97537C47.4194 5.18891 47.4043 5.40249 47.3893 5.61609C47.3611 6.00902 47.3301 6.40168 47.2979 6.7943C47.2848 6.95712 47.2724 7.12 47.2607 7.28292C47.2434 7.52235 47.2238 7.76152 47.2038 8.00074C47.199 8.0726 47.1943 8.14447 47.1894 8.21852C47.135 8.8218 46.9312 9.31221 46.4991 9.74428C45.9129 10.1072 45.4399 10.2025 44.7483 10.1187C44.3106 9.97812 44.0353 9.6741 43.7768 9.30911C43.6659 8.97052 43.7 8.6377 43.7211 8.28695C43.7268 8.18622 43.7268 8.18622 43.7326 8.08346C43.7623 7.59841 43.8051 7.11535 43.8577 6.63227C43.8644 6.57016 43.8712 6.50805 43.8781 6.44406C43.9283 6.01043 43.9283 6.01043 44.0197 5.8277C38.4089 5.8277 32.7982 5.8277 27.0174 5.8277C27.0174 6.04145 27.0174 6.25519 27.0174 6.47541C27.0051 6.60239 26.9896 6.72916 26.9693 6.85512C26.9587 6.92226 26.9482 6.98941 26.9373 7.05859C26.9256 7.12935 26.914 7.20011 26.902 7.27302C26.89 7.34875 26.878 7.42447 26.8656 7.50249C26.8273 7.74382 26.7883 7.98503 26.7493 8.22623C26.7113 8.46234 26.6736 8.69848 26.636 8.93465C26.6109 9.09201 26.5857 9.24934 26.5603 9.40664C26.4964 9.80759 26.4381 10.2083 26.3892 10.6114C26.3793 10.6913 26.3694 10.7711 26.3592 10.8534C26.3409 11.0041 26.3236 11.155 26.3075 11.3059C26.237 11.8823 26.0771 12.4441 25.6057 12.8209C25.5607 12.8582 25.5157 12.8956 25.4693 12.9341C25.0095 13.2343 24.5908 13.2174 24.0572 13.2105C23.9704 13.2099 23.8836 13.2093 23.7941 13.2087C22.0079 13.1918 20.2182 13.1466 18.4354 13.0334C18.4303 13.107 18.4303 13.107 18.4251 13.1821C18.3706 13.873 18.2584 14.5521 18.1419 15.2346C18.1204 15.3621 18.0989 15.4897 18.0774 15.6173C17.8947 16.699 17.7058 17.7797 17.5144 18.8599C17.247 20.3718 16.9976 21.8867 16.7512 23.402C16.6295 24.1497 16.5065 24.8971 16.3824 25.6444C16.3105 26.0773 16.2393 26.5102 16.1695 26.9435C16.1008 27.3702 16.0303 27.7966 15.9587 28.2228C15.932 28.3832 15.906 28.5437 15.8806 28.7043C15.6076 30.4256 15.6076 30.4256 14.9861 30.956C14.5696 31.2536 14.1561 31.3193 13.6586 31.25C13.2804 31.108 13.0112 30.8974 12.8085 30.5467C12.5685 29.973 12.6727 29.4255 12.7974 28.8335C12.9184 28.2459 13.0187 27.6557 13.1141 27.0634C13.3163 25.8128 13.5393 24.5664 13.7699 23.3207C14.0776 21.6579 14.3773 19.9938 14.6716 18.3286C14.7678 17.7843 14.8649 17.2401 14.9622 16.696C15.0046 16.4588 15.0469 16.2217 15.0893 15.9845C15.117 15.8296 15.1447 15.6748 15.1724 15.5199C15.3071 14.7682 15.4401 14.0165 15.559 13.2621C15.568 13.2053 15.5771 13.1485 15.5864 13.0901C15.6273 12.833 15.6672 12.5758 15.7052 12.3182C15.8235 11.564 15.981 10.9583 16.5732 10.4426C16.6825 10.3393 16.6825 10.3393 16.794 10.2339C17.2513 9.81228 17.7148 9.40628 18.1995 9.01593C18.471 8.79426 18.7367 8.56651 19.0021 8.33755C19.3342 8.05125 19.6683 7.7685 20.0091 7.4925C20.4179 7.16053 20.8155 6.81677 21.2127 6.47108C21.9262 5.85033 22.6487 5.24164 23.3827 4.6452C23.7073 4.37665 24.0259 4.10115 24.343 3.82374C25.0708 3.19273 25.5758 2.88829 26.5574 2.89139Z" fill="white"/>
<path d="M51.7792 9.27936C52.3894 9.59564 52.7744 10.2234 53.1689 10.7664C53.2289 10.8483 53.2889 10.9303 53.3507 11.0147C53.5387 11.2792 53.7199 11.5474 53.8975 11.8189C53.9357 11.8772 53.9738 11.9354 54.0132 11.9954C55.7774 14.7131 57.2069 17.7488 57.8846 20.9311C57.9414 21.2091 57.9414 21.2091 58.0244 21.47C58.1385 21.8917 58.2029 22.3174 58.2695 22.7489C58.2836 22.8392 58.2978 22.9295 58.3123 23.0224C58.3526 23.282 58.3922 23.5417 58.4314 23.8014C58.4459 23.897 58.4459 23.897 58.4607 23.9944C58.6412 25.2062 58.6913 26.4141 58.6895 27.6371C58.6895 27.7004 58.6894 27.7638 58.6894 27.8291C58.6857 29.5747 58.5193 31.2623 58.223 32.9825C58.1763 33.2679 58.1407 33.5536 58.1076 33.8408C58.1942 33.8836 58.1942 33.8836 58.2825 33.9272C59.1481 34.3734 59.6595 34.8533 59.9697 35.7839C60.0482 36.6407 60.0048 37.3275 59.484 38.0509C59.0075 38.6037 58.3467 38.9971 57.7509 39.4108C57.3825 39.6667 57.0185 39.9282 56.6553 40.1914C56.595 40.2351 56.5346 40.2788 56.4724 40.3238C56.3499 40.4124 56.2275 40.5011 56.1051 40.5898C55.8012 40.8098 55.4971 41.0294 55.1929 41.2489C54.7622 41.5599 54.3316 41.8711 53.9011 42.1824C53.7184 42.3144 53.5355 42.4462 53.3526 42.5779C53.1304 42.738 52.9093 42.8995 52.6891 43.0624C51.737 43.7639 50.9796 44.1329 49.7684 43.9612C49.4626 43.8675 49.2195 43.74 48.9588 43.5564C48.9118 43.5253 48.8649 43.4942 48.8165 43.4621C48.1993 43.0062 47.9746 42.3356 47.8253 41.6133C47.7772 41.2398 47.745 40.8659 47.7171 40.4904C47.6942 40.183 47.6684 39.8758 47.6428 39.5686C47.6378 39.5073 47.6328 39.446 47.6276 39.3828C47.5848 38.8699 47.5285 38.3593 47.466 37.8485C47.3607 36.9728 47.2701 36.0959 47.1847 35.218C47.1701 35.0677 47.1552 34.9175 47.1402 34.7672C46.8797 32.1555 46.8797 32.1555 47.6314 31.1586C48.0637 30.6833 48.5782 30.3658 49.2273 30.3319C50.1192 30.3144 50.1192 30.3144 50.4971 30.4404C50.7085 26.8091 50.626 22.9258 48.9588 19.5914C48.9132 19.2174 48.923 18.9357 49.0904 18.5945C49.3335 18.3194 49.5519 18.0916 49.9265 18.0249C50.3068 18.0082 50.5794 18.0834 50.9019 18.296C51.2697 18.6668 51.4106 19.1306 51.585 19.6116C51.617 19.6989 51.6491 19.7862 51.682 19.8762C52.3229 21.6444 52.7611 23.4632 52.926 25.3397C52.9349 25.4294 52.9439 25.519 52.9532 25.6114C53.4426 31.3589 53.4426 31.3589 52.1973 33.0312C51.9263 33.2558 51.6375 33.3499 51.2909 33.3832C50.9204 33.3373 50.6074 33.1671 50.2799 32.9941C49.9876 32.8412 49.7765 32.7522 49.4446 32.7883C49.4894 33.6994 49.5625 34.6044 49.6586 35.5114C49.6865 35.7751 49.7141 36.0387 49.7417 36.3024C49.8107 36.9625 49.8802 37.6225 49.9502 38.2824C49.9891 38.6498 50.0278 39.0171 50.0662 39.3845C50.0933 39.6434 50.1206 39.9022 50.1479 40.161C50.1576 40.2538 50.1672 40.3466 50.1772 40.4422C50.1862 40.5273 50.1952 40.6125 50.2045 40.7002C50.2122 40.7735 50.2199 40.8468 50.2278 40.9223C50.2543 41.1282 50.292 41.3293 50.3352 41.5323C50.7592 41.4962 51.0305 41.2701 51.3624 41.0263C51.4225 40.983 51.4826 40.9397 51.5446 40.895C51.6716 40.8033 51.7985 40.7113 51.9252 40.6191C52.1095 40.4848 52.2943 40.3514 52.4794 40.2182C52.7834 39.9994 53.0869 39.7799 53.3902 39.5601C53.6335 39.384 53.877 39.2081 54.1205 39.0323C54.2415 38.945 54.3624 38.8576 54.4834 38.7702C54.7929 38.5466 55.1025 38.3232 55.4124 38.1002C55.5383 38.0096 55.6642 37.9189 55.79 37.8283C55.8505 37.7848 55.9109 37.7413 55.9731 37.6965C56.4156 37.3772 56.8512 37.0498 57.2828 36.716C57.4599 36.5936 57.4599 36.5936 57.6218 36.5936C57.6092 36.4365 57.6092 36.4365 57.5409 36.2697C57.3796 36.1596 57.3796 36.1596 57.1753 36.0809C57.1006 36.048 57.026 36.0151 56.9491 35.9811C56.7918 35.9144 56.6343 35.848 56.4766 35.7819C56.0672 35.6005 55.7321 35.443 55.4961 35.0499C55.2809 34.491 55.4838 33.8754 55.623 33.3196C57.1792 26.7534 55.8966 19.6932 52.3921 13.9546C51.8051 13.0156 51.1756 12.0906 50.4528 11.25C50.1638 10.8576 50.1503 10.5361 50.2109 10.0678C50.296 9.69039 50.4905 9.5274 50.8058 9.32427C51.1547 9.19426 51.4201 9.15558 51.7792 9.27936Z" fill="white"/>
<path d="M24.9658 27.6641C25.3763 27.9671 25.8951 28.3577 26.1268 28.821C26.1679 29.3153 26.1322 29.5594 25.8029 29.9545C25.5048 30.1532 25.3205 30.1739 24.968 30.1692C24.6112 30.0826 24.4341 29.8375 24.196 29.5709C23.7296 29.0808 23.0325 28.9034 22.3721 28.8767C21.4609 28.9033 20.7385 29.3204 20.1153 29.9646C19.4262 30.7971 19.3091 31.6517 19.3878 32.6987C19.4667 33.4059 19.8471 33.9486 20.3784 34.4075C21.0948 34.8521 21.725 34.9678 22.5644 34.8932C22.9388 34.8026 23.2939 34.7015 23.6169 34.4884C23.7572 34.173 23.8111 33.8577 23.8598 33.5169C23.7953 33.5148 23.7308 33.5127 23.6643 33.5105C23.147 33.4829 22.7945 33.4628 22.4025 33.1121C22.2019 32.8112 22.1877 32.5702 22.2405 32.2215C22.4386 31.8177 22.6285 31.6416 23.0502 31.4928C23.4038 31.4806 23.7507 31.511 24.1027 31.5434C24.1968 31.5502 24.291 31.557 24.388 31.564C25.4296 31.651 25.4296 31.651 25.7928 32.0747C26.0107 32.6195 25.8503 33.2575 25.7624 33.8205C25.7394 33.9701 25.7167 34.1198 25.6941 34.2696C25.6839 34.335 25.6738 34.4004 25.6633 34.4678C25.6344 34.6733 25.6344 34.6733 25.641 34.9742C25.6944 34.9208 25.7479 34.8673 25.8029 34.8123C26.1054 34.6106 26.3432 34.6048 26.6935 34.6504C26.9111 34.7206 27.1085 34.8178 27.3108 34.9236C28.0226 35.2824 28.7426 35.5811 29.5455 35.3205C29.8541 35.1584 30.0448 34.9719 30.1749 34.6504C30.2188 34.349 30.2094 34.217 30.0408 33.9611C29.8268 33.734 29.6581 33.6489 29.3697 33.5333C29.2758 33.4941 29.1818 33.4548 29.0851 33.4144C28.8894 33.3351 28.6935 33.2563 28.4975 33.1778C27.6754 32.833 26.8846 32.3487 26.5142 31.4975C26.3235 30.7547 26.3306 29.9509 26.6581 29.2511C27.1283 28.4601 27.7534 27.9991 28.6369 27.7166C29.8624 27.496 31.0723 27.9687 32.118 28.5781C32.2274 28.6571 32.336 28.7374 32.4419 28.821C32.5053 28.7425 32.5688 28.6641 32.6341 28.5832C32.7587 28.4292 32.8299 28.3436 33.0086 28.2543C34.2013 28.1773 35.4053 28.3197 36.5934 28.4183C36.8798 28.4421 37.1662 28.4649 37.4527 28.4875C37.6762 28.5051 37.8997 28.5233 38.1233 28.5416C38.2795 28.5544 38.4358 28.5667 38.5921 28.579C39.9537 28.6938 39.9537 28.6938 40.3762 28.9931C40.5816 29.2882 40.6423 29.5158 40.6191 29.8735C40.518 30.1827 40.4068 30.331 40.1688 30.5516C39.5615 30.8387 38.7915 30.6666 38.1396 30.6022C38.0177 30.5906 38.0177 30.5906 37.8933 30.5788C37.6953 30.56 37.4975 30.5408 37.2996 30.5212C37.296 30.5732 37.2924 30.6252 37.2886 30.6788C37.2191 31.6535 37.137 32.6218 36.9959 33.589C36.8711 34.46 36.7807 35.335 36.688 36.2099C36.4665 38.2811 36.4665 38.2811 36.0852 38.6175C35.8029 38.822 35.5348 38.8147 35.1946 38.7795C34.7927 38.5785 34.6331 38.3816 34.4659 37.9698C34.4519 37.7252 34.4519 37.7252 34.477 37.454C34.4815 37.4027 34.486 37.3513 34.4906 37.2984C34.5074 37.1171 34.5269 36.9363 34.5469 36.7554C34.5545 36.6852 34.5621 36.615 34.57 36.5426C34.6337 35.9636 34.7038 35.3854 34.7746 34.8072C34.7965 34.627 34.8183 34.4468 34.8401 34.2666C35.0019 32.9358 35.1723 31.6063 35.3565 30.2784C35.2637 30.2792 35.2637 30.2792 35.1691 30.2801C33.1356 30.2912 33.1356 30.2912 32.6392 29.8634C32.5415 29.7482 32.5415 29.7482 32.4419 29.6307C32.4085 29.6924 32.3751 29.7542 32.3407 29.8179C32.12 30.1568 31.9786 30.256 31.5791 30.3422C31.1904 30.386 30.9328 30.2658 30.5949 30.0861C30.4898 30.0331 30.3847 29.9801 30.2796 29.9273C30.1916 29.8828 30.1036 29.8384 30.013 29.7926C29.7546 29.7064 29.5608 29.6981 29.2894 29.6964C29.2051 29.6953 29.1209 29.6941 29.0341 29.693C28.8001 29.7115 28.6704 29.7479 28.4747 29.8735C28.3049 30.0918 28.3132 30.2049 28.3279 30.4858C28.3958 30.7728 28.4203 30.8289 28.6366 31.007C28.8014 31.0988 28.8014 31.0988 28.9861 31.1759C29.0543 31.2059 29.1225 31.236 29.1927 31.2669C29.2647 31.2981 29.3367 31.3292 29.4108 31.3612C29.5578 31.4262 29.7048 31.4912 29.8517 31.5564C29.9569 31.6029 29.9569 31.6029 30.0643 31.6503C30.9781 32.0574 31.6534 32.4563 32.0494 33.4201C32.2557 34.1979 32.2 35.0843 31.7942 35.7838C31.3014 36.5813 30.6125 37.1809 29.6891 37.4031C28.7678 37.5121 27.8747 37.4468 27.0173 37.0792C26.9691 37.0588 26.9209 37.0384 26.8712 37.0174C25.6885 36.5067 25.6885 36.5067 25.3981 35.9458C25.3465 35.7263 25.3465 35.7263 25.3171 35.5409C25.27 35.5821 25.2228 35.6232 25.1742 35.6656C24.1122 36.5572 22.9124 37.0278 21.5119 36.9173C21.4434 36.9126 21.3749 36.9079 21.3044 36.9031C20.16 36.7617 19.142 36.1075 18.4353 35.2171C17.5761 33.9275 17.3773 32.5483 17.6257 31.0374C17.9278 29.7072 18.7698 28.5567 19.8708 27.7695C21.4255 26.8128 23.399 26.6565 24.9658 27.6641Z" fill="white"/>
<path d="M32.118 28.5783C32.2274 28.6572 32.3359 28.7375 32.4418 28.8212C32.537 28.7034 32.537 28.7034 32.6341 28.5833C32.7586 28.4293 32.8298 28.3438 33.0086 28.2544C34.2013 28.1774 35.4052 28.3198 36.5934 28.4185C36.8797 28.4423 37.1662 28.4651 37.4526 28.4876C37.6762 28.5053 37.8997 28.5235 38.1232 28.5418C38.2795 28.5545 38.4358 28.5669 38.592 28.5792C39.9537 28.694 39.9537 28.694 40.3762 28.9932C40.5815 29.2884 40.6423 29.516 40.6191 29.8737C40.518 30.1828 40.4068 30.3311 40.1687 30.5517C39.5614 30.8388 38.7915 30.6668 38.1396 30.6024C38.0176 30.5908 38.0176 30.5908 37.8932 30.5789C37.6953 30.5601 37.4974 30.5409 37.2996 30.5214C37.296 30.5734 37.2923 30.6254 37.2886 30.6789C37.2191 31.6537 37.1369 32.622 36.9959 33.5891C36.8711 34.4602 36.7807 35.3351 36.688 36.2101C36.4664 38.2813 36.4664 38.2813 36.0851 38.6177C35.8029 38.8221 35.5348 38.8148 35.1946 38.7796C34.7927 38.5787 34.6331 38.3817 34.4659 37.97C34.4519 37.7254 34.4519 37.7254 34.477 37.4542C34.4837 37.3771 34.4837 37.3771 34.4906 37.2985C34.5073 37.1173 34.5268 36.9365 34.5469 36.7555C34.5545 36.6853 34.5621 36.6151 34.5699 36.5428C34.6337 35.9638 34.7037 35.3856 34.7746 34.8074C34.7964 34.6272 34.8182 34.447 34.8401 34.2668C35.0019 32.9359 35.1723 31.6064 35.3565 30.2785C35.2637 30.2794 35.2637 30.2794 35.169 30.2803C33.1356 30.2914 33.1356 30.2914 32.6392 29.8636C32.574 29.7868 32.5089 29.7099 32.4418 29.6308C32.4084 29.6926 32.375 29.7544 32.3406 29.818C32.1199 30.157 31.9786 30.2562 31.5791 30.3424C31.1904 30.3861 30.9328 30.266 30.5949 30.0862C30.4898 30.0332 30.3847 29.9803 30.2795 29.9275C30.1916 29.883 30.1036 29.8385 30.0129 29.7927C29.7545 29.7066 29.5608 29.6983 29.2893 29.6966C29.2051 29.6954 29.1209 29.6943 29.0341 29.6931C28.7971 29.7119 28.668 29.7379 28.4746 29.8737C28.3852 30.0113 28.3852 30.0113 28.3329 30.1672C28.2996 30.2573 28.2662 30.3475 28.2317 30.4404C28.1783 30.4137 28.1249 30.387 28.0698 30.3595C28.0431 29.8785 28.0164 29.3976 27.9889 28.9021C27.8553 28.9288 27.7217 28.9556 27.584 28.9831C27.5801 29.0679 27.5761 29.1528 27.572 29.2402C27.5659 29.3519 27.5598 29.4635 27.5537 29.5751C27.5499 29.659 27.5499 29.659 27.5461 29.7445C27.5289 30.0413 27.5096 30.1877 27.3412 30.4404C27.2076 30.4404 27.074 30.4404 26.9363 30.4404C26.9363 30.0129 26.9363 29.5855 26.9363 29.145C26.8829 29.1183 26.8295 29.0916 26.7744 29.0641C28.2389 27.2087 30.2445 27.4864 32.118 28.5783Z" fill="white"/>
<path d="M35.5256 14.0306C35.8316 14.1401 35.9576 14.2288 36.166 14.4908C36.2436 14.7522 36.2365 14.9566 36.166 15.2194C35.8878 15.723 35.3745 16.0562 34.9262 16.3996C34.5535 16.6852 34.1964 16.9846 33.8434 17.2941C33.4358 17.6508 33.0244 18.0006 32.6037 18.3419C32.2956 18.5918 31.989 18.8435 31.6827 19.0955C31.6236 19.1442 31.5645 19.1928 31.5036 19.2429C31.0992 19.5763 30.698 19.9132 30.2988 20.2527C29.9592 20.5411 29.6146 20.8231 29.269 21.1044C29.0156 21.3128 28.7651 21.5245 28.515 21.7369C27.9766 22.1943 27.43 22.6411 26.8819 23.0867C26.5246 23.3779 26.1696 23.671 25.8197 23.9709C25.6431 24.1218 25.4652 24.2712 25.2868 24.42C25.1994 24.4931 25.1123 24.5667 25.0255 24.6406C24.2453 25.3014 24.2453 25.3014 23.7838 25.3297C23.5346 25.2988 23.4292 25.2431 23.2069 25.107C22.9922 24.7608 22.9599 24.4422 23.05 24.0444C23.255 23.7407 23.4983 23.5225 23.7838 23.2955C23.8627 23.2321 23.9416 23.1688 24.0229 23.1035C24.1026 23.0399 24.1823 22.9764 24.2645 22.9109C24.8088 22.4708 25.3439 22.0217 25.8739 21.5646C26.205 21.2799 26.5429 21.0056 26.8857 20.735C27.1501 20.521 27.4074 20.2994 27.6649 20.0772C28.0421 19.7519 28.4233 19.4344 28.8139 19.1252C29.6076 18.4916 30.3868 17.8405 31.156 17.1774C31.4983 16.8827 31.8456 16.5946 32.1963 16.3099C32.4442 16.108 32.6906 15.9044 32.9368 15.7005C33.1142 15.5538 33.2923 15.4081 33.4705 15.2624C33.6939 15.0798 33.9143 14.8944 34.1328 14.7058C35.0186 13.9538 35.0186 13.9538 35.5256 14.0306Z" fill="white"/>
<path d="M34.1424 20.6439C34.775 21.0908 35.2181 21.621 35.4062 22.3817C35.5502 23.3164 35.3685 24.1361 34.8711 24.9349C34.324 25.6508 33.4872 26.0879 32.6041 26.2303C31.8221 26.3144 31.151 26.1078 30.5143 25.6484C29.9597 25.1843 29.5902 24.6132 29.5098 23.883C29.4548 22.911 29.5431 22.1938 30.1955 21.4333C31.2321 20.3525 32.7497 19.8352 34.1424 20.6439Z" fill="white"/>
<path d="M28.5556 14.0049C29.1725 14.4566 29.6172 14.9382 29.7701 15.7052C29.8504 16.596 29.7351 17.3075 29.1989 18.0363C28.8458 18.4499 28.4788 18.7851 27.9889 19.0246C27.9036 19.0673 27.8183 19.11 27.7305 19.154C27.3914 19.2964 27.0731 19.311 26.7087 19.308C26.6125 19.3075 26.6125 19.3075 26.5144 19.307C25.8573 19.2879 25.4171 19.0905 24.9224 18.6603C24.8656 18.5935 24.8089 18.5267 24.7504 18.4579C24.6936 18.3961 24.6368 18.3343 24.5783 18.2707C24.1246 17.6203 24.1127 16.965 24.1836 16.1909C24.3569 15.3729 24.803 14.7522 25.4689 14.258C26.3434 13.6929 27.6073 13.4541 28.5556 14.0049Z" fill="white"/>
<path d="M23.5613 0.215949C24.0786 0.661089 24.0786 0.661089 24.1337 0.996798C24.1545 1.45878 24.0988 1.74978 23.7789 2.1034C23.3781 2.41759 22.9827 2.534 22.4936 2.66002C21.9455 2.80697 21.4199 2.97214 20.8946 3.18627C20.4013 3.38103 19.9368 3.52152 19.4069 3.3988C19.0889 3.23499 18.8932 2.99961 18.7592 2.67014C18.7263 2.46362 18.7263 2.46362 18.7187 2.24002C18.7145 2.16686 18.7104 2.0937 18.7061 2.01832C18.7866 1.65649 18.9595 1.44575 19.245 1.2128C19.5398 1.05535 19.8449 0.946131 20.1609 0.838351C20.2899 0.792414 20.2899 0.792414 20.4216 0.745548C20.6764 0.656005 20.9319 0.569461 21.1881 0.484138C21.2584 0.46046 21.3288 0.436782 21.4013 0.412387C22.9434 -0.0988267 22.9434 -0.0988267 23.5613 0.215949Z" fill="white"/>
<path d="M17.9445 2.43222C18.2642 2.73251 18.4173 3.01136 18.4708 3.4392C18.4212 3.83548 18.3627 4.1381 18.0596 4.40727C17.6153 4.7151 17.1296 4.96624 16.6571 5.22809C16.2441 5.45762 15.845 5.70344 15.4508 5.96423C15.1152 6.17036 14.7723 6.21363 14.3872 6.15145C14.0671 6.00439 13.8644 5.80709 13.6585 5.52399C13.5516 5.17657 13.5523 4.88056 13.6585 4.5322C13.8949 4.091 14.1852 3.87621 14.5997 3.62136C14.6598 3.58381 14.7199 3.54626 14.7818 3.50757C14.9733 3.38899 15.166 3.27241 15.3588 3.15583C15.4223 3.11639 15.4858 3.07695 15.5512 3.03632C17.051 2.10904 17.051 2.10904 17.9445 2.43222Z" fill="white"/>
<path d="M45.72 49.2239C46.0687 49.4049 46.3386 49.6072 46.5296 49.9525C46.5917 50.3665 46.5984 50.7037 46.411 51.0838C46.1394 51.4082 45.8323 51.5982 45.4721 51.8147C45.4034 51.8569 45.3348 51.8992 45.2641 51.9427C43.6688 52.9181 43.6688 52.9181 43.0482 52.8672C42.6063 52.6874 42.3995 52.5038 42.2111 52.0642C42.1276 51.8011 42.1172 51.6018 42.1576 51.3289C42.4498 50.7771 42.8884 50.5067 43.4227 50.2106C43.8715 49.9593 44.308 49.6942 44.7396 49.4139C45.0627 49.2075 45.3411 49.173 45.72 49.2239Z" fill="white"/>
<path d="M33.0088 22.1823C33.2556 22.3818 33.4002 22.5668 33.5756 22.83C33.6155 23.2535 33.5635 23.5244 33.3327 23.8825C32.941 24.236 32.6878 24.324 32.1682 24.3218C31.8206 24.2652 31.6122 24.0644 31.3896 23.8015C31.2594 23.5411 31.2707 23.2744 31.3086 22.9919C31.685 22.267 32.2232 21.9779 33.0088 22.1823Z" fill="#74AB5A"/>
<path d="M27.4223 15.4622C27.6712 15.6 27.86 15.7708 27.989 16.0289C28.0189 16.4779 28.0157 16.7834 27.7461 17.1624C27.4941 17.392 27.2518 17.5501 26.9084 17.5884C26.5848 17.5695 26.3989 17.5057 26.1269 17.3243C25.9123 17.0025 25.8609 16.7371 25.884 16.3528C26.1297 15.6292 26.698 15.3504 27.4223 15.4622Z" fill="#74AB5A"/>
<path d="M23.7791 7.77087C23.8719 8.04934 23.8469 8.18725 23.8 8.47456C23.7855 8.56436 23.771 8.65417 23.756 8.7467C23.7403 8.84047 23.7245 8.93424 23.7083 9.03086C23.6856 9.17199 23.6856 9.17199 23.6624 9.31597C23.5478 10.0147 23.5478 10.0147 23.4553 10.1998C22.6537 10.1998 21.8522 10.1998 21.0264 10.1998C21.6565 9.56958 22.3146 8.9826 23.0077 8.42269C23.2694 8.2104 23.5245 7.99152 23.7791 7.77087Z" fill="#74AB5A"/>
<path d="M31.2277 36.4316C31.2277 36.787 31.0554 36.8987 30.8229 37.1603C30.716 37.1336 30.6091 37.1069 30.499 37.0793C30.5892 37.0092 30.5892 37.0092 30.6812 36.9377C30.8764 36.778 31.0528 36.613 31.2277 36.4316Z" fill="#74AB5A"/>
<path d="M33.0089 17.4863C33.0891 17.513 33.1692 17.5398 33.2518 17.5673C33.2518 17.6474 33.2518 17.7276 33.2518 17.8102C33.0494 17.9468 33.0494 17.9468 32.847 18.0531C32.7935 17.9996 32.7401 17.9462 32.6851 17.8911C32.7235 17.8544 32.7619 17.8177 32.8014 17.7798C32.9353 17.6537 32.9353 17.6537 33.0089 17.4863Z" fill="white"/>
<path d="M36.2474 54.4863C36.3542 54.6199 36.4611 54.7535 36.5712 54.8911C36.4644 54.9713 36.3575 55.0514 36.2474 55.134C36.1586 54.8677 36.1826 54.7525 36.2474 54.4863Z" fill="#74AB5A"/>
</svg>
