<svg width="61" height="67" viewBox="0 0 61 67" fill="none" xmlns="http://www.w3.org/2000/svg">
<path d="M21.2753 19.5088C21.6128 19.7057 21.9228 19.9095 22.2423 20.1323C26.0953 22.7784 31.2094 23.8785 35.7347 24.678C35.8386 24.6971 35.9426 24.7162 36.0498 24.7359C38.0056 25.0948 39.977 25.3216 41.9522 25.5456C42.1366 26.3988 42.1202 27.2459 42.1211 28.1143C42.1215 28.2803 42.122 28.4462 42.1225 28.6171C42.1233 28.9686 42.1236 29.3201 42.1236 29.6715C42.1239 30.2008 42.1265 30.73 42.1293 31.2593C42.1339 33.1354 42.0834 34.9671 41.8076 36.8238C41.7835 36.988 41.7595 37.1522 41.7347 37.3214C41.6634 37.7746 41.5844 38.2254 41.5003 38.6764C41.4701 38.8385 41.4399 39.0006 41.4088 39.1676C41.16 40.4463 40.8493 41.704 40.5062 42.96C40.46 43.1303 40.4138 43.3005 40.3661 43.4759C40.0559 44.5744 39.6656 45.6125 39.2049 46.6562C39.1563 46.7691 39.1078 46.8821 39.0577 46.9984C38.7312 47.7564 38.3914 48.5084 38.0482 49.2589C38.0044 49.355 37.9607 49.4512 37.9156 49.5503C36.7052 52.1811 35.1004 54.6079 33.2151 56.8016C32.986 57.0685 32.7602 57.3379 32.535 57.608C31.3411 59.0319 30.0924 60.339 28.6355 61.4996C28.3424 61.7363 28.0566 61.9746 27.7736 62.2226C26.6359 63.217 25.4447 64.0691 24.1672 64.875C24.0805 64.9296 23.9938 64.9843 23.9046 65.0407C23.369 65.3769 22.8287 65.7047 22.2875 66.0317C22.1831 66.0994 22.0787 66.167 21.9712 66.2367C21.3702 66.6162 21.3702 66.6162 20.9517 66.5892C20.4192 66.4242 19.9785 66.1499 19.5131 65.851C19.4127 65.7872 19.3123 65.7234 19.2089 65.6577C17.2275 64.3822 15.3651 62.9568 13.5545 61.451C13.3528 61.2849 13.1474 61.1233 12.9414 60.9625C11.348 59.6535 9.9871 57.9409 8.6957 56.3439C8.58517 56.2122 8.47464 56.0804 8.36076 55.9446C6.55882 53.7211 5.11321 51.1348 3.92411 48.5359C3.86773 48.415 3.81135 48.294 3.75326 48.1694C2.80408 46.122 2.05272 44.0634 1.46602 41.8846C1.43196 41.7591 1.3979 41.6336 1.3628 41.5043C0.958107 39.9856 0.660929 38.4576 0.417723 36.9052C0.394109 36.7546 0.370496 36.604 0.346167 36.4489C0.0262117 34.291 -0.00301637 32.1551 0.00123995 29.9782C0.00202314 29.4998 0.00123951 29.0214 0.000322123 28.543C0.000417536 28.2379 0.000602508 27.9327 0.000886941 27.6275C0.00059425 27.485 0.00030156 27.3425 0 27.1957C0.000455782 27.0633 0.000911563 26.931 0.00138116 26.7946C0.00149619 26.6787 0.00161123 26.5628 0.00172976 26.4433C0.019933 26.1267 0.0771842 25.8497 0.164684 25.5456C0.335604 25.5243 0.506523 25.5031 0.682622 25.4812C4.44886 24.998 8.21852 24.4097 11.8768 23.3767C11.9824 23.3471 12.0881 23.3175 12.197 23.2871C14.9545 22.5032 17.9474 21.5218 20.2812 19.816C20.7853 19.4679 20.7853 19.4679 21.2753 19.5088ZM19.8836 24.4159C19.7023 24.5111 19.5208 24.6058 19.3391 24.7C19.2503 24.7462 19.1615 24.7924 19.07 24.84C18.5206 25.1164 17.947 25.3312 17.3713 25.5456C17.2013 25.6108 17.0313 25.676 16.8562 25.7432C14.4305 26.6506 11.9547 27.3429 9.41866 27.859C9.30153 27.883 9.18439 27.907 9.06371 27.9317C8.1628 28.1142 7.2595 28.2823 6.35509 28.4465C6.15001 28.4841 6.15001 28.4841 5.9408 28.5224C5.2218 28.6532 4.50384 28.774 3.77952 28.8712C3.55041 36.7612 5.42004 44.8124 9.85244 51.4278C9.94694 51.5711 10.0414 51.7144 10.1388 51.8621C12.1575 54.859 14.6252 57.6326 17.5159 59.8142C17.6733 59.9403 17.6733 59.9403 17.8339 60.0689C18.1575 60.3274 18.4861 60.5775 18.8172 60.8263C18.9275 60.9116 18.9275 60.9116 19.0401 60.9986C19.2829 61.1853 19.5286 61.3675 19.7752 61.5493C19.9261 61.6626 20.0771 61.776 20.2327 61.8927C20.8272 62.1936 21.0736 62.1735 21.7091 61.9831C22.1181 61.7636 22.4849 61.5009 22.8568 61.224C22.9633 61.1465 23.0698 61.069 23.1795 60.9892C27.1212 58.0925 30.2838 54.775 32.9874 50.7048C33.1098 50.5208 33.1098 50.5208 33.2348 50.3332C34.57 48.216 35.4789 45.8237 36.313 43.4751C36.3535 43.3627 36.3939 43.2502 36.4356 43.1343C37.109 41.2358 37.4891 39.3011 37.8346 37.3192C37.9036 36.9684 37.9036 36.9684 38.0482 36.5347C38.4249 34.0403 38.3678 31.5304 38.3373 29.0158C38.1984 28.9899 38.0595 28.9641 37.9163 28.9375C37.5366 28.8667 37.1569 28.7955 36.7773 28.7238C36.3823 28.6492 35.9872 28.5752 35.5919 28.5022C30.921 27.6385 26.1419 26.5383 21.8944 24.3374C21.0414 23.9099 20.7095 23.9628 19.8836 24.4159Z" fill="white"/>
<path d="M52.9414 10.9416C53.5439 10.9289 54.1463 10.9213 54.7488 10.9145C54.9185 10.9109 55.0881 10.9072 55.2628 10.9035C56.2413 10.8953 56.9697 10.9582 57.8576 11.3754C58.0246 11.45 58.1916 11.5245 58.3637 11.6013C59.4151 12.2308 60.1623 13.3861 60.4603 14.5565C60.5221 15.1814 60.5195 15.8029 60.5163 16.4305C60.5175 16.7119 60.5175 16.7119 60.5187 16.999C60.5208 17.5176 60.5202 18.0362 60.5191 18.5548C60.5184 19.1149 60.5202 19.6751 60.5217 20.2352C60.5242 21.3318 60.5243 22.4284 60.5236 23.525C60.523 24.4166 60.5232 25.3082 60.524 26.1998C60.5241 26.3268 60.5242 26.4538 60.5243 26.5846C60.5245 26.8426 60.5247 27.1007 60.525 27.3587C60.5269 29.7774 60.5262 32.1961 60.5245 34.6149C60.5231 36.826 60.5249 39.0371 60.5284 41.2482C60.5319 43.5202 60.5333 45.7922 60.5323 48.0642C60.5318 49.3391 60.5322 50.614 60.5347 51.8889C60.5368 52.9744 60.5369 54.0598 60.5344 55.1452C60.5332 55.6986 60.5328 56.252 60.5351 56.8054C60.5374 57.4063 60.5353 58.0071 60.5328 58.6081C60.5348 58.8683 60.5348 58.8683 60.537 59.1338C60.5237 60.65 60.2088 61.9236 59.1369 63.0365C58.007 64.0852 56.8308 64.5111 55.2909 64.4934C55.1705 64.4937 55.0502 64.4941 54.9261 64.4945C54.5265 64.4952 54.127 64.4928 53.7273 64.4904C53.4394 64.4903 53.1514 64.4904 52.8635 64.4906C52.0844 64.4908 51.3054 64.4882 50.5264 64.4852C49.7113 64.4825 48.8961 64.4822 48.081 64.4817C46.5386 64.4803 44.9962 64.4768 43.4539 64.4724C41.6974 64.4676 39.941 64.4652 38.1845 64.463C34.5725 64.4585 30.9604 64.4509 27.3484 64.4412C27.9351 63.8482 28.5444 63.328 29.1987 62.8118C29.5161 62.5513 29.7968 62.2795 30.0718 61.9747C30.8536 61.1275 31.5053 60.538 32.6914 60.4715C33.1248 60.4595 33.5557 60.469 33.989 60.4807C34.2291 60.4807 34.4692 60.4799 34.7093 60.4785C35.3556 60.4766 36.0013 60.4852 36.6475 60.4957C37.3256 60.5047 38.0036 60.5033 38.6817 60.5029C39.9638 60.5036 41.2457 60.5126 42.5278 60.5251C44.827 60.5472 47.1264 60.5551 49.4257 60.5599C50.2323 60.5619 51.0388 60.5676 51.8453 60.5764C52.3458 60.5813 52.8463 60.584 53.3468 60.5862C53.579 60.5878 53.8113 60.5903 54.0435 60.594C54.3601 60.5988 54.6766 60.6001 54.9933 60.6005C55.1705 60.6023 55.3477 60.604 55.5303 60.6057C56.0794 60.5216 56.2141 60.3874 56.5563 59.9588C56.6421 59.5949 56.6421 59.5949 56.6286 59.1911C56.6301 59.0345 56.6315 58.878 56.6329 58.7168C56.6309 58.459 56.6309 58.459 56.6287 58.196C56.6295 58.0133 56.6303 57.8307 56.6312 57.6425C56.6333 57.1352 56.6318 56.628 56.6297 56.1207C56.6281 55.5738 56.6299 55.0268 56.6312 54.4799C56.6332 53.4084 56.6321 52.3368 56.6299 51.2653C56.6275 50.0182 56.6279 48.771 56.6285 47.5239C56.6293 45.2992 56.6273 43.0746 56.6237 40.8499C56.6203 38.6898 56.6192 36.5296 56.6208 34.3695C56.6224 32.0186 56.6227 29.6678 56.6206 27.3169C56.6204 27.0664 56.6202 26.8159 56.6199 26.5654C56.6198 26.3805 56.6198 26.3805 56.6196 26.1919C56.6189 25.3219 56.6192 24.452 56.6198 23.5821C56.6205 22.5224 56.6197 21.4628 56.6168 20.4032C56.6153 19.8623 56.6146 19.3214 56.6158 18.7804C56.617 18.1949 56.6148 17.6094 56.6123 17.0239C56.6132 16.8517 56.6141 16.6795 56.6149 16.5021C56.6137 16.346 56.6125 16.1898 56.6112 16.029C56.6111 15.8937 56.611 15.7585 56.6108 15.6191C56.5818 15.2725 56.5818 15.2725 56.3647 15.0196C55.9684 14.735 55.5793 14.7814 55.0996 14.7717C55.0007 14.7691 54.9018 14.7665 54.8 14.7638C54.4847 14.756 54.1695 14.7511 53.8542 14.7462C53.6402 14.7414 53.4262 14.7365 53.2123 14.7313C52.6882 14.719 52.1642 14.7093 51.6401 14.7011C51.6849 14.5893 51.7298 14.4776 51.776 14.3626C51.926 13.9862 52.0696 13.6083 52.2094 13.228C52.2555 13.1037 52.3015 12.9794 52.3489 12.8513C52.5649 12.2202 52.7531 11.5815 52.9414 10.9416Z" fill="white"/>
<path d="M39.8969 0.483533C41.1571 1.23921 41.8228 2.16433 42.2415 3.56744C42.2911 3.87778 42.3318 4.18965 42.3646 4.50221C42.3833 4.67751 42.4019 4.85281 42.4211 5.03343C42.4394 5.21469 42.4576 5.39595 42.4765 5.58271C42.5055 5.85377 42.5055 5.85377 42.5352 6.1303C42.6224 6.9682 42.6853 7.78494 42.6753 8.62821C42.7712 8.62693 42.8671 8.62564 42.9659 8.62432C43.9651 8.61151 44.9643 8.60279 45.9636 8.59644C46.3364 8.59353 46.7091 8.58959 47.0819 8.58458C47.6182 8.57755 48.1543 8.57428 48.6906 8.57173C48.8569 8.56874 49.0232 8.56576 49.1946 8.56268C50.0987 8.56243 50.6713 8.58257 51.3509 9.20658C51.7325 9.96985 51.5429 11.0361 51.3147 11.8273C51.2336 12.0634 51.1493 12.2985 51.0617 12.5322C51.0248 12.6407 50.9879 12.7492 50.9499 12.861C50.3611 14.4005 49.0629 15.6166 47.5722 16.2854C47.2914 16.3938 47.0108 16.4898 46.7239 16.5808C46.6062 16.6296 46.4886 16.6784 46.3674 16.7286C45.6806 16.9187 45.0371 16.9127 44.3276 16.912C44.1754 16.913 44.0231 16.914 43.8663 16.915C43.3636 16.9177 42.861 16.9183 42.3584 16.9186C42.0076 16.9195 41.6567 16.9205 41.3058 16.9215C40.5701 16.9233 39.8344 16.9238 39.0987 16.9236C38.1597 16.9236 37.2208 16.9275 36.2819 16.9325C35.5568 16.9358 34.8317 16.9363 34.1066 16.9362C33.7607 16.9365 33.4148 16.9378 33.0689 16.94C30.4405 16.9555 28.1044 16.8517 26.0832 14.9451C24.6859 13.4394 24.1227 11.8485 24.0623 9.8036C24.1774 9.30772 24.3342 9.09097 24.7329 8.77807C25.3899 8.45206 26.1428 8.54183 26.8592 8.55761C27.1222 8.55914 27.1222 8.55914 27.3904 8.56071C27.9488 8.56475 28.5071 8.57382 29.0654 8.58302C29.4446 8.58665 29.8238 8.58995 30.203 8.59291C31.1312 8.60087 32.0593 8.61296 32.9875 8.62821C32.9913 8.54676 32.995 8.46531 32.9989 8.38139C33.0164 8.00614 33.0345 7.63092 33.0525 7.2557C33.0613 7.06358 33.0613 7.06358 33.0704 6.86757C33.2713 2.7252 33.2713 2.7252 34.7096 1.22909C36.1947 -0.0699491 38.0822 -0.374003 39.8969 0.483533Z" fill="white"/>
<path d="M18.3834 31.0403C20.1489 31.0403 21.9144 31.0403 23.7334 31.0403C23.7334 33.1875 23.7334 35.3347 23.7334 37.547C25.8806 37.547 28.0278 37.547 30.2401 37.547C30.2401 39.3602 30.2401 41.1734 30.2401 43.0415C28.0929 43.0415 25.9456 43.0415 23.7334 43.0415C23.7334 45.141 23.7334 47.2405 23.7334 49.4036C21.9679 49.4036 20.2024 49.4036 18.3834 49.4036C18.3834 47.2564 18.3834 45.1092 18.3834 42.8969C16.2362 42.8969 14.089 42.8969 11.8767 42.8969C11.8767 41.1315 11.8767 39.366 11.8767 37.547C14.0239 37.547 16.1711 37.547 18.3834 37.547C18.3834 35.3998 18.3834 33.2526 18.3834 31.0403Z" fill="white"/>
<path d="M19.9821 10.9135C20.1424 10.9144 20.3027 10.9154 20.4679 10.9163C20.633 10.9188 20.7982 10.9212 20.9683 10.9237C21.221 10.9256 21.221 10.9256 21.4789 10.9276C21.8931 10.931 22.3073 10.9358 22.7215 10.9418C22.7715 11.1489 22.7715 11.1489 22.8226 11.3603C22.8701 11.5491 22.9178 11.738 22.9655 11.9268C23.0108 12.1096 23.0561 12.2925 23.1027 12.4809C23.3216 13.257 23.676 13.9755 24.0228 14.7012C23.8291 14.7043 23.8291 14.7043 23.6315 14.7076C23.1521 14.7164 22.6727 14.7271 22.1934 14.7391C21.9859 14.7439 21.7785 14.748 21.5711 14.7513C21.2727 14.7561 20.9746 14.7637 20.6763 14.7718C20.4071 14.7775 20.4071 14.7775 20.1325 14.7833C19.6963 14.8139 19.6963 14.8139 19.4108 15.0132C19.1825 15.3944 19.1881 15.7017 19.1773 16.1443C19.1721 16.3125 19.167 16.4807 19.1617 16.654C19.1585 16.8297 19.1552 17.0054 19.1518 17.1864C19.1469 17.3637 19.142 17.5411 19.1369 17.7238C19.1249 18.1622 19.1149 18.6005 19.1067 19.039C18.7423 19.2231 18.3778 19.4068 18.0132 19.5902C17.9113 19.6418 17.8094 19.6933 17.7045 19.7464C15.9464 20.6295 15.9464 20.6295 15.3472 20.6295C15.3256 19.7964 15.3099 18.9635 15.2996 18.1302C15.2952 17.8475 15.2893 17.5648 15.2818 17.2821C15.2263 15.1547 15.3726 13.7762 16.7932 12.0985C17.1354 11.8483 17.1354 11.8483 17.4981 11.6376C17.6764 11.5316 17.6764 11.5316 17.8584 11.4235C18.5691 11.064 19.1856 10.9053 19.9821 10.9135Z" fill="white"/>
<path d="M33.4211 22.6538C35.9161 22.6437 38.411 22.636 40.9059 22.6313C42.0643 22.6291 43.2228 22.6261 44.3812 22.6211C45.3909 22.6168 46.4006 22.614 47.4103 22.613C47.9449 22.6124 48.4795 22.6111 49.0141 22.608C49.611 22.6045 50.2078 22.6044 50.8047 22.6046C50.9819 22.603 51.1591 22.6015 51.3417 22.5999C51.5859 22.6007 51.5859 22.6007 51.835 22.6017C51.9762 22.6013 52.1173 22.6009 52.2628 22.6004C52.7203 22.6632 52.9977 22.8279 53.375 23.0876C53.3273 23.3262 53.2796 23.5648 53.2304 23.8106C52.694 23.9894 52.1927 23.9823 51.6336 23.9876C51.4553 23.9901 51.4553 23.9901 51.2734 23.9926C50.005 24.0089 48.7364 24.0155 47.4679 24.0217C46.8731 24.0248 46.2785 24.0308 45.6838 24.0395C41.9736 24.0924 38.4397 23.9021 34.792 23.1901C34.6858 23.1697 34.5797 23.1493 34.4703 23.1282C33.7454 22.9781 33.7454 22.9781 33.4211 22.6538Z" fill="white"/>
<path d="M37.7591 52.7293C39.7098 52.7192 41.6605 52.7115 43.6112 52.7068C44.5169 52.7045 45.4226 52.7014 46.3284 52.6965C47.2022 52.6918 48.0759 52.6892 48.9497 52.6881C49.2834 52.6873 49.6171 52.6857 49.9507 52.6834C50.4174 52.6803 50.884 52.6798 51.3507 52.68C51.4893 52.6785 51.6278 52.6769 51.7705 52.6753C51.8979 52.6759 52.0252 52.6765 52.1564 52.6771C52.2667 52.6767 52.3771 52.6763 52.4908 52.6759C52.8766 52.7432 53.0813 52.9111 53.3752 53.163C53.3275 53.4016 53.2798 53.6402 53.2306 53.886C52.8204 54.0228 52.5711 54.0485 52.1463 54.048C52.0131 54.0482 51.8799 54.0484 51.7427 54.0486C51.5968 54.0481 51.451 54.0476 51.3008 54.047C51.0701 54.0471 51.0701 54.0471 50.8348 54.0471C50.3254 54.047 49.8161 54.0459 49.3068 54.0447C48.9541 54.0445 48.6013 54.0442 48.2486 54.0441C47.3194 54.0436 46.3902 54.0421 45.461 54.0405C44.5131 54.0391 43.5652 54.0384 42.6174 54.0377C40.757 54.0361 38.8965 54.0336 37.0361 54.0306C37.2747 53.6012 37.5133 53.1717 37.7591 52.7293Z" fill="white"/>
<path d="M39.6388 49.1143C41.3444 49.1077 43.05 49.1025 44.7556 49.0994C45.5476 49.0979 46.3395 49.0958 47.1315 49.0925C47.8955 49.0894 48.6596 49.0877 49.4237 49.0869C49.7154 49.0864 50.0071 49.0853 50.2988 49.0838C50.707 49.0817 51.1151 49.0814 51.5233 49.0815C51.7047 49.08 51.7047 49.08 51.8898 49.0784C52.9024 49.082 52.9024 49.082 53.3752 49.4035C53.2487 50.1084 53.2487 50.1084 53.086 50.2711C52.6591 50.2849 52.2356 50.2892 51.8086 50.2875C51.6746 50.2875 51.5406 50.2876 51.4026 50.2876C50.9574 50.2875 50.5122 50.2863 50.067 50.2852C49.7593 50.2849 49.4515 50.2847 49.1437 50.2846C48.332 50.284 47.5202 50.2826 46.7084 50.281C45.8807 50.2795 45.0531 50.2789 44.2254 50.2782C42.6001 50.2766 40.9749 50.2741 39.3496 50.2711C39.4761 49.4397 39.4761 49.4397 39.6388 49.1143Z" fill="white"/>
<path d="M42.6754 39.5712C43.985 39.5612 45.2947 39.5534 46.6044 39.5487C47.2126 39.5465 47.8207 39.5434 48.4289 39.5385C49.0158 39.5338 49.6026 39.5312 50.1895 39.5301C50.4135 39.5292 50.6374 39.5277 50.8613 39.5253C51.1749 39.5222 51.4885 39.5218 51.8021 39.522C51.9806 39.521 52.1592 39.52 52.3431 39.519C52.8279 39.5748 53.0248 39.6749 53.3753 40.005C53.3301 40.2761 53.3301 40.2761 53.2307 40.5834C52.6982 40.9384 52.4403 40.9076 51.8052 40.9054C51.7051 40.9054 51.6049 40.9055 51.5016 40.9055C51.1707 40.9053 50.8398 40.9031 50.5088 40.9008C50.2793 40.9002 50.0497 40.8998 49.8202 40.8995C49.2161 40.8984 48.6121 40.8956 48.0081 40.8924C47.3917 40.8894 46.7753 40.8881 46.1589 40.8867C44.9495 40.8836 43.7401 40.8786 42.5308 40.8725C42.5785 40.4431 42.6262 40.0137 42.6754 39.5712Z" fill="white"/>
<path d="M43.543 26.4132C44.7395 26.4032 45.9361 26.3955 47.1327 26.3908C47.6884 26.3885 48.244 26.3854 48.7996 26.3805C49.3359 26.3758 49.8721 26.3732 50.4084 26.3721C50.6129 26.3713 50.8175 26.3697 51.022 26.3674C51.3086 26.3642 51.5952 26.3641 51.8818 26.364C52.0449 26.363 52.208 26.3621 52.3761 26.3611C52.8396 26.4185 53.0361 26.5344 53.3753 26.847C53.3301 27.1181 53.3301 27.1181 53.2307 27.4254C52.718 27.7672 52.5056 27.7498 51.8982 27.7474C51.713 27.7474 51.5277 27.7474 51.3369 27.7474C51.1347 27.7459 50.9325 27.7444 50.7303 27.7428C50.5234 27.7423 50.3166 27.7419 50.1097 27.7416C49.5656 27.7405 49.0215 27.7376 48.4774 27.7344C47.922 27.7315 47.3667 27.7302 46.8113 27.7287C45.7218 27.7256 44.6324 27.7207 43.543 27.7146C43.543 27.2851 43.543 26.8557 43.543 26.4132Z" fill="white"/>
<path d="M43.2537 35.9564C44.5306 35.9497 45.8076 35.9446 47.0846 35.9414C47.6775 35.9399 48.2704 35.9379 48.8634 35.9346C49.4353 35.9315 50.0071 35.9297 50.579 35.929C50.7975 35.9284 51.016 35.9274 51.2345 35.9258C51.5399 35.9237 51.8452 35.9234 52.1506 35.9236C52.3246 35.9229 52.4987 35.9223 52.678 35.9216C53.086 35.9564 53.086 35.9564 53.3752 36.2456C53.2949 36.9043 53.2949 36.9043 53.086 37.1132C52.7799 37.1268 52.4734 37.1301 52.167 37.1296C52.0711 37.1296 51.9752 37.1296 51.8763 37.1296C51.5579 37.1295 51.2395 37.1284 50.9211 37.1273C50.7008 37.127 50.4806 37.1268 50.2604 37.1267C49.6796 37.1261 49.0989 37.1247 48.5182 37.1231C47.926 37.1216 47.3339 37.1209 46.7417 37.1202C45.579 37.1187 44.4163 37.1162 43.2537 37.1132C43.2537 36.7314 43.2537 36.3497 43.2537 35.9564Z" fill="white"/>
<path d="M34.1443 22.7983C34.6654 22.7899 35.1865 22.7848 35.7077 22.7803C35.9298 22.7766 35.9298 22.7766 36.1565 22.7729C36.2986 22.772 36.4407 22.7711 36.5871 22.7701C36.7181 22.7686 36.8491 22.7671 36.9841 22.7655C37.3253 22.7983 37.3253 22.7983 37.7591 23.0875C37.7114 23.2307 37.6637 23.3738 37.6145 23.5213C37.1172 23.4569 36.6203 23.3899 36.1234 23.3225C35.9116 23.2951 35.9116 23.2951 35.6956 23.2671C35.56 23.2485 35.4244 23.2299 35.2847 23.2107C35.1597 23.194 35.0348 23.1773 34.9061 23.1602C34.5781 23.0875 34.5781 23.0875 34.1443 22.7983Z" fill="white"/>
<path d="M26.0472 58.6576C26.2731 58.9197 26.2731 58.9197 26.481 59.236C26.4333 59.3791 26.3855 59.5223 26.3364 59.6697C25.6496 59.3986 25.6496 59.3986 25.3242 59.236C25.5628 59.0451 25.8014 58.8542 26.0472 58.6576Z" fill="white"/>
<path d="M15.4915 62.2725C15.4915 62.3679 15.4915 62.4633 15.4915 62.5616C15.6346 62.6094 15.7778 62.6571 15.9252 62.7062C15.7821 62.921 15.7821 62.921 15.6361 63.14C15.3975 62.9014 15.1589 62.6629 14.9131 62.4171C15.2023 62.2725 15.2023 62.2725 15.4915 62.2725Z" fill="white"/>
<path d="M23.1553 60.8265C23.2507 60.8743 23.3461 60.922 23.4445 60.9711C23.4445 61.1143 23.4445 61.2574 23.4445 61.4049C23.1734 61.4953 23.1734 61.4953 22.8661 61.5495C22.7707 61.4541 22.6752 61.3586 22.5769 61.2603C22.7678 61.1172 22.9586 60.974 23.1553 60.8265Z" fill="white"/>
</svg>
