<svg width="46" height="46" viewBox="0 0 46 46" fill="none" xmlns="http://www.w3.org/2000/svg">
<path d="M16.6665 22.008C16.6622 19.6151 18.5989 17.6712 20.9914 17.6671C23.3842 17.6624 25.3284 19.5982 25.3331 21.9916C25.3377 24.3849 23.401 26.3283 21.0078 26.3329C18.6153 26.3375 16.6711 24.4013 16.6665 22.008ZM14.325 22.0126C14.3322 25.6995 17.3265 28.6816 21.0124 28.6744C24.6987 28.6673 27.6825 25.6738 27.6754 21.9869C27.6682 18.3014 24.6735 15.3175 20.9867 15.3247C17.3008 15.3319 14.3179 18.3266 14.325 22.0126ZM26.3655 15.0509C26.3672 15.9119 27.0671 16.609 27.9281 16.6073C28.7894 16.6056 29.4865 15.906 29.4853 15.045C29.4836 14.1841 28.7836 13.4866 27.9222 13.4883C27.0609 13.49 26.3638 14.19 26.3655 15.0509ZM15.7676 32.5908C14.5002 32.5356 13.812 32.325 13.3533 32.1485C12.7459 31.9135 12.3125 31.6317 11.8564 31.179C11.4011 30.7244 11.1184 30.2923 10.8813 29.6861C10.7031 29.2274 10.4887 28.5401 10.4293 27.2727C10.3649 25.9024 10.3501 25.4914 10.3438 22.0202C10.3371 18.5499 10.3497 18.1388 10.4096 16.7673C10.4638 15.5008 10.6757 14.8116 10.8518 14.3534C11.0868 13.7452 11.3678 13.3126 11.8214 12.8565C12.2759 12.4003 12.708 12.1185 13.3145 11.8814C13.7728 11.7023 14.4602 11.4896 15.7272 11.4294C17.0982 11.3645 17.5089 11.3507 20.9792 11.3439C24.4502 11.3371 24.8613 11.3494 26.2328 11.4096C27.4993 11.4648 28.1884 11.6745 28.6463 11.8519C29.254 12.0869 29.6874 12.367 30.1432 12.8215C30.5989 13.276 30.8816 13.7073 31.1187 14.3151C31.2977 14.7721 31.5104 15.4603 31.5703 16.7269C31.6355 18.0979 31.6503 18.509 31.6566 21.9793C31.6633 25.4505 31.6506 25.8616 31.5905 27.2322C31.5353 28.4996 31.3251 29.1883 31.1482 29.6474C30.9131 30.2544 30.6322 30.6878 30.1781 31.144C29.7241 31.5984 29.292 31.8819 28.685 32.119C28.2275 32.2976 27.5393 32.5107 26.2732 32.571C24.9022 32.6354 24.4915 32.6502 21.02 32.6565C17.5497 32.6632 17.1391 32.6502 15.7676 32.5908ZM15.616 9.09002C14.2328 9.15533 13.288 9.37683 12.4624 9.70036C11.6078 10.0335 10.8834 10.48 10.1628 11.2036C9.4412 11.9277 8.99809 12.6534 8.66745 13.5089C8.34738 14.3365 8.13044 15.2817 8.06935 16.6658C8.00872 18.0525 7.9948 18.4947 8.00156 22.0248C8.00831 25.5545 8.02385 25.9976 8.08997 27.3847C8.15608 28.7675 8.37683 29.7118 8.70031 30.5378C9.03389 31.3924 9.47995 32.1165 10.204 32.8376C10.9276 33.5587 11.6538 34.0014 12.5097 34.3325C13.3365 34.6521 14.282 34.8699 15.6657 34.9306C17.0523 34.9917 17.495 35.0051 21.0242 34.9984C24.5551 34.9917 24.9978 34.9761 26.3844 34.9104C27.7677 34.8442 28.7115 34.6227 29.5379 34.3C30.3925 33.9656 31.117 33.5204 31.8377 32.7963C32.5584 32.0727 33.0015 31.3465 33.3321 30.4907C33.6522 29.6638 33.87 28.7182 33.9302 27.3354C33.9908 25.9479 34.0052 25.5048 33.9984 21.9751C33.9917 18.445 33.9757 18.0027 33.91 16.6166C33.8443 15.2325 33.6227 14.2886 33.2997 13.4621C32.9657 12.6075 32.5201 11.8839 31.7964 11.1624C31.0728 10.4417 30.3466 9.99769 29.4908 9.66791C28.6635 9.34779 27.7183 9.12963 26.3347 9.06981C24.9481 9.00832 24.5054 8.99486 20.9749 9.00156C17.4452 9.00832 17.0026 9.02345 15.616 9.09002Z" fill="white"/>
</svg>
