<svg width="85" height="78" viewBox="0 0 85 78" fill="none" xmlns="http://www.w3.org/2000/svg">
<path fill-rule="evenodd" clip-rule="evenodd" d="M45.9374 66.8696H61.043C62.2564 65.7428 63.5871 64.5709 64.9384 63.3797C67.772 60.8749 70.7297 58.2607 73.7701 54.9898C77.2449 51.2487 77.6172 49.9545 78.672 46.2908C78.872 45.6018 79.0926 44.8291 79.3822 43.8697L81.1885 37.9395L81.2092 37.8751C82.1744 35.2351 82.2502 33.4902 81.8504 32.4857C81.7263 32.1767 81.5677 31.9706 81.3815 31.8611C81.2368 31.771 81.0437 31.7388 80.8438 31.7581C80.375 31.8032 79.8441 32.0801 79.3615 32.5759L73.9976 44.5072C73.9494 44.6167 73.8804 44.7197 73.8046 44.8098C73.4874 45.3442 73.06 45.8658 72.5084 46.3616L62.9941 56.2711C62.4771 56.812 61.5877 56.857 61.0154 56.3741C60.4363 55.8912 60.388 55.0606 60.9051 54.5262L70.4263 44.6167C70.4677 44.5716 70.509 44.5265 70.5573 44.4879C71.5432 43.6122 71.8535 42.6657 71.6811 41.9767C71.6259 41.7642 71.5294 41.5839 71.3915 41.4616C71.2605 41.3457 71.0882 41.2749 70.8745 41.2555C70.0264 41.1718 68.7785 41.7578 67.2549 43.4383C67.2135 43.4834 67.1653 43.5285 67.117 43.5735L63.4285 46.6127L63.4078 46.632C59.4159 50.1606 57.6992 50.9976 54.5692 52.5237C53.9142 52.8456 53.1972 53.1933 52.3078 53.644C51.9562 53.8243 51.6115 54.0432 51.2736 54.2815C50.9151 54.539 50.5704 54.803 50.2464 55.0606C48.5917 56.3613 47.723 57.4172 47.2266 58.5827C46.7095 59.7932 46.5234 61.2677 46.2683 63.2895C46.1649 64.1073 46.089 64.9121 46.027 65.717C45.9787 66.1033 45.958 66.4897 45.9374 66.8696ZM42.2282 7.79889C45.9649 4.15446 48.5848 1.00583 54.3554 0.387692C65.1797 -0.771314 75.1352 9.57604 69.6679 19.7624C68.6476 21.6683 66.9308 23.8061 64.8832 26.0082V25.7377H50.8738L50.3774 26.2142L48.1367 28.3713L43.5243 20.0972L41.9937 17.3478L40.5252 20.1294L36.3472 28.0557L32.2037 22.441L30.749 20.4707L29.3976 22.5118L27.4534 25.4415H18.925C16.0225 21.7263 13.9886 17.702 13.8232 13.3621C13.5129 5.42293 20.2212 0.336181 27.9429 0.432765C34.8373 0.516471 37.733 3.72305 42.2282 7.79889ZM62.0703 28.8864C61.8634 29.0924 61.6497 29.2985 61.436 29.5045C57.5889 33.2198 53.3351 36.8642 50.3567 39.6265L42.2282 47.16L35.513 41.1203C31.4177 37.4373 26.0194 33.2777 21.6345 28.5902H29.3149L29.8113 27.8433L30.8937 26.2013L35.2027 32.0414L36.8229 34.2371L38.0846 31.8418L42.0627 24.3019L46.22 31.7581L47.2955 33.6898L48.9157 32.1316L52.2802 28.8928L62.0703 28.8864ZM39.0843 66.8696H23.9717C22.7583 65.7428 21.4277 64.5709 20.0764 63.3797C17.2428 60.8749 14.2851 58.2607 11.2446 54.9898C7.76986 51.2487 7.39756 49.9545 6.34272 46.2908C6.14278 45.6018 5.92216 44.8291 5.63259 43.8697L3.82626 37.9395L3.80557 37.8751C2.84036 35.2351 2.76452 33.4902 3.16439 32.4857C3.28849 32.1767 3.44706 31.9706 3.63321 31.8611C3.778 31.771 3.97104 31.7388 4.17098 31.7581C4.6398 31.8032 5.17067 32.0801 5.65328 32.5759L11.0171 44.5072C11.0654 44.6167 11.1343 44.7197 11.2102 44.8098C11.5273 45.3442 11.9548 45.8658 12.5063 46.3616L22.0206 56.2711C22.5377 56.812 23.4271 56.857 23.9993 56.3741C24.5785 55.8912 24.6267 55.0606 24.1096 54.5262L14.6022 44.6038C14.5609 44.5587 14.5195 44.5136 14.4712 44.475C13.4853 43.5993 13.1751 42.6528 13.3474 41.9638C13.4026 41.7513 13.4991 41.571 13.637 41.4487C13.768 41.3328 13.9404 41.262 14.1541 41.2427C15.0021 41.159 16.2569 41.7449 17.7737 43.4255C17.7737 43.4255 17.9047 43.5478 17.9184 43.5607L21.607 46.5998L21.6276 46.6192C25.6195 50.1477 27.3362 50.9847 30.4663 52.5108C31.1213 52.8327 31.8383 53.1804 32.7276 53.6311C33.0793 53.8114 33.424 54.0304 33.7618 54.2686C34.1203 54.5262 34.465 54.7901 34.7891 55.0477C36.4437 56.3484 37.3124 57.4044 37.8088 58.5698C38.3259 59.7803 38.5121 61.2548 38.7672 63.2766C38.8706 64.0944 38.9464 64.8993 39.0085 65.7041C39.0429 66.1033 39.0636 66.4897 39.0843 66.8696ZM20.4556 67.3203C20.2419 67.5521 20.1109 67.8547 20.1109 68.1831V76C20.1109 76.7276 20.7452 77.3135 21.5173 77.3135H40.5321C41.3112 77.3135 41.9386 76.7211 41.9386 76V68.1058C41.9386 67.2688 41.8834 66.3673 41.8214 65.5303C41.7593 64.6739 41.6766 63.824 41.5732 62.9805C41.2974 60.7719 41.0906 59.1557 40.4287 57.604C39.7462 56.0135 38.65 54.6421 36.6161 53.0388C36.2438 52.7426 35.8646 52.4464 35.4647 52.1695C35.0442 51.8733 34.5891 51.59 34.079 51.326C33.2516 50.9075 32.4795 50.5276 31.7762 50.1799C28.8806 48.7633 27.2948 47.9906 23.565 44.6939C23.5374 44.6682 23.5029 44.6424 23.4753 44.6231L19.8765 41.6548C17.6771 39.253 15.5261 38.4546 13.8783 38.622H13.8714C13.0648 38.6993 12.3753 38.9955 11.8238 39.4462L8.19042 31.3589H8.18353C8.12837 31.243 8.05943 31.1335 7.9698 31.0305C6.95632 29.9166 5.68085 29.2598 4.45365 29.1439C3.61942 29.0667 2.81278 29.2341 2.10955 29.659C1.44079 30.0647 0.889236 30.6957 0.544515 31.565C-0.0621938 33.0781 -0.048405 35.4283 1.13743 38.68L2.92998 44.5716C3.19197 45.4215 3.41949 46.2393 3.63321 46.9604C4.80526 51.0491 5.21893 52.4979 9.12806 56.6961C12.2237 60.025 15.2503 62.7036 18.1597 65.2663C18.925 65.9552 19.6834 66.6249 20.4556 67.3203ZM23.1444 69.4967C23.3306 69.5353 23.5236 69.5353 23.7167 69.4967H39.1188V74.6864H22.9238V69.4967H23.1444ZM64.5661 67.3203C64.7798 67.5521 64.9108 67.8547 64.9108 68.1831V76C64.9108 76.7276 64.2834 77.3135 63.5043 77.3135H44.4964C43.7173 77.3135 43.09 76.7211 43.09 76V68.1058C43.09 68.0608 43.09 68.0093 43.0969 67.9642C43.1175 67.1207 43.152 66.3029 43.2072 65.5303C43.2692 64.6739 43.3519 63.824 43.4554 62.9805C43.7311 60.7719 43.938 59.1557 44.5998 57.604C45.2824 56.0135 46.3786 54.6421 48.4124 53.0388C48.7847 52.7426 49.1639 52.4464 49.5638 52.1695C49.9844 51.8733 50.4394 51.59 50.9496 51.326C51.7769 50.9075 52.5491 50.5276 53.2523 50.1799C56.148 48.7633 57.7337 47.9906 61.4636 44.6939C61.4912 44.6682 61.5256 44.6424 61.5532 44.6231L65.1521 41.6548C67.3514 39.253 69.5025 38.4546 71.1502 38.622H71.1571C71.9638 38.6993 72.6532 38.9955 73.2048 39.4462L76.8381 31.3589H76.845C76.9002 31.243 76.9691 31.1335 77.0587 31.0305C78.0653 29.9037 79.3408 29.2469 80.5611 29.131C81.3953 29.0538 82.202 29.2212 82.9052 29.6462C83.574 30.0518 84.1255 30.6828 84.4702 31.5521C85.077 33.0652 85.0632 35.4154 83.8773 38.6671L82.0848 44.5587C81.8228 45.4086 81.5953 46.2264 81.3815 46.9475C80.2095 51.0363 79.7958 52.485 75.8867 56.6832C72.7911 60.0121 69.7645 62.6907 66.855 65.2534C66.0966 65.9552 65.3382 66.6249 64.5661 67.3203ZM61.8772 69.4967C61.6911 69.5353 61.498 69.5353 61.305 69.4967H45.9029V74.6864H62.0979V69.4967H61.8772Z" fill="white"/>
</svg>
