<svg width="63" height="63" viewBox="0 0 63 63" fill="none" xmlns="http://www.w3.org/2000/svg">
<path fill-rule="evenodd" clip-rule="evenodd" d="M6.17651 30.5201H16.4006V48.7118H6.17651V30.5201ZM43.6842 20.7777C44.6966 20.7769 45.6866 21.0764 46.5288 21.6383C47.371 22.2002 48.0277 22.9993 48.4157 23.9344C48.8037 24.8696 48.9057 25.8988 48.7087 26.8919C48.5116 27.885 48.0245 28.7974 47.3089 29.5136C46.5932 30.2298 45.6813 30.7177 44.6883 30.9155C43.6954 31.1133 42.666 31.0122 41.7306 30.625C40.7951 30.2377 39.9955 29.5817 39.4329 28.7399C38.8703 27.8981 38.57 26.9084 38.57 25.8959C38.5711 24.5395 39.1102 23.239 40.0689 22.2795C41.0276 21.32 42.3278 20.7799 43.6842 20.7777ZM43.6842 18.1259C45.4807 18.1257 47.2218 18.7484 48.6107 19.888C49.9997 21.0275 50.9505 22.6133 51.3014 24.3753C51.6522 26.1373 51.3813 27.9664 50.5348 29.551C49.6883 31.1356 48.3185 32.3777 46.6589 33.0657C44.9993 33.7537 43.1525 33.845 41.4331 33.324C39.7137 32.8031 38.2282 31.7021 37.2295 30.2087C36.2308 28.7153 35.7808 26.9218 35.9562 25.1338C36.1316 23.3458 36.9214 21.6739 38.1912 20.403C38.9111 19.679 39.767 19.1044 40.7096 18.7122C41.6523 18.32 42.6632 18.118 43.6842 18.1177V18.1259ZM48.6542 20.9259C47.5048 19.7772 45.9926 19.0624 44.3754 18.9035C42.7581 18.7445 41.1357 19.1512 39.7847 20.0542C38.4336 20.9573 37.4375 22.3008 36.9659 23.8559C36.4943 25.4111 36.5764 27.0816 37.1984 28.5829C37.8203 30.0843 38.9435 31.3235 40.3767 32.0896C41.8098 32.8557 43.4643 33.1012 45.0581 32.7843C46.652 32.4674 48.0867 31.6077 49.1178 30.3517C50.1489 29.0957 50.7126 27.521 50.713 25.8959C50.7145 24.9727 50.5334 24.0582 50.1801 23.2053C49.8267 22.3523 49.3081 21.5776 48.6542 20.9259ZM43.3383 28.6136C43.19 28.6 43.0428 28.5766 42.8977 28.5436C42.6132 28.4847 42.3367 28.3921 42.0742 28.2677C41.8336 28.1588 41.6125 28.0114 41.4195 27.8312L42.0453 26.5959C42.2006 26.7521 42.3817 26.8803 42.5806 26.9748C42.7952 27.0844 43.0218 27.1687 43.2559 27.2259C43.4549 27.279 43.6595 27.3081 43.8653 27.3124C44.0131 27.3183 44.1607 27.2988 44.3018 27.2548C44.3466 27.2403 44.3854 27.2115 44.4122 27.1728C44.439 27.1341 44.4523 27.0877 44.45 27.0406C44.4481 27.002 44.4356 26.9646 44.4138 26.9326C44.392 26.9007 44.3618 26.8753 44.3265 26.8595C44.2072 26.8001 44.0815 26.7545 43.9518 26.7236L43.05 26.4724C42.8098 26.4071 42.5787 26.3116 42.3624 26.1883C42.1481 26.0743 41.9655 25.9087 41.8312 25.7065C41.6896 25.4844 41.6192 25.2244 41.6295 24.9612C41.6228 24.6225 41.7112 24.2887 41.8847 23.9977C42.0645 23.7174 42.3221 23.4957 42.6259 23.3595C42.8486 23.2565 43.0863 23.1898 43.33 23.1618V22.4865H44.2689V23.1742C44.5191 23.2007 44.7652 23.2574 45.0018 23.343C45.3477 23.4647 45.6645 23.6568 45.9324 23.9071L45.3147 25.0395C45.096 24.8633 44.8552 24.7165 44.5983 24.603C44.3255 24.4849 44.0308 24.426 43.7336 24.4301C43.6076 24.4274 43.4818 24.4398 43.3589 24.4671C43.2807 24.4838 43.2083 24.5207 43.1489 24.5742C43.1285 24.5947 43.1126 24.6192 43.102 24.6461C43.0914 24.673 43.0863 24.7017 43.0871 24.7306C43.0876 24.7708 43.1005 24.8098 43.1241 24.8422C43.1477 24.8747 43.1808 24.899 43.2189 24.9118C43.3976 24.9881 43.5821 25.0501 43.7706 25.0971L44.413 25.2618C44.8053 25.3456 45.1714 25.5237 45.4795 25.7806C45.6078 25.9088 45.7073 26.0629 45.7712 26.2326C45.8351 26.4024 45.862 26.5838 45.85 26.7648C45.8671 27.1412 45.771 27.5141 45.5742 27.8353C45.3962 28.1113 45.1374 28.3256 44.833 28.4489C44.654 28.5213 44.4676 28.5737 44.2771 28.6053V29.3095H43.3383V28.6136ZM18.4595 47.1842V31.9818H25.2989C28.1812 32.5006 31.0965 34.0736 33.9953 35.8977H39.3071C41.7118 36.0418 42.9677 38.4795 40.633 40.0812C38.7718 41.4442 36.3136 41.3701 33.7977 41.1436C32.06 41.0571 31.9818 43.3918 33.7977 43.4001C34.4236 43.4495 35.1071 43.3012 35.7083 43.3012C38.85 43.3012 41.44 42.6959 43.0253 40.213L43.82 38.3559L51.7218 34.4359C55.6747 33.1348 58.483 37.273 55.5718 40.1471C50.0625 44.1704 44.1689 47.6392 37.9771 50.503C33.6206 53.1548 29.26 53.0642 24.8995 50.503L18.4595 47.1842ZM29.1653 12.9624C30.0033 12.9624 30.8225 13.2109 31.5193 13.6765C32.2161 14.1421 32.7592 14.8038 33.0799 15.578C33.4006 16.3522 33.4845 17.2042 33.321 18.0261C33.1575 18.848 32.754 19.603 32.1614 20.1955C31.5688 20.7881 30.8139 21.1916 29.9919 21.3551C29.17 21.5186 28.3181 21.4347 27.5439 21.114C26.7697 20.7933 26.1079 20.2502 25.6424 19.5534C25.1768 18.8567 24.9283 18.0375 24.9283 17.1995C24.9283 16.0757 25.3747 14.998 26.1693 14.2034C26.9639 13.4088 28.0416 12.9624 29.1653 12.9624ZM29.1653 10.7059C30.6677 10.7057 32.1236 11.2264 33.285 12.1794C34.4464 13.1323 35.2415 14.4584 35.5348 15.9318C35.8281 17.4053 35.6014 18.9348 34.8934 20.2598C34.1853 21.5848 33.0398 22.6233 31.6519 23.1984C30.264 23.7735 28.7196 23.8495 27.2819 23.4136C25.8443 22.9777 24.6022 22.0567 23.7674 20.8076C22.9327 19.5586 22.5568 18.0587 22.7039 16.5636C22.851 15.0685 23.512 13.6707 24.5742 12.6083C25.1768 12.0049 25.8925 11.5263 26.6803 11.1999C27.4681 10.8735 28.3126 10.7056 29.1653 10.7059ZM33.2295 13.1312C32.2892 12.1942 31.0532 11.612 29.732 11.4839C28.4107 11.3557 27.0859 11.6894 25.983 12.4282C24.8802 13.167 24.0675 14.2652 23.6833 15.5359C23.2992 16.8065 23.3673 18.171 23.8761 19.3971C24.3849 20.6232 25.3029 21.635 26.4738 22.2603C27.6448 22.8856 28.9962 23.0857 30.2982 22.8266C31.6001 22.5675 32.7719 21.8651 33.6142 20.8391C34.4565 19.8131 34.9171 18.5269 34.9177 17.1995C34.9189 16.4435 34.7704 15.6947 34.4806 14.9964C34.1908 14.2982 33.7656 13.6642 33.2295 13.1312ZM28.8771 19.4518C28.7577 19.4518 28.6342 19.4189 28.5147 19.3942C28.2804 19.3429 28.0525 19.2655 27.8353 19.1636C27.637 19.0725 27.4537 18.9517 27.2918 18.8053L27.8147 17.7965C27.9423 17.9256 28.0914 18.0315 28.2553 18.1095C28.4339 18.1993 28.6217 18.2697 28.8153 18.3195C28.9797 18.3614 29.1482 18.3849 29.3177 18.3895C29.4401 18.3939 29.5625 18.3786 29.68 18.3442C29.7176 18.3316 29.75 18.3071 29.7723 18.2744C29.7946 18.2417 29.8056 18.2025 29.8036 18.163C29.8027 18.1309 29.7925 18.0999 29.7742 18.0735C29.7559 18.0472 29.7304 18.0268 29.7006 18.0148C29.6027 17.964 29.499 17.9253 29.3918 17.8995L28.6424 17.7059C28.4438 17.652 28.2529 17.5732 28.0742 17.4712C27.8955 17.3725 27.7442 17.231 27.6336 17.0595C27.5175 16.8749 27.4601 16.6596 27.4689 16.4418C27.4637 16.1625 27.5364 15.8874 27.6789 15.6471C27.8277 15.4129 28.0427 15.2281 28.2965 15.1159C28.4808 15.0334 28.6766 14.9792 28.8771 14.9553V14.3748H29.6471V14.943C29.8535 14.9668 30.0565 15.0138 30.2524 15.083C30.5392 15.1863 30.8024 15.3459 31.0265 15.5524L30.52 16.4706C30.3381 16.3259 30.1389 16.2042 29.9271 16.1083C29.7001 16.0138 29.4564 15.9662 29.2106 15.9683C29.1067 15.9662 29.003 15.9773 28.9018 16.0012C28.8373 16.0137 28.7775 16.0436 28.7289 16.0877C28.7116 16.1041 28.698 16.124 28.6888 16.1459C28.6796 16.1679 28.675 16.1915 28.6753 16.2153C28.6766 16.2489 28.6879 16.2814 28.7077 16.3085C28.7275 16.3356 28.7549 16.3562 28.7865 16.3677C28.9344 16.431 29.0873 16.4819 29.2436 16.5201L29.7747 16.6601C30.0991 16.7229 30.403 16.8643 30.66 17.0718C30.7651 17.1801 30.8459 17.3096 30.897 17.4516C30.9482 17.5936 30.9684 17.7449 30.9565 17.8953C30.9704 18.2077 30.8916 18.5171 30.73 18.7848C30.5784 19.0106 30.3636 19.1868 30.1124 19.2912C29.9656 19.3516 29.8122 19.3944 29.6553 19.4189V20.0036H28.8771V19.4518Z" fill="#ffffff"/>
</svg>
