<svg width="51" height="57" viewBox="0 0 51 57" fill="none" xmlns="http://www.w3.org/2000/svg">
<path d="M21.833 0.274655C22.4086 0.749234 22.8925 1.25314 23.3845 1.81325C24.0088 2.45458 24.4932 2.78672 25.3987 2.82187C26.3899 2.70039 27.1307 2.55208 28.0545 2.13794C29.0663 1.72574 29.6275 1.77598 30.6758 2.0432C31.1811 2.54849 31.1811 2.54849 31.3074 3.33802C30.9861 5.82777 28.4339 7.55677 26.6334 9.11736C26.394 9.30105 26.1546 9.48473 25.908 9.67398C25.7305 9.82379 25.553 9.9736 25.3701 10.128C25.3701 10.2947 25.3701 10.4615 25.3701 10.6333C25.7373 10.9945 25.7373 10.9945 26.2228 11.3754C30.3559 14.9118 34.8652 20.6918 35.4761 26.2975C35.6433 28.7583 35.7823 31.1953 34.4655 33.3716C34.3515 33.5618 34.2375 33.752 34.1201 33.948C31.7146 37.4425 27.5103 39.0319 23.5009 39.8142C18.8493 40.46 13.7635 39.7102 9.81644 37.0508C7.52507 35.2939 5.68728 33.2737 5.15823 30.3399C4.7914 23.9554 7.68997 18.8214 11.8376 14.1388C13.0246 12.8469 14.2648 11.6091 15.5168 10.3806C15.4086 10.2801 15.3005 10.1795 15.189 10.076C14.6927 9.61456 14.1968 9.15279 13.7009 8.69102C13.5307 8.5329 13.3606 8.37478 13.1853 8.21187C9.53369 4.80968 9.53369 4.80968 9.32693 3.5433C9.45326 2.80114 9.45326 2.80114 9.84802 2.18531C10.4639 1.79055 10.4639 1.79055 11.3008 1.80634C12.2324 2.0432 12.2324 2.0432 13.1167 2.43796C14.0971 2.84062 14.72 2.91775 15.7695 2.80114C16.8718 2.32064 17.7061 1.46747 18.5822 0.65955C19.566 -0.143144 20.6754 -0.138056 21.833 0.274655Z" fill="white"/>
<path d="M19.2119 42.2016C20.2283 42.6513 21.112 42.7528 22.221 42.773C22.4879 42.7801 22.7548 42.7873 23.0297 42.7947C23.5909 42.8079 24.1521 42.8191 24.7134 42.8282C25.1133 42.84 25.1133 42.84 25.5212 42.8519C25.8866 42.8594 25.8866 42.8594 26.2595 42.8671C26.8861 42.9723 26.8861 42.9723 27.3513 43.2986C27.7837 43.9362 27.6623 44.4983 27.5345 45.2304C27.3024 46.0756 26.9598 46.6121 26.3808 47.2674C24.962 48.0301 23.7759 48.1397 22.1825 48.1457C21.9557 48.1497 21.7288 48.1536 21.4951 48.1576C20.7762 48.1696 20.0572 48.1766 19.3382 48.1832C18.6138 48.1924 17.8894 48.2027 17.165 48.2142C16.7154 48.2211 16.2658 48.2265 15.8162 48.2303C14.8291 48.1453 14.8291 48.1453 14.001 48.5306C13.9589 49.2886 13.9589 49.2886 14.001 50.0465C14.5505 50.596 15.8371 50.3469 16.6015 50.3505C16.8387 50.3519 17.0759 50.3534 17.3202 50.3548C17.8238 50.3572 18.3274 50.3589 18.831 50.3598C19.599 50.3623 20.3669 50.3701 21.1349 50.3781C21.6239 50.3798 22.1129 50.3811 22.6019 50.3821C22.8309 50.3852 23.0599 50.3883 23.2959 50.3915C25.0033 50.3855 26.0288 50.0851 27.3301 48.9146C27.5675 48.6703 27.803 48.4241 28.0368 48.1763C28.299 47.907 28.5612 47.6378 28.8234 47.3685C29.2288 46.9474 29.6333 46.5255 30.0372 46.1029C33.2874 42.713 33.2874 42.713 35.4988 42.3328C37.5427 42.3552 39.0316 42.7274 40.6712 43.9671C41.1353 44.633 41.1291 44.9512 41.0344 45.7515C40.6644 46.2802 40.6644 46.2802 40.1388 46.8065C39.943 47.0055 39.7472 47.2045 39.5454 47.4095C39.2234 47.7265 39.2234 47.7265 38.8948 48.05C38.5655 48.3802 38.5655 48.3802 38.2296 48.717C37.6445 49.3018 37.0566 49.8834 36.4675 50.464C35.8741 51.0516 35.2869 51.6454 34.6985 52.2379C34.2448 52.6898 33.7909 53.1413 33.3365 53.5925C33.1259 53.8043 32.9153 54.0162 32.6983 54.2345C32.4961 54.4327 32.2939 54.6309 32.0856 54.835C31.9106 55.0085 31.7355 55.182 31.5552 55.3607C29.8038 56.7487 28.323 57.016 26.1155 56.9948C25.8429 56.9961 25.5703 56.9975 25.2894 56.9989C24.3935 57.0021 23.4978 56.9979 22.6019 56.9934C21.9779 56.9934 21.3538 56.9938 20.7298 56.9945C19.4247 56.9948 18.1198 56.9917 16.8147 56.9859C15.1399 56.9787 13.4651 56.9794 11.7902 56.9826C10.503 56.9844 9.21587 56.9824 7.92867 56.9793C7.31086 56.9781 6.69306 56.9781 6.07526 56.979C5.21397 56.9798 4.35285 56.9756 3.49158 56.9701C3.23525 56.9712 2.97892 56.9724 2.71482 56.9735C2.36369 56.9698 2.36369 56.9698 2.00547 56.966C1.80198 56.9654 1.5985 56.9647 1.38885 56.9641C0.733498 56.8443 0.508832 56.6307 0.105314 56.1101C0.00906723 55.602 0.00906723 55.602 0.0072399 55.0156C0.00485073 54.7955 0.00246157 54.5755 0 54.3487C0.00153426 54.1119 0.00306852 53.875 0.00464927 53.631C0.00392412 53.3871 0.00319897 53.1432 0.00245185 52.8919C0.00193604 52.3763 0.00333484 51.8607 0.00649972 51.345C0.0105553 50.5548 0.00653871 49.7649 0.00168854 48.9747C0.00218939 48.474 0.00316048 47.9733 0.00464927 47.4726C0.00311501 47.2358 0.00158075 46.9989 0 46.7549C0.00238917 46.5348 0.00477834 46.3147 0.0072399 46.088C0.00784292 45.8945 0.00844594 45.701 0.00906723 45.5016C0.130846 44.8587 0.352828 44.633 0.86326 44.2356C1.38996 44.1495 1.38996 44.1495 1.98735 44.1616C2.20148 44.164 2.41562 44.1664 2.63624 44.169C2.97015 44.1785 2.97015 44.1785 3.3108 44.1882C3.53633 44.1916 3.76186 44.195 3.99423 44.1986C4.55084 44.2075 5.10713 44.22 5.66359 44.2356C5.65154 44.0457 5.63949 43.8558 5.62707 43.6602C5.67847 42.692 6.02446 42.3096 6.6732 41.6203C10.3476 38.5977 15.4699 40.403 19.2119 42.2016Z" fill="white"/>
<path d="M21.8329 0.274655C22.4085 0.749234 22.8924 1.25314 23.3844 1.81325C24.0086 2.45458 24.4931 2.78672 25.3986 2.82187C26.3898 2.70039 27.1306 2.55208 28.0544 2.13794C29.0662 1.72574 29.6273 1.77598 30.6756 2.0432C31.1809 2.54849 31.1809 2.54849 31.3073 3.33802C30.986 5.82777 28.4338 7.55677 26.6333 9.11736C26.4536 9.29239 26.2738 9.46743 26.0887 9.64776C25.1585 10.2693 24.3304 10.3203 23.2442 10.3619C22.9371 10.3762 22.9371 10.3762 22.6239 10.3909C22.1912 10.4089 21.7584 10.4242 21.3255 10.437C20.6707 10.4593 20.0186 10.4993 19.3647 10.54C17.3067 10.6306 15.8194 10.6647 14.1508 9.30389C13.7566 8.91211 13.3693 8.51325 12.9902 8.10677C12.5832 7.75525 12.1731 7.40718 11.7586 7.06459C10.621 6.03528 9.58765 5.07918 9.31104 3.51172C9.45315 2.80114 9.45315 2.80114 9.84791 2.18531C10.4637 1.79055 10.4637 1.79055 11.3006 1.80634C12.2323 2.0432 12.2323 2.0432 13.1166 2.43796C14.097 2.84062 14.7199 2.91775 15.7694 2.80114C16.8717 2.32064 17.706 1.46747 18.5821 0.65955C19.5659 -0.143144 20.6753 -0.138056 21.8329 0.274655Z" fill="white"/>
<path d="M15.7695 16.9495C19.1045 16.9495 22.4394 16.9495 25.8755 16.9495C25.3702 18.2127 25.3702 18.2127 24.8649 18.718C24.3181 18.8226 24.3181 18.8226 23.6964 18.8759C23.4899 18.8948 23.2834 18.9137 23.0707 18.9332C22.9124 18.9455 22.7541 18.9579 22.591 18.9707C22.6744 19.3875 22.7578 19.8044 22.8437 20.2339C23.8442 20.2339 24.8447 20.2339 25.8755 20.2339C25.4965 20.9918 25.4965 20.9918 24.8649 21.7498C24.1457 21.8898 23.584 21.8238 22.8437 21.7498C22.8437 21.9634 22.8437 22.1771 22.8437 22.3972C22.4709 23.6787 21.6304 24.2715 20.5698 25.0342C19.6741 25.5133 19.0448 25.5545 18.0433 25.5395C18.9066 26.6786 19.7936 27.7957 20.708 28.894C20.9461 29.1803 20.9461 29.1803 21.189 29.4724C21.5112 29.8589 21.8343 30.2446 22.1584 30.6294C22.3083 30.8094 22.4583 30.9894 22.6127 31.1748C22.7483 31.3363 22.8839 31.4978 23.0237 31.6642C23.349 32.1084 23.349 32.1084 23.6016 32.8663C22.7073 33.0512 21.9659 33.0872 21.0751 32.8663C20.1648 32.0543 19.5128 31.0728 18.8013 30.0872C18.4076 29.6342 18.0078 29.1865 17.6012 28.745C17.4152 28.5388 17.2293 28.3327 17.0377 28.1203C16.7303 27.7832 16.42 27.4487 16.1041 27.1196C15.4999 26.4644 15.2683 26.1513 15.2336 25.2434C15.2488 24.8898 15.2488 24.8898 15.2642 24.5289C15.4837 24.5012 15.7032 24.4736 15.9294 24.445C18.1167 24.2004 18.1167 24.2004 20.0645 23.2657C20.2313 22.8488 20.398 22.4319 20.5698 22.0024C17.6934 21.8774 17.6934 21.8774 14.7589 21.7498C15.7695 20.2339 15.7695 20.2339 16.3017 20.0386C16.4869 20.036 16.6722 20.0333 16.863 20.0306C17.1659 20.0208 17.1659 20.0208 17.4749 20.0109C17.6833 20.0115 17.8918 20.0122 18.1065 20.0128C18.3189 20.0076 18.5312 20.0024 18.75 19.997C19.2723 19.9852 19.7948 19.9823 20.3172 19.9812C19.2946 18.8613 18.1737 18.9053 16.7327 18.8285C16.5433 18.8176 16.354 18.8067 16.1588 18.7955C15.6923 18.7687 15.2256 18.7432 14.7589 18.718C15.0924 18.1344 15.4259 17.5508 15.7695 16.9495Z" fill="#74AB5A"/>
<path d="M0.610723 44.4883C2.19483 44.4883 3.77894 44.4883 5.41105 44.4883C5.41105 48.5736 5.41105 52.6589 5.41105 56.8681C3.91032 56.8681 2.40958 56.8681 0.863372 56.8681C0.105425 56.1101 0.105425 56.1101 0.0108787 55.6004C0.0110377 55.4061 0.0111967 55.2118 0.0113606 55.0116C0.00978688 54.7908 0.00821318 54.5699 0.0065918 54.3423C0.00891863 54.1047 0.0112455 53.867 0.0136428 53.6221C0.0135169 53.3777 0.0133909 53.1332 0.0132611 52.8813C0.0138525 52.3646 0.0163099 51.8479 0.0204895 51.3312C0.0264561 50.5383 0.0256834 49.7455 0.0240053 48.9526C0.0254141 48.451 0.0272102 47.9495 0.0294333 47.448C0.0292031 47.2098 0.0289728 46.9717 0.0287356 46.7263C0.0311438 46.5062 0.0335521 46.2861 0.0360333 46.0594C0.0371974 45.8653 0.0383614 45.6712 0.0395607 45.4713C0.105425 44.9936 0.105425 44.9936 0.610723 44.4883Z" fill="white"/>
<path d="M39.1187 28.506C39.4652 28.5037 39.4652 28.5037 39.8187 28.5012C40.0687 28.5022 40.3188 28.5033 40.5764 28.5043C40.8324 28.5038 41.0884 28.5034 41.3523 28.5029C41.8943 28.5025 42.4363 28.5034 42.9782 28.5056C43.81 28.5083 44.6416 28.5056 45.4734 28.5023C45.9991 28.5027 46.5248 28.5033 47.0505 28.5043C47.3005 28.5033 47.5505 28.5023 47.8081 28.5012C48.0391 28.5028 48.2701 28.5044 48.5081 28.506C48.8139 28.5067 48.8139 28.5067 49.1258 28.5073C49.6243 28.5714 49.6243 28.5714 50.1296 29.0767C50.1928 29.7083 50.1928 29.7083 50.1296 30.34C49.5129 30.9568 49.3538 30.909 48.5081 30.9107C48.1616 30.913 48.1616 30.913 47.8081 30.9155C47.4331 30.9139 47.4331 30.9139 47.0505 30.9124C46.7944 30.9129 46.5384 30.9133 46.2746 30.9138C45.7326 30.9142 45.1906 30.9133 44.6486 30.9111C43.8168 30.9084 42.9852 30.9111 42.1534 30.9144C41.6277 30.914 41.1021 30.9134 40.5764 30.9124C40.3263 30.9134 40.0763 30.9144 39.8187 30.9155C39.5877 30.9139 39.3567 30.9123 39.1187 30.9107C38.9149 30.9102 38.7111 30.9098 38.5011 30.9094C38.0025 30.8453 38.0025 30.8453 37.4972 30.34C37.434 29.7083 37.434 29.7083 37.4972 29.0767C38.114 28.4599 38.273 28.5077 39.1187 28.506Z" fill="white"/>
<path d="M39.3605 20.1668C39.6301 20.1661 39.8998 20.1655 40.1776 20.1648C40.6017 20.1677 40.6017 20.1677 41.0343 20.1707C41.317 20.1687 41.5997 20.1668 41.8909 20.1648C42.1606 20.1654 42.4302 20.1661 42.7081 20.1668C42.9562 20.1673 43.2044 20.1679 43.4601 20.1685C44.0661 20.2339 44.0661 20.2339 44.5714 20.7392C44.6345 21.3708 44.6345 21.3708 44.5714 22.0024C43.9123 22.6615 43.6251 22.5727 42.7081 22.5748C42.4384 22.5755 42.1688 22.5761 41.8909 22.5768C41.4669 22.5739 41.4669 22.5739 41.0343 22.5709C40.7516 22.5728 40.4689 22.5748 40.1776 22.5768C39.908 22.5761 39.6383 22.5755 39.3605 22.5748C39.1123 22.5742 38.8641 22.5737 38.6085 22.5731C38.0025 22.5077 38.0025 22.5077 37.4972 22.0024C37.434 21.3708 37.434 21.3708 37.4972 20.7392C38.1563 20.0801 38.4435 20.1689 39.3605 20.1668Z" fill="white"/>
<path d="M40.892 37.1139C41.1879 37.1108 41.4838 37.1077 41.7886 37.1045C42.0709 37.104 42.3531 37.1035 42.6438 37.103C42.9042 37.102 43.1645 37.1009 43.4328 37.0999C44.0659 37.1613 44.0659 37.1613 44.5712 37.6665C44.4309 38.8175 44.4309 38.8175 44.0659 39.1824C43.6007 39.2076 43.1344 39.2155 42.6685 39.216C42.3855 39.2163 42.1024 39.2166 41.8109 39.217C41.5129 39.216 41.2149 39.215 40.9078 39.214C40.4608 39.2155 40.4608 39.2155 40.0048 39.217C39.5803 39.2165 39.5803 39.2165 39.1472 39.216C38.8855 39.2157 38.6238 39.2154 38.3542 39.2151C37.7497 39.1824 37.7497 39.1824 37.4971 38.9298C37.4655 38.1718 37.4655 38.1718 37.4971 37.4139C38.1513 36.7597 40.0114 37.1144 40.892 37.1139Z" fill="white"/>
</svg>
