<svg width="25" height="18" viewBox="0 0 25 18" fill="none" xmlns="http://www.w3.org/2000/svg">
<g clip-path="url(#clip0_230_889)">
<path d="M1.43393 0H23.5663C23.9608 0 24.3193 0.160846 24.5789 0.419132C24.8387 0.677823 25 1.03537 25 1.42776V16.5722C25 16.8682 24.9082 17.1439 24.7516 17.3726C24.7229 17.4466 24.6781 17.5154 24.6169 17.574C24.576 17.6123 24.531 17.6437 24.4834 17.6674C24.2342 17.8742 23.914 18.0002 23.5663 18.0002H1.43393C1.03984 18.0002 0.680954 17.8396 0.420943 17.5809C0.161541 17.3224 0 16.9654 0 16.5722V1.42776C0 1.03456 0.161134 0.677418 0.420739 0.419132C0.680344 0.160441 1.03903 0 1.43393 0ZM1.09986 15.9716L8.85627 8.22909L1.09986 1.93218V15.9716ZM9.71057 8.92251L1.71388 16.9049H23.219L15.5769 8.92373L13.0576 11.0611C12.86 11.2293 12.5642 11.2388 12.355 11.0698L9.71057 8.92251ZM16.4133 8.2143L23.9001 16.0334V1.86331L16.4133 8.2143ZM1.80401 1.09513L12.693 9.9354L23.1144 1.09513H1.80401Z" fill="white"/>
</g>
<defs>
<clipPath id="clip0_230_889">
<rect width="25" height="18" fill="white"/>
</clipPath>
</defs>
</svg>
