<svg width="55" height="59" viewBox="0 0 55 59" fill="none" xmlns="http://www.w3.org/2000/svg">
<path d="M20.3762 7.7323C20.3762 11.9956 23.8451 15.4646 28.1094 15.4646C32.3736 15.4646 35.8417 11.9956 35.8417 7.7323C35.8417 3.46898 32.3718 0 28.1085 0C23.8451 0 20.3752 3.46806 20.3752 7.7323H20.3762ZM34.1351 7.7323C34.1351 11.0157 31.4741 13.6776 28.1898 13.6776C24.9055 13.6776 22.2455 11.0157 22.2455 7.7323C22.2455 4.44888 24.9073 1.78705 28.1898 1.78705C31.4723 1.78705 34.1351 4.44888 34.1351 7.7323Z" fill="white"/>
<path d="M27.9795 12.2681H28.6605C28.8653 12.2681 29.0307 12.1017 29.0307 11.8969V11.2653C29.5774 11.1849 30.0518 11.0139 30.4531 10.7498C31.0884 10.3302 31.4147 9.7534 31.4284 9.01482C31.4357 8.55594 31.3105 8.16471 31.0445 7.84295C30.6149 7.33015 29.943 7.0093 29.0307 6.88133V5.59977C29.1907 5.67564 29.347 5.77619 29.496 5.90508C29.5874 5.98095 29.6925 6.02025 29.8141 6.02025C29.911 6.02025 30.0445 5.95261 30.0445 5.95261H30.0481L30.8114 5.47363C30.9156 5.4069 30.9668 5.3228 30.9704 5.22042C30.9714 5.13907 30.9384 5.06686 30.869 5.00561C30.3946 4.46447 29.7821 4.129 29.0317 3.99828V3.27706C29.0317 3.07231 28.8653 2.90503 28.6614 2.90503H27.9804C27.7757 2.90503 27.6093 3.07231 27.6093 3.27706V3.97909C27.2565 4.02753 26.9384 4.11711 26.6568 4.24692C25.74 4.66374 25.2921 5.28807 25.3067 6.11532C25.3131 6.52209 25.4365 6.88316 25.6724 7.19669C26.07 7.73052 26.7172 8.06508 27.6093 8.20219V9.80185C27.2245 9.66565 26.8598 9.41153 26.517 9.0395C26.4411 8.94078 26.3397 8.89324 26.2144 8.89324L26.0106 8.95174H26.0078L25.314 9.36034C25.1952 9.42981 25.1395 9.52031 25.1413 9.63183L25.2217 9.82927C25.4018 10.0816 25.6449 10.3229 25.9484 10.5541C26.4402 10.9326 26.9932 11.1675 27.6084 11.2653V11.896C27.6084 12.1008 27.7739 12.2672 27.9795 12.2672V12.2681ZM29.0317 8.37495C29.4 8.49104 29.5847 8.70403 29.5838 9.01939C29.581 9.31281 29.4457 9.53951 29.1797 9.69947L29.0307 9.77808V8.37495H29.0317ZM27.1605 6.11989C27.1596 5.89137 27.2903 5.7122 27.5563 5.58515L27.6093 5.56504V6.70034C27.3132 6.58608 27.1614 6.3932 27.1605 6.11989Z" fill="white"/>
<path d="M27.1604 6.12024C27.1604 6.39371 27.3131 6.5867 27.6095 6.70103V5.56506L27.5564 5.58518C27.2903 5.71232 27.1595 5.89067 27.1604 6.12024Z" fill="black"/>
<path d="M29.0317 9.77895L29.1808 9.70029C29.447 9.53931 29.5814 9.31249 29.5851 9.01981C29.5851 8.70426 29.4003 8.49116 29.0327 8.375V9.77895H29.0317Z" fill="black"/>
<path d="M22.2455 7.73212C22.2455 11.0155 24.9073 13.6774 28.1898 13.6774C31.4723 13.6774 34.1351 11.0155 34.1351 7.73212C34.1351 4.4487 31.4742 1.78687 28.1898 1.78687C24.9055 1.78687 22.2455 4.4487 22.2455 7.73212ZM29.0317 3.27775V3.99897C29.7822 4.12968 30.3955 4.46515 30.869 5.0063C30.9385 5.06754 30.9714 5.13975 30.9705 5.22111C30.9668 5.32349 30.9156 5.40758 30.8114 5.47431L30.0482 5.95238H30.0445C30.0445 5.95238 29.9111 6.02094 29.8142 6.02094C29.6935 6.02094 29.5875 5.98072 29.4961 5.90576C29.3461 5.77687 29.1908 5.67632 29.0308 5.60046V6.88201C29.943 7.00998 30.6149 7.33083 31.0445 7.84363C31.3096 8.16539 31.4358 8.55663 31.4284 9.0155C31.4138 9.75409 31.0884 10.3309 30.4531 10.7504C30.0518 11.0146 29.5774 11.1856 29.0308 11.266V11.8976C29.0308 12.1024 28.8644 12.2688 28.6606 12.2688H27.9796C27.7748 12.2688 27.6085 12.1024 27.6085 11.8976V11.2669C26.9933 11.1691 26.4402 10.9342 25.9485 10.5557C25.6441 10.3245 25.4018 10.0832 25.2218 9.83087L25.1413 9.63343C25.1395 9.52099 25.1953 9.4305 25.3141 9.36194L26.0079 8.95426H26.0106L26.2145 8.89484C26.3397 8.89484 26.4402 8.94329 26.517 9.0411C26.8607 9.41313 27.2245 9.66725 27.6094 9.80345V8.20379C26.7172 8.06667 26.071 7.73212 25.6724 7.19829C25.4366 6.88475 25.3132 6.5246 25.3068 6.11692C25.2922 5.28966 25.7401 4.66443 26.6569 4.24851C26.9384 4.11871 27.2565 4.02913 27.6094 3.98068V3.27866C27.6094 3.07391 27.7748 2.90663 27.9805 2.90663H28.6615C28.8662 2.90663 29.0317 3.07391 29.0317 3.27866V3.27775Z" fill="black"/>
<path d="M49.1937 43.5876H53.7303C53.957 43.5876 54.1691 43.4999 54.3299 43.339C54.4899 43.179 54.5777 42.966 54.5777 42.7394V31.1478C54.5777 30.922 54.4908 30.709 54.3299 30.549C54.17 30.3891 53.957 30.3004 53.7303 30.3004H49.6416C49.1004 29.1678 48.4139 28.0929 47.6022 27.0864C47.7531 26.7318 49.6416 22.303 51.0429 19.5415C51.6142 19.2051 44.7439 15.6923 39.1021 20.9282C36.0344 19.6659 32.5508 18.9483 28.8542 18.9483C16.5807 18.9483 6.63173 26.8113 6.63173 36.5107C6.63173 36.7749 6.64087 37.0372 6.65641 37.2978C6.54307 37.7182 6.26427 38.1031 5.85384 38.4157C5.67834 38.5482 5.47175 38.6588 5.25603 38.7576C5.34743 38.5665 5.3968 38.3554 5.3968 38.1323C5.3968 37.6863 5.19113 37.2859 4.87759 37.0053C4.56132 36.7246 4.13261 36.5555 3.66368 36.5555C3.19475 36.5555 2.76787 36.7237 2.45251 37.0053C2.13623 37.2859 1.93056 37.6872 1.93056 38.1323C1.93056 38.3554 1.98266 38.5665 2.07316 38.7576C1.85469 38.6588 1.64902 38.5482 1.47352 38.4157C0.925061 37.998 0.611527 37.4504 0.611527 36.8627H0C0 37.678 0.436936 38.402 1.10422 38.9047C1.77242 39.4093 2.67372 39.711 3.66368 39.7119C4.65364 39.7119 5.55585 39.4093 6.22496 38.9047C6.42881 38.7503 6.60157 38.5693 6.75788 38.3764C7.23412 41.9441 9.06322 45.1919 11.8311 47.797L10.9792 56.4105C10.9344 56.8602 11.2168 57.2752 11.6501 57.4014L14.7086 58.2844C15.1364 58.4087 15.5926 58.2113 15.7992 57.8155L18.7288 52.1444C21.7663 53.3766 25.207 54.0759 28.857 54.0759C32.2793 54.0759 35.5216 53.4626 38.4184 52.3702L41.2328 57.8155C41.4376 58.2113 41.8946 58.4078 42.3224 58.2844L45.3792 57.4014C45.8143 57.2762 46.0958 56.8602 46.0501 56.4105L45.2548 48.3638C46.8764 46.9625 48.2128 45.3509 49.1955 43.5895L49.1937 43.5876ZM4.46808 38.8024C4.26789 38.9815 3.98361 39.0967 3.66276 39.0967C3.34192 39.0967 3.05764 38.9815 2.85745 38.8024C2.65818 38.6223 2.54392 38.3892 2.54392 38.1323C2.54392 37.8755 2.65818 37.6424 2.85745 37.4623C3.05764 37.2841 3.34375 37.168 3.66276 37.168C3.98361 37.168 4.26698 37.2831 4.46808 37.4623C4.66918 37.6424 4.78435 37.8764 4.78435 38.1323C4.78435 38.3883 4.66918 38.6223 4.46808 38.8024ZM38.9037 24.1751L37.7812 26.7967C37.741 26.8927 37.6651 26.9667 37.5692 27.0051C37.4723 27.0435 37.3644 27.0426 37.2693 27.0014L35.9594 26.4411L35.954 26.4393L35.9384 26.432L35.8525 26.3972C35.7684 26.3643 35.6386 26.314 35.464 26.2528C35.1203 26.1303 34.6084 25.9621 33.974 25.793C32.7089 25.4557 30.9603 25.1221 29.0992 25.1221C27.2902 25.1221 25.4501 25.4374 24.0543 25.7711C22.6576 26.1029 21.6923 26.4484 21.6329 26.4713L21.6247 26.474L20.2901 26.9685C20.0872 27.0435 19.8641 26.9402 19.7883 26.7382L18.7974 24.0645C18.7233 23.8624 18.8257 23.6376 19.0277 23.5626L20.365 23.0681C20.4153 23.0498 21.4647 22.6622 23.0634 22.2738C24.664 21.8862 26.8149 21.4922 29.1001 21.4904C31.3497 21.4949 33.3625 21.8752 34.8397 22.2637C36.3159 22.6522 37.273 23.0553 37.3717 23.0946L37.3882 23.101L38.6981 23.6604C38.795 23.7016 38.869 23.7774 38.9083 23.8743C38.9458 23.9712 38.9458 24.0773 38.9046 24.1732L38.9037 24.1751Z" fill="white"/>
<path d="M36.8974 23.7464C36.784 23.7025 36.625 23.6404 36.4193 23.5672C36.0116 23.421 35.4284 23.229 34.709 23.038C33.2721 22.655 31.2949 22.2756 29.1002 22.272C26.9045 22.2729 24.8094 22.655 23.2491 23.0343C21.6896 23.4128 20.6659 23.7912 20.6384 23.8012L19.6667 24.1605L20.3871 26.102L21.3578 25.7419L21.366 25.74C21.4812 25.6971 22.4492 25.3515 23.8761 25.0124C25.3131 24.6705 27.2034 24.3424 29.1011 24.3424C31.0563 24.3424 32.8635 24.6897 34.1779 25.0398C34.8343 25.2144 35.3654 25.3899 35.7264 25.5179C35.9092 25.5819 36.05 25.6358 36.1432 25.6724L36.2383 25.7108L36.2511 25.7163L36.2657 25.7236H36.2694L37.2191 26.1304L38.0327 24.2272L37.082 23.8204L37.0299 23.8003L36.8992 23.7473L36.8974 23.7464Z" fill="white"/>
<path d="M37.2692 27.0015C37.3642 27.0427 37.4721 27.0436 37.569 27.0052C37.665 26.9659 37.7399 26.8928 37.781 26.7968L38.9036 24.1752C38.9447 24.0792 38.9447 23.9732 38.9072 23.8763C38.8688 23.7794 38.7939 23.7044 38.697 23.6624L37.3871 23.1029L37.3706 23.0965C37.2719 23.0572 36.3148 22.6532 34.8386 22.2656C33.3605 21.8762 31.3477 21.496 29.099 21.4923C26.8138 21.4941 24.6629 21.8881 23.0624 22.2757C21.4636 22.6642 20.4151 23.0508 20.364 23.07L19.0266 23.5646C18.8246 23.6395 18.7222 23.8644 18.7963 24.0664L19.7872 26.7401C19.863 26.9421 20.0861 27.0454 20.289 26.9705L21.6236 26.4759L21.6318 26.4732C21.6912 26.4503 22.6565 26.1039 24.0532 25.773C25.449 25.4394 27.2891 25.124 29.0981 25.124C30.9592 25.124 32.7078 25.4576 33.9729 25.7949C34.6073 25.964 35.1192 26.1322 35.4629 26.2547C35.6375 26.316 35.7673 26.3653 35.8514 26.3992L35.9373 26.4339L35.9529 26.4412H35.9584V26.443L37.2682 27.0034L37.2692 27.0015ZM35.7234 25.518C35.3624 25.3891 34.8313 25.2145 34.175 25.0399C32.8614 24.6898 31.0533 24.3434 29.0981 24.3424C27.2004 24.3424 25.3101 24.6697 23.8731 25.0125C22.4463 25.3516 21.4782 25.698 21.3631 25.7401L21.3548 25.7419L20.3841 26.1021L19.6638 24.1605L20.6354 23.8013C20.6629 23.7913 21.6866 23.4128 23.2461 23.0344C24.8074 22.655 26.9015 22.2739 29.0972 22.272C31.2928 22.2757 33.27 22.655 34.706 23.038C35.4254 23.23 36.0086 23.421 36.4163 23.5673C36.6211 23.6404 36.781 23.7026 36.8944 23.7465L37.0251 23.7995L37.0772 23.8196L38.0279 24.2264L37.2143 26.1295L36.2646 25.7236H36.2609L36.2463 25.7163L36.2335 25.7108L36.1384 25.6725C36.0452 25.6359 35.9044 25.582 35.7216 25.518H35.7234Z" fill="black"/>
</svg>
