<svg width="57" height="61" viewBox="0 0 57 61" fill="none" xmlns="http://www.w3.org/2000/svg">
<path d="M43.4775 0.435417C43.8401 0.660187 44.1782 0.900322 44.5167 1.15985C44.7358 1.32055 44.9554 1.48063 45.1755 1.64001C45.2764 1.71394 45.3773 1.78787 45.4812 1.86404C45.7895 2.08168 45.7895 2.08168 46.2698 2.25417C46.6607 2.4105 46.6607 2.4105 47.018 2.9465C47.1542 5.55221 45.8131 8.00633 44.6953 10.2718C44.8377 10.3816 44.98 10.4915 45.1267 10.6047C45.648 11.0355 45.8003 11.2241 45.946 11.8798C45.9216 12.5848 45.8333 13.2644 45.6333 13.9414C45.5405 14.3889 45.5405 14.3889 45.8211 14.7258C45.9397 14.8405 46.0583 14.9552 46.1805 15.0734C49.8215 18.9293 52.323 24.6087 52.3779 29.9249C52.2269 32.2745 51.257 34.0675 49.5193 35.6422C45.3147 38.9452 39.4684 39.5071 34.3083 38.9545C30.694 38.4627 26.7223 37.1277 24.4392 34.1459C23.5288 32.8202 23.1682 31.7045 23.2555 30.1036C23.0602 30.192 22.8649 30.2805 22.6637 30.3716C22.0049 30.6396 22.0049 30.6396 21.4689 30.6396C21.4578 30.8607 21.4468 31.0818 21.4354 31.3096C21.4078 31.8618 21.3113 32.0449 20.9406 32.4681C20.1839 32.9072 19.5591 32.8887 18.6996 32.8729C18.474 32.877 18.474 32.877 18.2438 32.8813C17.5157 32.8767 17.0969 32.8387 16.4572 32.466C16.0883 32.0453 16.0165 31.8866 15.9861 31.3431C15.9333 30.9659 15.9333 30.9659 15.7516 30.6396C15.183 30.3205 14.6151 30.1521 13.965 30.1036C13.7881 30.2215 13.6112 30.3394 13.429 30.4609C12.6694 30.6853 12.1481 30.6568 11.4281 30.3088C10.5593 29.7547 9.72414 28.9113 9.31967 27.9596C9.20283 26.8691 9.20283 26.8691 9.62117 26.2958C9.96222 25.5974 9.78259 25.1328 9.53811 24.4163C9.33433 23.9605 9.33433 23.9605 8.70551 23.7833C8.49546 23.7465 8.28542 23.7096 8.06901 23.6716C7.61246 23.3713 7.40652 23.1542 7.26572 22.622C7.08422 21.3672 7.02002 19.9229 7.70052 18.8254C8.30855 18.2726 8.6918 18.2942 9.49833 18.3117C9.99078 17.0423 9.99078 17.0423 9.78866 15.7657C9.69286 15.6036 9.59705 15.4414 9.49833 15.2744C9.49833 14.5174 9.56354 14.1572 10.0567 13.5771C10.2262 13.4297 10.3957 13.2823 10.5703 13.1304C10.6671 13.0226 10.7638 12.9148 10.8634 12.8038C11.3822 12.2289 11.706 11.9161 12.4575 11.6788C13.1582 11.7042 13.5481 11.877 14.1436 12.2371C14.613 12.4718 14.8045 12.3855 15.3049 12.2482C15.7439 12.1139 15.7439 12.1139 16.1089 11.8798C16.2803 11.5122 16.3294 11.2173 16.3574 10.814C16.5351 10.2204 16.832 10.046 17.3596 9.73577C17.8988 9.63883 18.4212 9.64386 18.9676 9.6576C19.1095 9.65634 19.2513 9.65507 19.3975 9.65376C20.2199 9.66267 20.8217 9.71077 21.4689 10.2718C21.6294 10.657 21.6294 10.657 21.7146 11.0758C21.8792 11.6722 21.8792 11.6722 22.2903 12.1101C22.7595 12.3232 23.1546 12.4267 23.6687 12.3711C23.8908 12.2724 24.1101 12.1671 24.3275 12.0584C25.0592 11.9248 25.6813 11.9019 26.3277 12.2999C26.6973 12.6189 27.0323 12.9519 27.3648 13.3091C27.4577 13.3987 27.5505 13.4883 27.6461 13.5806C28.3248 14.2864 28.3883 14.8727 28.4368 15.8104C28.6815 15.5298 28.9228 15.2464 29.1627 14.9617C29.2974 14.8042 29.4321 14.6467 29.5709 14.4844C29.9094 14.0632 29.9094 14.0632 29.8243 13.6622C29.7791 13.5457 29.734 13.4291 29.6875 13.3091C29.5953 12.3929 29.5812 11.7209 30.0225 10.8971C30.4021 10.4504 30.4021 10.4504 30.7595 10.0931C30.6171 9.82709 30.6171 9.82709 30.4719 9.55571C29.4763 7.6571 28.3804 5.52912 28.492 3.32267C28.7554 2.52046 29.5161 2.24105 30.2235 1.87451C30.6036 1.64829 30.9833 1.42122 31.3625 1.19335C32.3413 0.620444 33.1788 0.237311 34.3328 0.445187C35.1732 0.837311 35.91 1.33632 36.6108 1.94151C37.1544 2.33412 37.4204 2.30722 38.0847 2.23184C38.5389 1.98602 38.9384 1.74419 39.3577 1.45018C41.8734 -0.259006 41.8734 -0.259006 43.4775 0.435417ZM40.7759 2.62267C40.5886 2.73782 40.4014 2.85298 40.2085 2.97162C39.9163 3.1598 39.6254 3.35004 39.3389 3.5467C38.4684 4.1174 37.6613 4.19816 36.6554 4.01849C35.864 3.70118 35.2137 3.26122 34.5561 2.72317C34.0869 2.35824 33.8522 2.27233 33.2608 2.23184C32.7131 2.46212 32.7131 2.46212 32.1776 2.8125C31.995 2.92397 31.8124 3.03544 31.6242 3.15029C31.2031 3.42596 30.7993 3.70988 30.4021 4.01849C30.7172 5.93527 31.4231 7.51757 32.3675 9.19977C32.4409 9.35124 32.5144 9.50271 32.59 9.65876C32.8598 10.1269 32.8598 10.1269 33.319 10.2125C33.4822 10.216 33.6455 10.2194 33.8137 10.2229C33.9992 10.2286 34.1847 10.2343 34.3758 10.2401C34.5763 10.2411 34.7767 10.2421 34.9832 10.2432C35.1897 10.2461 35.3961 10.2491 35.6088 10.2522C36.0462 10.2567 36.4835 10.2588 36.9209 10.2586C37.5888 10.2606 38.2553 10.2768 38.9229 10.2937C39.348 10.2964 39.773 10.2981 40.198 10.299C40.4965 10.3086 40.4965 10.3086 40.801 10.3184C41.8963 10.3033 41.8963 10.3033 42.7733 9.70392C43.0958 9.25026 43.3678 8.80043 43.6234 8.30645C43.6856 8.19357 43.7478 8.08069 43.8118 7.9644C44.848 5.99868 44.848 5.99869 45.0527 3.83982C44.6204 3.38324 44.6204 3.38324 44.0477 2.99116C43.7679 2.7825 43.7679 2.7825 43.4824 2.56963C42.4002 1.93246 41.828 1.95213 40.7759 2.62267ZM17.8956 11.5224C17.8366 12.0531 17.7777 12.5837 17.7169 13.1304C17.5426 13.1907 17.3682 13.2511 17.1886 13.3133C16.959 13.3937 16.7294 13.4742 16.4998 13.5547C16.385 13.5943 16.2702 13.634 16.1519 13.6748C15.6057 13.8672 15.1645 14.0578 14.6796 14.3811C13.9509 14.3546 13.5563 14.3101 12.9935 13.8339C12.9013 13.7197 12.8092 13.6054 12.7143 13.4877C12.3016 13.9005 11.8889 14.3132 11.4636 14.7384C11.6555 15.2592 11.7813 15.5921 12.1783 15.989C12.1393 16.8073 11.8476 17.4186 11.4727 18.1274C11.2916 18.4775 11.1348 18.8301 10.9835 19.1939C10.749 19.741 10.749 19.741 10.5703 19.9197C10.096 20.0009 9.61949 20.0452 9.141 20.0983C9.08204 20.7469 9.02308 21.3955 8.96234 22.0637C9.55193 22.1816 10.1415 22.2995 10.749 22.421C10.817 22.6345 10.817 22.6345 10.8865 22.8523C11.2698 24.0431 11.2698 24.0431 11.7875 25.1791C11.9996 25.637 11.9996 25.637 11.9885 26.0948C11.7828 26.6296 11.4844 26.9968 11.1063 27.4236C11.7254 28.0427 11.7254 28.0427 12.357 28.6743C13.0569 28.3428 13.0569 28.3428 13.6076 27.9596C14.4267 27.9977 15.0405 28.2872 15.7467 28.6708C16.0954 28.8461 16.4292 28.9514 16.8013 29.0651C17.3596 29.3889 17.3596 29.3889 17.5166 29.7798C17.6164 30.2264 17.6164 30.2264 17.7169 30.9969C18.3655 30.9969 19.014 30.9969 19.6822 30.9969C19.6859 30.7721 19.6896 30.5473 19.6934 30.3157C19.7458 29.9179 19.7458 29.9179 19.8609 29.5676C20.3746 29.2661 20.3746 29.2661 20.7131 29.1607C21.2047 29.0014 21.6435 28.7715 22.1054 28.5403C22.7084 28.2656 23.0318 28.1383 23.7022 28.1383C24.1595 28.3212 24.3447 28.5127 24.6849 28.8529C25.2727 28.8529 25.4556 28.622 25.8909 28.2164C26.0235 28.0727 26.1562 27.929 26.2928 27.7809C26.0871 27.34 25.927 27.0577 25.5782 26.7089C25.4102 25.7489 25.811 25.1029 26.2489 24.2816C26.5002 23.7947 26.6766 23.3043 26.8288 22.7783C27.4184 22.6604 28.008 22.5425 28.6155 22.421C28.6155 21.7724 28.6155 21.1239 28.6155 20.4557C28.3612 20.4262 28.107 20.3967 27.845 20.3663C27.3983 20.2665 27.3983 20.2665 27.0075 20.0983C26.6837 19.4618 26.6837 19.4618 26.5818 19.078C26.4612 18.6309 26.2825 18.2478 26.0807 17.8315C25.6155 16.7862 25.6155 16.7862 25.7569 16.1677C26.1142 15.7545 26.1142 15.7545 26.4715 15.4531C26.1987 14.8392 25.8284 14.3598 25.3995 13.8451C24.954 14.0601 24.5631 14.2836 24.1489 14.5597C23.4373 14.6402 23.0068 14.4835 22.3845 14.1466C21.6726 13.7714 20.9618 13.4375 20.2182 13.1304C20.1298 12.3345 20.1298 12.3345 20.0396 11.5224C19.3321 11.5224 18.6245 11.5224 17.8956 11.5224ZM31.6528 11.8798C31.5845 12.1756 31.5252 12.4737 31.4741 12.7731C31.6677 13.0068 31.6677 13.0068 32.1355 12.9732C32.3509 12.9728 32.5664 12.9724 32.7883 12.972C32.9069 12.972 33.0254 12.9721 33.1475 12.9721C33.541 12.972 33.9344 12.9706 34.3279 12.9692C34.6 12.9689 34.8722 12.9686 35.1443 12.9684C35.8619 12.9677 36.5794 12.966 37.297 12.964C38.0287 12.9622 38.7604 12.9614 39.4921 12.9605C40.9287 12.9585 42.3654 12.9555 43.802 12.9517C43.9199 12.7159 44.0379 12.4801 44.1594 12.2371C43.8263 11.8273 43.8263 11.8273 43.2978 11.8368C43.0828 11.8376 42.8677 11.8384 42.6462 11.8392C42.4684 11.8391 42.4684 11.8391 42.287 11.839C41.8944 11.8393 41.502 11.8421 41.1095 11.8449C40.8376 11.8455 40.5657 11.846 40.2939 11.8464C39.5777 11.8478 38.8617 11.8513 38.1456 11.8552C37.4151 11.8589 36.6845 11.8605 35.954 11.8623C34.5203 11.8661 33.0865 11.8722 31.6528 11.8798ZM28.7942 18.669C28.9637 18.7427 29.1332 18.8164 29.3078 18.8924C29.9116 19.2305 30.0017 19.2953 30.2235 19.9197C30.276 20.3857 30.314 20.8372 30.3351 21.3043C30.3421 21.4289 30.349 21.5535 30.3561 21.6819C30.3728 21.9877 30.3877 22.2937 30.4021 22.5997C30.6136 22.2824 30.8193 21.961 31.0114 21.6317C32.2395 19.5733 33.7274 18.3001 36.0552 17.6424C38.3407 17.1341 40.572 17.4735 42.5681 18.7249C44.2982 19.9492 45.531 21.5854 46.0018 23.6716C46.4006 26.1331 45.9176 28.3835 44.5167 30.4609C43.4274 31.9032 41.6419 32.9495 39.8714 33.3196C37.3764 33.5505 35.1904 33.3445 33.1045 31.8456C31.548 30.5233 30.3806 28.7482 30.1868 26.6735C30.1802 26.5351 30.1737 26.3966 30.1669 26.2539C30.1595 26.1031 30.152 25.9522 30.1443 25.7968C30.1372 25.6409 30.1302 25.4849 30.123 25.3243C30.1153 25.1656 30.1075 25.0069 30.0996 24.8434C30.0807 24.4529 30.0625 24.0623 30.0448 23.6716C29.9407 23.7283 29.8366 23.785 29.7294 23.8433C29.1917 24.0934 28.6651 24.1401 28.0795 24.2076C27.945 24.5185 27.8157 24.8316 27.6887 25.1456C27.6161 25.3197 27.5436 25.4939 27.4688 25.6732C27.304 26.1745 27.304 26.1745 27.6056 26.5526C27.703 26.6632 27.8005 26.7737 27.9008 26.8876C28.027 27.6444 28.0719 28.0525 27.6517 28.7022C26.9074 29.5714 26.0982 30.3489 25.0422 30.8182C25.2564 32.0178 25.6613 32.7699 26.4715 33.6769C26.5942 33.8144 26.5942 33.8144 26.7193 33.9547C29.8419 36.9871 34.8817 37.3644 38.9634 37.306C42.5534 37.1906 46.0867 36.2051 48.7823 33.7439C48.9076 33.6039 49.0329 33.4638 49.162 33.3196C49.2873 33.1795 49.4126 33.0395 49.5416 32.8952C50.6063 31.4047 50.7232 29.7756 50.5117 28.0099C49.7696 23.8814 47.8845 19.907 45.1646 16.7037C44.874 16.3464 44.874 16.3464 44.602 15.9393C44.0991 15.2539 43.71 14.8108 42.8736 14.5825C42.1761 14.5169 41.488 14.5001 40.7884 14.506C40.5304 14.5035 40.2723 14.5007 40.0143 14.4975C39.475 14.4927 38.9362 14.494 38.397 14.4993C37.7101 14.5055 37.0246 14.4946 36.3379 14.479C35.8053 14.4691 35.273 14.4693 34.7404 14.4724C34.4875 14.4724 34.2346 14.4693 33.9818 14.4626C31.0744 14.3964 30.0738 16.3178 28.7942 18.669ZM28.0795 15.989C28.2582 16.3464 28.2582 16.3464 28.2582 16.3464L28.0795 15.989ZM27.7222 16.525C27.6632 16.643 27.6042 16.7609 27.5435 16.8824C27.6614 16.8824 27.7793 16.8824 27.9008 16.8824C27.8419 16.7645 27.7829 16.6465 27.7222 16.525ZM33.1666 21.4942C31.812 23.1898 31.6506 24.7851 31.8315 26.8876C32.1779 28.6061 33.4214 29.9999 34.8353 30.9857C36.2777 31.7915 37.9042 32.0862 39.5141 31.7116C41.3154 31.1965 42.7773 30.1844 43.7629 28.5773C44.7059 26.6763 44.6931 24.9666 44.0372 22.9898C43.3928 21.4314 42.2384 20.3539 40.7647 19.5623C37.886 18.4497 35.1477 19.1432 33.1666 21.4942ZM30.0448 23.3143C30.2235 23.6716 30.2235 23.6716 30.2235 23.6716L30.0448 23.3143Z" fill="white"/>
<path d="M26.8065 37.8085C27.1394 37.9218 27.4726 38.0348 27.8058 38.1473C28.4984 38.3818 29.1903 38.6184 29.8818 38.8562C30.9345 39.2165 31.9922 39.56 33.0514 39.9008C33.5604 40.0658 34.0693 40.231 34.5781 40.3963C34.9027 40.5014 35.2274 40.6058 35.5523 40.7095C39.0825 41.8391 39.0825 41.8391 40.05 42.7888C40.109 42.9657 40.1679 43.1425 40.2287 43.3248C42.4561 42.2182 44.6712 41.0882 46.8839 39.9525C47.3799 39.6981 47.8758 39.4437 48.3718 39.1894C48.6772 39.0328 48.9827 38.8761 49.2881 38.7194C49.4255 38.6489 49.5628 38.5784 49.7044 38.5058C49.8843 38.4135 49.8843 38.4135 50.0678 38.3193C50.1816 38.2613 50.2953 38.2033 50.4126 38.1435C50.5334 38.0798 50.6541 38.0162 50.7786 37.9506C51.845 37.4477 52.9092 37.5994 53.9859 37.9648C54.905 38.4677 55.4782 39.0578 55.9959 39.9636C56.3305 41.2185 56.2296 42.3635 55.5939 43.5034C54.8604 44.557 53.9775 45.0476 52.8581 45.6474C52.4857 45.8523 52.1135 46.0575 51.7414 46.263C51.5505 46.3678 51.3595 46.4727 51.1628 46.5807C50.2605 47.0817 49.3707 47.6037 48.4808 48.1264C46.6064 49.2239 44.7266 50.3115 42.8444 51.3954C42.13 51.8069 41.4161 52.2193 40.703 52.633C40.3851 52.8175 40.0671 53.0017 39.7491 53.1859C39.3505 53.4169 38.952 53.6482 38.5538 53.8799C35.398 55.7067 33.2842 56.0434 29.6812 55.4895C29.2713 55.4266 28.8612 55.3657 28.4509 55.3052C27.2862 55.1332 26.1221 54.9575 24.9581 54.7811C24.2424 54.6727 23.5265 54.5664 22.8105 54.4613C22.5385 54.421 22.2667 54.3798 21.995 54.3378C21.6169 54.2793 21.2385 54.2234 20.8599 54.1681C20.5373 54.1193 20.5373 54.1193 20.2082 54.0695C19.648 53.9909 19.648 53.9909 19.1462 54.402C19.3231 54.6673 19.3231 54.6673 19.5035 54.938C19.5684 55.4726 19.5684 55.4726 19.5035 56.01C19.232 56.3129 19.232 56.3129 18.8224 56.5683C18.6607 56.672 18.499 56.7756 18.3324 56.8824C18.2374 56.9407 18.1423 56.999 18.0444 57.0591C17.6642 57.2931 17.2879 57.5328 16.9115 57.7729C16.3233 58.1476 15.7332 58.5189 15.1416 58.8882C14.6568 59.1915 14.1767 59.4989 13.7039 59.8206C13.5358 59.9339 13.3676 60.0472 13.1944 60.164C13.0551 60.2607 12.9157 60.3574 12.7722 60.4571C12.2309 60.7154 11.8799 60.7218 11.2849 60.6553C10.9448 60.3257 10.9448 60.3257 10.6603 59.8708C10.5553 59.707 10.4503 59.5431 10.3421 59.3743C10.2406 59.2074 10.139 59.0405 10.0343 58.8686C9.94305 58.7248 9.85182 58.581 9.75782 58.4328C9.48464 57.9999 9.21742 57.5638 8.95113 57.1266C8.13532 55.7984 7.31046 54.4767 6.47215 53.1625C6.36864 53.0003 6.26513 52.838 6.15848 52.6708C5.9482 52.3414 5.73785 52.012 5.52744 51.6826C4.99658 50.8513 4.46691 50.0193 3.93734 49.1872C3.83468 49.0259 3.73202 48.8646 3.62625 48.6984C2.9207 47.5893 2.21662 46.4793 1.51419 45.3683C1.42607 45.229 1.33795 45.0897 1.24716 44.9462C1.08738 44.6932 0.928261 44.4398 0.76996 44.1859C0.597671 43.9125 0.418463 43.6436 0.237717 43.3757C-0.01153 42.8881 -0.0321839 42.616 0.0290414 42.0741C0.283997 41.7893 0.283997 41.7893 0.641109 41.5479C0.772069 41.4578 0.903029 41.3677 1.03796 41.2748C1.17669 41.1848 1.31542 41.0948 1.45836 41.0021C1.58996 40.9154 1.72155 40.8286 1.85713 40.7392C2.26864 40.4724 2.68346 40.2116 3.09985 39.9525C3.24737 39.8602 3.3949 39.7678 3.5469 39.6727C3.84309 39.4876 4.13945 39.3028 4.436 39.1182C4.81324 38.8829 5.18926 38.6459 5.56487 38.408C5.77048 38.2788 5.97613 38.1497 6.18182 38.0207C6.35847 37.9094 6.53512 37.7982 6.71712 37.6836C7.12478 37.4571 7.42773 37.2974 7.8903 37.2502C8.85452 37.9798 9.41497 39.0897 10.0343 40.1088C11.3266 39.7723 12.5888 39.3874 13.847 38.9405C14.013 38.8822 14.1791 38.8239 14.3501 38.7638C14.8733 38.58 15.3962 38.3953 15.9191 38.2105C16.4464 38.0245 16.9738 37.8387 17.5014 37.6533C17.8278 37.5385 18.1541 37.4234 18.4803 37.3079C18.6277 37.256 18.7751 37.2041 18.927 37.1506C19.056 37.105 19.1849 37.0594 19.3178 37.0125C21.9327 36.154 24.3241 36.9388 26.8065 37.8085ZM18.1859 39.3048C17.953 39.3862 17.72 39.4672 17.4868 39.5479C17.0163 39.7115 16.5466 39.877 16.0775 40.0444C15.4305 40.2752 14.7818 40.5005 14.1324 40.7244C13.1822 41.0521 12.2331 41.383 11.2849 41.7168C11.2849 42.3594 11.442 42.5672 11.7832 43.1049C11.9454 43.3624 11.9454 43.3624 12.1109 43.6251C12.288 43.902 12.288 43.902 12.4686 44.1846C12.5889 44.3749 12.7093 44.5652 12.8333 44.7612C13.2093 45.3551 13.587 45.948 13.9649 46.5407C14.1953 46.9036 14.4256 47.2665 14.6558 47.6295C15.1603 48.4241 15.6652 49.2185 16.1738 50.0105C16.385 50.3434 16.5926 50.6787 16.7977 51.0153C16.9076 51.1939 17.0174 51.3726 17.1306 51.5566C17.23 51.7205 17.3294 51.8844 17.4318 52.0533C17.6975 52.4871 17.6975 52.4871 18.2529 52.6154C18.4168 52.5311 18.4168 52.5311 18.5841 52.4451C19.0763 52.2049 19.3785 52.2455 19.9208 52.302C20.1111 52.3216 20.3014 52.3413 20.4975 52.3616C21.5764 52.4936 22.6515 52.6459 23.7266 52.8059C23.972 52.8418 24.2175 52.8776 24.4629 52.9133C25.4938 53.0634 26.5244 53.215 27.5548 53.3675C28.1897 53.4613 28.8247 53.5541 29.4598 53.6461C29.8147 53.6979 30.1694 53.751 30.5241 53.8041C33.3975 54.2202 35.0625 53.8856 37.5375 52.392C37.9187 52.1658 38.3 51.9396 38.6814 51.7137C38.8774 51.597 39.0733 51.4804 39.2752 51.3602C40.2432 50.7873 41.2187 50.2277 42.194 49.6674C43.8603 48.7079 45.5238 47.7438 47.1822 46.7707C48.0346 46.2714 48.889 45.7766 49.7505 45.2931C50.1773 45.0535 50.6032 44.8125 51.0291 44.5714C51.3312 44.4014 51.6345 44.2336 51.9379 44.066C52.9264 43.506 53.7218 43.0394 54.3432 42.0741C54.439 41.3913 54.401 40.9731 54.1534 40.3321C53.6682 39.7687 53.2719 39.5935 52.5566 39.3941C51.3481 39.5986 50.3774 40.098 49.3071 40.6783C48.9459 40.8706 48.5846 41.0628 48.2232 41.2548C48.0307 41.3575 47.8381 41.4603 47.6397 41.5662C46.9715 41.92 46.3006 42.2681 45.6284 42.6143C45.5117 42.6744 45.395 42.7345 45.2748 42.7964C44.8113 43.0351 44.3477 43.2736 43.884 43.5118C43.5601 43.6784 43.2365 43.8453 42.9128 44.0122C42.7266 44.108 42.5404 44.2039 42.3485 44.3026C41.4044 44.7229 41.4044 44.7229 40.8031 45.4778C40.7785 45.6779 40.7785 45.6779 40.7535 45.8819C40.5264 47.1674 39.8582 47.9373 38.7994 48.6847C37.0186 49.4239 35.3015 48.6996 33.5811 48.1096C33.2418 47.9956 32.9025 47.8815 32.5633 47.7674C32.0922 47.6086 31.6217 47.4482 31.1511 47.2879C30.4385 47.0455 29.7253 46.8052 29.012 46.5647C28.4576 46.3778 27.9032 46.1903 27.3492 46.002C27.1506 45.9346 26.9519 45.8672 26.7473 45.7978C26.5728 45.7384 26.3983 45.6791 26.2185 45.6179C25.8282 45.4918 25.4414 45.383 25.0421 45.2901C25.1011 44.8774 25.1601 44.4647 25.2208 44.0394C25.9832 43.8212 26.4397 43.913 27.1826 44.1713C27.4992 44.2795 27.4992 44.2795 27.8223 44.3899C27.9341 44.4292 28.0459 44.4686 28.1611 44.5091C28.5128 44.6327 28.8653 44.7535 29.2182 44.8737C30.0942 45.1725 30.9688 45.4758 31.8432 45.7795C32.5826 46.0362 33.3227 46.2909 34.0638 46.5429C34.4102 46.6617 34.7556 46.7832 35.1011 46.9049C35.3127 46.9771 35.5244 47.0492 35.7425 47.1235C35.9278 47.1879 36.1132 47.2523 36.3042 47.3187C36.9077 47.4501 37.3107 47.4094 37.906 47.2554C38.4979 46.8653 38.9634 46.5218 39.1567 45.8261C39.1749 45.0805 39.1749 45.0805 38.978 44.3968C38.1949 43.6474 37.4859 43.2866 36.4628 42.957C36.322 42.9094 36.1812 42.8619 36.0361 42.8129C35.5733 42.6573 35.1094 42.5052 34.6454 42.3533C34.3205 42.2454 33.9957 42.1373 33.6709 42.029C33.1634 41.86 32.6559 41.6913 32.1479 41.5236C31.103 41.1783 30.0616 40.8244 29.0226 40.4616C28.3498 40.2269 27.6761 39.995 27.0023 39.7633C26.6816 39.6524 26.3612 39.5403 26.0414 39.427C23.1382 38.4014 21.1466 38.2336 18.1859 39.3048ZM5.054 40.8681C4.75862 41.0509 4.75862 41.0509 4.45728 41.2373C4.26774 41.3559 4.07819 41.4745 3.8829 41.5967C3.70928 41.7053 3.53565 41.8138 3.35676 41.9256C2.90802 42.2386 2.54544 42.5683 2.17302 42.9674C2.22674 43.0525 2.28046 43.1376 2.33581 43.2252C2.49927 43.484 2.66272 43.7428 2.82618 44.0016C3.01908 44.307 3.212 44.6125 3.40492 44.9179C3.88642 45.6802 4.36782 46.4425 4.84881 47.2052C5.90456 48.8787 6.96469 50.5493 8.02766 52.2182C8.73206 53.3245 9.43446 54.4321 10.1348 55.541C10.2199 55.6757 10.305 55.8105 10.3927 55.9493C10.9307 56.8018 11.466 57.656 11.9996 58.5113C12.6594 58.2677 13.228 57.9677 13.8211 57.5908C13.9932 57.4815 14.1652 57.3722 14.3425 57.2596C14.5201 57.1457 14.6976 57.0318 14.8806 56.9145C15.0595 56.8013 15.2385 56.6881 15.4228 56.5715C16.458 55.9276 16.458 55.9276 17.3596 55.1167C16.0027 52.8737 14.6086 50.6566 13.1973 48.4475C12.7361 47.7241 12.2784 46.9985 11.8209 46.2727C11.0193 45.002 10.2151 43.7329 9.40896 42.4649C9.25142 42.2169 9.25142 42.2169 9.09071 41.9638C8.89606 41.6579 8.70092 41.3523 8.50516 41.0471C8.34497 40.7968 8.18607 40.5458 8.02919 40.2935C7.87306 40.0471 7.70452 39.8087 7.53297 39.5728C6.67461 39.5728 5.7616 40.4235 5.054 40.8681Z" fill="white"/>
<path d="M21.7893 15.5619C23.4892 16.633 24.5746 17.9634 25.0422 19.9196C25.2096 21.8287 25.1421 23.4588 23.9786 25.0388C22.8798 26.347 21.656 27.2535 19.9531 27.5631C17.8506 27.746 16.118 27.2591 14.4745 25.9496C13.1617 24.7088 12.5589 23.0668 12.4575 21.282C12.5419 19.4668 13.1622 18.0075 14.4347 16.7204C16.3981 14.9867 19.3626 14.3878 21.7893 15.5619ZM15.7517 17.9543C14.8211 18.9343 14.392 19.8823 14.2665 21.2373C14.3995 22.7795 14.9452 23.8894 16.109 24.9223C17.0774 25.6174 18.1407 25.8598 19.325 25.8156C20.6634 25.5847 21.835 24.914 22.6498 23.8223C23.3426 22.6236 23.4404 21.4582 23.2556 20.0983C22.9406 18.9792 22.1884 18.1326 21.2903 17.4183C19.364 16.3676 17.4462 16.5678 15.7517 17.9543Z" fill="white"/>
<path d="M38.3748 20.1541C38.7992 20.277 38.7992 20.277 38.9778 20.4556C38.9851 20.7533 38.9855 21.0513 38.9778 21.349C39.221 21.4042 39.221 21.4042 39.4692 21.4606C40.2191 21.7779 40.4177 22.0446 40.7645 22.7783C40.8283 23.3211 40.8342 23.8437 40.7645 24.3863C40.5858 24.5649 40.5858 24.5649 39.9493 24.5761C39.7467 24.5724 39.544 24.5687 39.3352 24.5649C39.2688 24.3623 39.2025 24.1596 39.1342 23.9508C39.0001 23.6038 39.0001 23.6038 38.7992 23.3143C38.2887 23.158 37.8971 23.1356 37.3699 23.1356C37.3251 23.5673 37.3251 23.5673 37.3699 24.0289C37.877 24.367 38.1991 24.4827 38.7768 24.6319C39.5182 24.8451 40.0303 25.0814 40.5858 25.6369C40.8249 26.1151 40.8013 26.4989 40.8092 27.0327C40.8138 27.2181 40.8184 27.4035 40.8231 27.5946C40.7565 28.2124 40.5953 28.5349 40.2285 29.0315C39.4707 29.5675 39.4707 29.5675 38.9778 29.5675C38.9189 29.9213 38.8599 30.2751 38.7992 30.6395C38.2546 30.8059 38.0094 30.8714 37.4927 30.606C37.1912 30.2822 37.1912 30.2822 37.1912 29.5675C37.0585 29.527 36.9259 29.4865 36.7892 29.4447C36.1029 29.1171 35.7413 28.6332 35.4045 27.9596C35.3235 26.8454 35.3235 26.8454 35.6167 26.3516C35.9405 26.1729 35.9405 26.1729 36.3984 26.2064C36.8339 26.3516 36.8339 26.3516 37.1912 26.7089C37.2622 27.0641 37.323 27.4217 37.3699 27.7809C38.1097 27.8184 38.1097 27.8184 38.7992 27.6022C38.7992 27.3074 38.7992 27.0126 38.7992 26.7089C38.614 26.6569 38.4288 26.6048 38.2381 26.5512C37.9933 26.4774 37.7485 26.4034 37.5038 26.3292C37.3211 26.2788 37.3211 26.2788 37.1347 26.2273C36.4526 26.0154 36.1596 25.8627 35.6802 25.304C35.2813 24.493 35.2831 23.8409 35.4045 22.9569C35.7122 22.2121 36.1753 21.8049 36.8339 21.349C36.9518 21.349 37.0697 21.349 37.1912 21.349C37.2096 21.2089 37.228 21.0689 37.247 20.9246C37.4216 20.258 37.6888 20.0725 38.3748 20.1541Z" fill="white"/>
</svg>
