<svg width="107" height="104" viewBox="0 0 107 104" fill="none" xmlns="http://www.w3.org/2000/svg">
<g clip-path="url(#clip0_40_487)">
<path d="M52.1825 0H52.1904V0.00173546C57.3296 0.00260319 62.2965 0.743644 66.9847 2.1242C67.7345 2.34461 68.4911 2.58757 69.2531 2.84962C73.1088 4.17899 76.7539 5.94308 80.1298 8.08117C80.3676 8.23128 80.4381 8.5454 80.2883 8.78229C80.2726 8.80572 80.2544 8.82915 80.2361 8.84998L76.5022 13.6208C76.3368 13.8325 76.0355 13.8776 75.816 13.7292L75.8073 13.724C74.8582 13.14 73.8777 12.5873 72.8711 12.0675C71.8567 11.5451 70.8257 11.061 69.7799 10.6193L69.7781 10.6184C64.3742 8.33368 58.4277 7.07026 52.1817 7.07026H52.1764V7.06853C45.9539 7.06853 40.0223 8.3276 34.6287 10.6011C33.7475 10.9724 32.8828 11.3699 32.0382 11.7907C27.6782 13.9635 23.718 16.8244 20.3002 20.2302L20.2967 20.2337L20.2732 20.2554C19.1395 21.3869 18.0658 22.5783 17.0583 23.8244C16.0448 25.0783 15.0948 26.3894 14.2179 27.75C9.70994 34.7439 7.09415 43.0672 7.09415 51.9996V52.0048H7.09241C7.09241 58.2056 8.35589 64.1165 10.6373 69.4913C11.01 70.3703 11.4088 71.2311 11.8311 72.0728C14.0115 76.4166 16.8825 80.3639 20.3011 83.7698L20.3046 83.7732L20.3237 83.7932C21.4592 84.9238 22.6565 85.9946 23.9078 86.9994C25.1661 88.0104 26.4818 88.9562 27.848 89.83C34.8664 94.3222 43.2197 96.9289 52.1825 96.9289H52.1878V96.9315C58.412 96.9306 64.3419 95.6724 69.7355 93.3989C70.6176 93.0276 71.4814 92.6301 72.326 92.2093C76.6859 90.0365 80.6471 87.1756 84.064 83.7698L84.0683 83.7654L84.0944 83.7402C85.2264 82.6096 86.2992 81.4199 87.3058 80.1756C88.3203 78.9218 89.2694 77.6097 90.1463 76.2491C94.6551 69.2552 97.27 60.932 97.27 52.0004V51.9918H97.2727C97.2718 48.244 96.8094 44.5978 95.9378 41.113C95.7932 40.5325 95.6408 39.9694 95.4824 39.4244C94.6447 36.5548 93.5257 33.8024 92.1612 31.2001C92.0428 30.9753 92.1107 30.7029 92.311 30.5571L97.1359 26.7556C97.3554 26.582 97.6749 26.6193 97.8482 26.8389C97.8639 26.858 97.877 26.8788 97.8883 26.8996H97.89L97.8935 26.9066L97.8987 26.917C98.4743 27.9565 99.0185 29.0212 99.5245 30.1067C100.031 31.1931 100.501 32.2978 100.931 33.4163C103.149 39.1884 104.364 45.4552 104.364 52.0013V52.0065H104.362C104.362 59.1835 102.9 66.0238 100.26 72.2428C99.8327 73.252 99.3712 74.249 98.8775 75.2304C96.3496 80.2676 93.0285 84.8353 89.0805 88.7705L89.077 88.7739L89.0578 88.7913C87.7412 90.1024 86.3541 91.3424 84.9034 92.5078C83.4466 93.6784 81.9245 94.7717 80.3458 95.7826C72.2215 100.982 62.5534 104.001 52.1817 104.001H52.1764V103.999C44.9743 103.998 38.11 102.542 31.8692 99.9113C30.8565 99.4852 29.856 99.0244 28.8703 98.5324C23.8164 96.0143 19.2318 92.7039 15.2829 88.7705L15.2794 88.7661L15.255 88.741C13.9419 87.4307 12.6993 86.051 11.5325 84.608C10.3587 83.1563 9.26062 81.6395 8.24705 80.0663C3.0294 71.9686 0 62.3351 0 52.0004V51.9944H0.00174154C0.0026123 44.8174 1.46376 37.9779 4.10306 31.758C4.53148 30.7489 4.99299 29.7527 5.48671 28.7696C8.01368 23.7333 11.3357 19.1655 15.2829 15.2304L15.2863 15.2269L15.309 15.207C16.6238 13.8976 18.011 12.6576 19.4591 11.4939C20.9167 10.3242 22.438 9.23004 24.0175 8.22C32.1444 3.01796 41.8117 0 52.1825 0ZM81.0398 14.1431L95.6426 0.238626L96.6152 9.61618L107 10.91L91.3627 26.0093L83.754 26.6601L53.392 54.8006L50.5942 52.3996L79.3531 22.4629L81.0398 14.1431ZM52.1825 35.5405H52.1956V35.5422C53.1778 35.5431 54.1339 35.6272 55.0543 35.7886C55.1614 35.8077 55.3129 35.8364 55.5045 35.8754H55.5071C56.2734 36.0316 57.024 36.2425 57.7528 36.5028C58.0175 36.5965 58.1551 36.8863 58.0602 37.1501C58.0419 37.2022 58.0141 37.249 57.9818 37.2907L57.9827 37.2915L53.9067 42.5014C53.7926 42.648 53.6115 42.7131 53.4382 42.6906V42.6923L53.4147 42.6888L53.2335 42.668L53.2179 42.6654L53.0611 42.6489L53.0481 42.6472C52.7764 42.6237 52.4882 42.6107 52.1825 42.6107H52.1773V42.6081C50.879 42.609 49.639 42.8728 48.5122 43.3483C48.3259 43.4273 48.1448 43.5106 47.9715 43.5965C47.0642 44.0486 46.2369 44.6464 45.5203 45.3606L45.5168 45.364L45.4933 45.3849C45.2634 45.6157 45.0457 45.8595 44.8402 46.1138C44.6286 46.3749 44.4301 46.65 44.2463 46.9346C43.3059 48.3942 42.7608 50.1339 42.7608 51.9996V52.0048H42.7582C42.7591 53.3003 43.0238 54.5351 43.501 55.657C43.5802 55.8436 43.6638 56.0241 43.75 56.1959C44.2037 57.101 44.8045 57.9244 45.5203 58.6377L45.5238 58.642L45.5447 58.6637C45.7763 58.8928 46.021 59.1115 46.2761 59.3154C46.5382 59.5263 46.8142 59.725 47.0999 59.9081C48.5654 60.8443 50.3112 61.3884 52.1825 61.3884H52.1878V61.3901C53.4878 61.3901 54.7278 61.1264 55.8528 60.6508C56.04 60.5719 56.2203 60.4886 56.3936 60.4027C57.3018 59.9497 58.1281 59.3518 58.8439 58.6377L58.8483 58.6334L58.8657 58.6169C58.9928 58.4893 59.1165 58.36 59.2305 58.2325C59.3446 58.1049 59.4639 57.9617 59.5858 57.8073C60.1762 57.061 60.656 56.2245 60.9973 55.3247C61.0365 55.2197 61.107 55.1347 61.195 55.0783L67.7815 49.8875C68.0018 49.714 68.3205 49.7513 68.4946 49.9708C68.5556 50.048 68.5895 50.1374 68.6 50.2285H68.6026L68.607 50.2676L68.6087 50.2945L68.6296 50.5114V50.5175H68.6313L68.6505 50.7535V50.7578C68.681 51.1744 68.6984 51.5883 68.6984 51.9996V52.0048H68.6958C68.6949 54.2756 68.2325 56.4397 67.3975 58.4077C67.2634 58.7245 67.1162 59.0403 66.9595 59.3536C66.1575 60.9493 65.1073 62.3958 63.8595 63.6384L63.856 63.6419L63.8282 63.6653C63.4172 64.0732 62.9853 64.461 62.5351 64.8229C62.0736 65.1925 61.5912 65.5396 61.0931 65.8581C58.5209 67.5033 55.4627 68.4587 52.1817 68.4587H52.1764V68.4561C49.8976 68.4552 47.7259 67.9944 45.7519 67.1623C45.4341 67.0286 45.1162 66.882 44.8028 66.7258C43.2014 65.9266 41.7499 64.8801 40.5029 63.6376L40.4994 63.6341L40.4707 63.6028C40.0632 63.1941 39.6766 62.7646 39.3143 62.3169C38.9425 61.857 38.5951 61.3771 38.2746 60.8799C36.6236 58.3175 35.6649 55.2692 35.6649 52.0004V51.9944H35.6667C35.6675 49.7244 36.1308 47.5603 36.965 45.5931C37.1 45.2764 37.2462 44.9605 37.403 44.6473C38.2032 43.0541 39.2534 41.6085 40.502 40.3642L40.5029 40.3633L40.502 40.3624L40.5055 40.359C40.9191 39.9477 41.3606 39.5529 41.8274 39.178C42.2889 38.8075 42.7704 38.4613 43.2693 38.1419C45.8433 36.4958 48.9032 35.5405 52.1825 35.5405ZM53.0472 42.6472C52.7799 42.6142 52.5848 42.3782 52.6014 42.1109L53.0472 42.6472ZM52.1825 17.6236H52.1912V17.6253C55.2772 17.6262 58.2666 18.0306 61.1062 18.7863C61.5685 18.9096 62.0283 19.0423 62.4837 19.1846C64.8217 19.9118 67.0561 20.8836 69.1547 22.0681C69.3985 22.2061 69.4847 22.5159 69.3462 22.7588C69.3332 22.7796 69.3201 22.8013 69.3044 22.8204L69.3018 22.823L65.5192 27.658C65.3607 27.8593 65.0795 27.9097 64.8635 27.7856L64.8513 27.7795C64.3393 27.5131 63.8055 27.2554 63.2509 27.0124C62.6927 26.7669 62.1319 26.5412 61.5694 26.3365C58.6445 25.2726 55.4819 24.6921 52.1817 24.6921H52.1764V24.6904C48.3947 24.6904 44.7906 25.4566 41.5121 26.838C40.9949 27.0567 40.469 27.2988 39.9378 27.5626L39.8977 27.5808C37.2654 28.8989 34.8725 30.63 32.8045 32.69L32.801 32.6934L32.7809 32.7134C32.0956 33.398 31.4452 34.1217 30.8348 34.8767C30.2191 35.6385 29.6418 36.436 29.1089 37.2629C26.3703 41.5131 24.7812 46.5719 24.7812 51.9996V52.0048H24.7795C24.7795 55.7733 25.5483 59.3657 26.9346 62.6319C27.161 63.1664 27.4039 63.6905 27.66 64.2007C28.9844 66.8395 30.7294 69.2379 32.8071 71.3083L32.8105 71.3118C33.5089 72.0085 34.2412 72.6646 35.0005 73.2737C35.7651 73.8872 36.5653 74.4625 37.3951 74.9935C41.6602 77.7234 46.7376 79.3062 52.1834 79.3062H52.1886V79.3079C55.9704 79.3079 59.5754 78.5425 62.8538 77.1611C63.3902 76.9346 63.9161 76.6934 64.4281 76.4374C67.0761 75.1176 69.483 73.3796 71.5606 71.3083L71.5641 71.3048C72.2633 70.608 72.9216 69.8791 73.5329 69.1225C74.1485 68.3597 74.7259 67.5632 75.2588 66.7354C77.9991 62.4843 79.5882 57.4255 79.5882 51.9996H79.5865V51.9865H79.5882C79.5882 50.3023 79.4332 48.6501 79.1389 47.0483C79.0945 46.8088 79.0423 46.5468 78.9822 46.2682C78.6974 44.9362 78.3152 43.6442 77.8475 42.4016C77.764 42.1786 77.8475 41.9339 78.0365 41.8055L82.9677 37.9198C83.188 37.7462 83.5067 37.7836 83.68 38.0031C83.7061 38.0369 83.727 38.0708 83.7435 38.1072L83.7479 38.1159L83.7514 38.1228L83.7522 38.122C84.0091 38.7025 84.2564 39.3064 84.4924 39.9321C84.7249 40.5499 84.9391 41.1703 85.1315 41.7916C86.1373 45.0187 86.6798 48.4471 86.6798 51.9987V52.0039H86.6771C86.6771 56.7478 85.7115 61.2695 83.9664 65.38C83.6843 66.0455 83.3778 66.705 83.0513 67.3558C81.3803 70.6861 79.1851 73.7058 76.5754 76.3055L76.571 76.309L76.5518 76.3272C75.6828 77.1906 74.7685 78.0098 73.8124 78.7777C72.8493 79.5517 71.8427 80.2745 70.7996 80.9418C65.4269 84.3798 59.0363 86.3747 52.1817 86.3747H52.1764C47.4159 86.3738 42.8784 85.4115 38.7527 83.6726C38.0848 83.3906 37.423 83.086 36.7699 82.7606C33.4288 81.0945 30.3976 78.9079 27.788 76.3073L27.7845 76.3038L27.7601 76.2778C26.8954 75.4144 26.076 74.505 25.308 73.554C24.5313 72.5943 23.8059 71.5912 23.1354 70.5516C19.6855 65.1986 17.6836 58.8295 17.6836 51.9996V51.9944H17.6853C17.6862 47.2505 18.6527 42.7287 20.3977 38.6174C20.6799 37.9519 20.9855 37.2924 21.3121 36.6416C22.9822 33.3139 25.1774 30.295 27.7871 27.6936L27.788 27.6927L27.7871 27.6919L27.7906 27.6884L27.8132 27.6676C28.6805 26.8042 29.5948 25.9868 30.5492 25.2206C31.5131 24.4465 32.5188 23.7237 33.562 23.0564C38.9364 19.6185 45.3287 17.6236 52.1825 17.6236Z" fill="#1E3C4F"/>
</g>
<defs>
<clipPath id="clip0_40_487">
<rect width="107" height="104" fill="white"/>
</clipPath>
</defs>
</svg>
