<svg width="25" height="25" viewBox="0 0 25 25" fill="none" xmlns="http://www.w3.org/2000/svg">
<g clip-path="url(#clip0_230_892)">
<path fill-rule="evenodd" clip-rule="evenodd" d="M0.301191 4.2144C2.28374 5.53197 4.25051 6.85708 5.91065 8.56326C4.95902 12.6297 8.75713 15.8787 12.2211 17.7928C13.5771 18.5421 14.1765 19.0675 15.686 18.815L21.6309 24.4499C10.4431 28.0848 -2.11248 12.8348 0.301191 4.2144ZM17.2185 17.3662L18.5226 16.0848C18.8987 15.7147 19.5195 15.71 19.902 16.074L24.71 20.6536C25.0924 21.0176 25.0972 21.6182 24.7212 21.9881L23.4166 23.2696C23.0404 23.6395 22.4196 23.6442 22.037 23.2802L17.2291 18.7006C16.8465 18.3369 16.8419 17.7362 17.2185 17.3662ZM1.47301 1.51922L2.41938 0.407539C2.82506 -0.0689534 3.56029 -0.137721 4.05282 0.254744L8.97501 4.17757C9.46754 4.57044 9.53799 5.28132 9.13274 5.75842L8.18594 6.86949C7.78006 7.34659 7.04504 7.41475 6.5523 7.02228L1.63095 3.09946C1.13841 2.70699 1.06691 1.99571 1.47301 1.51922Z" fill="white"/>
</g>
<defs>
<clipPath id="clip0_230_892">
<rect width="25" height="25" fill="white"/>
</clipPath>
</defs>
</svg>
