<svg width="59" height="65" viewBox="0 0 59 65" fill="none" xmlns="http://www.w3.org/2000/svg">
<path d="M32.1494 0.043663C29.7158 0.348694 27.6801 1.3301 26.0157 3.00113C24.4574 4.55944 23.4627 6.54214 23.1311 8.7304C23.025 9.4333 23.0449 11.0115 23.1643 11.7608C23.5224 13.9889 24.5568 15.9517 26.1947 17.5166C27.5607 18.8229 29.2914 19.738 31.1747 20.1492C31.7516 20.2752 32.05 20.295 33.2104 20.295C34.7157 20.295 35.286 20.2088 36.4796 19.7977C40.0471 18.5776 42.6796 15.4477 43.2632 11.7343C43.4091 10.7794 43.3626 8.90281 43.1637 8.05403C42.4873 5.11646 40.6837 2.6961 38.1108 1.25052C37.6665 0.998541 36.4398 0.501209 35.896 0.355324C34.8085 0.0569248 33.1507 -0.0756969 32.1494 0.043663ZM33.7475 3.47857C33.9001 3.65098 33.9266 3.75045 33.9664 4.33399L34.0128 4.9971L34.3709 5.10982C34.5698 5.1695 34.9014 5.35517 35.1202 5.51432C35.7568 5.99176 36.0817 6.56867 36.2077 7.4506C36.274 7.90815 36.2674 7.99435 36.1679 8.21318C35.9955 8.57126 35.4451 8.73704 35.0671 8.53147C34.8947 8.43864 34.7356 8.12034 34.7356 7.86173C34.7356 7.27156 34.2979 6.64824 33.7674 6.48909C32.5672 6.13101 31.5328 6.96653 31.7118 8.1535C31.8179 8.8365 32.2423 9.14816 33.542 9.49298C35.0472 9.89085 35.5711 10.2091 35.9292 10.9386C36.705 12.5234 36.0021 14.5194 34.4305 15.209L34.0062 15.388V15.7395C34.0062 16.2567 33.8802 16.754 33.7011 16.9331C33.5884 17.0458 33.4757 17.0856 33.2436 17.0856C32.66 17.0856 32.481 16.8336 32.4279 15.9583L32.4014 15.3947L31.9306 15.1692C31.2874 14.8642 30.7635 14.3337 30.4453 13.6639C30.2331 13.2263 30.1999 13.0804 30.1999 12.6693C30.1933 12.1123 30.3259 11.8603 30.6972 11.7409C31.1614 11.5818 31.6853 11.9531 31.6853 12.4306C31.6853 13.2992 32.3086 13.9093 33.1972 13.9093C33.6945 13.9159 34.0857 13.7501 34.3642 13.4252C34.8549 12.8549 34.8483 11.9664 34.3443 11.4624C34.0658 11.1773 33.8802 11.1043 32.7927 10.8192C31.6786 10.5208 31.1813 10.2821 30.7967 9.85106C29.9545 8.91608 29.9744 7.01295 30.8365 5.94534C31.1084 5.60052 31.7052 5.19603 32.0964 5.08993L32.3948 5.00373L32.4279 4.36714C32.4478 3.98254 32.4943 3.66424 32.5539 3.57804C32.7993 3.1868 33.4359 3.13376 33.7475 3.47857Z" fill="white"/>
<path d="M3.31761 6.21715C2.10412 6.39619 0.983464 7.21182 0.426452 8.31921C0.0219548 9.12157 -0.104036 10.0897 0.0882659 10.9053C0.141315 11.1374 1.04978 13.6175 2.10412 16.4092C4.36533 22.4037 5.39315 25.1291 7.62783 31.0772C9.65694 36.4749 9.97524 37.2706 10.7643 38.8687C11.8253 41.0238 12.5614 42.1179 13.7483 43.3182C15.373 44.956 17.0307 45.7253 19.6832 46.0767C20.4988 46.1828 23.5159 46.1828 24.8223 46.0701C25.3727 46.0303 27.1432 45.8579 28.7678 45.6987C33.9798 45.1815 36.4068 45.0025 38.3895 44.9958C39.7489 44.9892 39.7555 44.9892 40.3788 45.2014C41.5525 45.5926 42.2223 46.0701 43.9198 47.7212C45.5842 49.3392 46.2606 49.757 47.4675 49.9227C49.3176 50.1681 51.1278 48.9281 51.6849 47.0249C51.9236 46.1961 51.8042 45.1152 51.3798 44.2797C50.3122 42.1577 46.3667 39.1538 42.892 37.8077C41.6653 37.3303 40.5645 37.1778 38.363 37.1778C35.3127 37.1778 29.7094 37.5955 26.248 38.073C25.5716 38.1658 24.5769 38.305 24.0265 38.378C22.581 38.5769 21.0691 38.5371 20.3131 38.2785C18.9537 37.8143 18.2774 36.9722 17.3424 34.5916C16.9777 33.6699 16.2682 31.7933 13.7815 25.1755C13.6091 24.7179 12.7139 22.344 11.7922 19.9037C10.8704 17.4569 9.52432 13.8827 8.80153 11.9531C8.07874 10.0234 7.38911 8.27943 7.26975 8.08049C6.75252 7.17203 5.69818 6.44924 4.61068 6.24368C4.03377 6.13758 3.92767 6.13095 3.31761 6.21715Z" fill="white"/>
<path d="M15.9696 20.6729C14.7562 20.7259 13.6023 20.8254 13.5427 20.8785C13.5228 20.8983 13.5758 21.0774 13.6488 21.2697C13.7283 21.4686 14.3517 23.1198 15.0413 24.9433C15.7309 26.7669 16.3078 28.3053 16.3344 28.365C16.3675 28.4578 16.6129 28.4777 18.3436 28.5109C23.1445 28.5971 26.2479 29.3862 29.0926 31.2429C30.4785 32.1447 31.2411 32.3702 32.3219 32.2176C33.9466 31.9789 35.1534 30.8848 35.5712 29.2801C35.7038 28.7827 35.7171 27.861 35.6043 27.43C35.2529 26.0839 34.4837 25.2815 32.3883 24.0481C28.9931 22.0455 24.5702 20.8917 19.451 20.6663C17.8529 20.5933 17.6738 20.5933 15.9696 20.6729Z" fill="white"/>
<path d="M37.1495 46.2691C35.3724 46.3486 31.964 46.6271 31.8977 46.6935C31.8712 46.72 32.3221 47.5223 33.3764 49.3127C33.6019 49.6973 34.4971 51.2291 35.3658 52.7278C36.2344 54.2198 37.123 55.7449 37.3352 56.103C37.5474 56.4677 37.7198 56.7926 37.7198 56.8191C37.7198 56.8457 37.7795 56.8722 37.8458 56.8722C38.0381 56.8722 39.5566 56.5605 40.6242 56.3019C41.4796 56.0897 43.9 55.3868 44.026 55.3073C44.0591 55.2874 43.9332 55.0287 43.7607 54.7303C43.5817 54.4319 43.27 53.8882 43.0579 53.5235C41.4796 50.7782 39.0925 46.6868 38.9399 46.4415C38.7543 46.163 38.9532 46.1829 37.1495 46.2691Z" fill="white"/>
<path d="M17.1236 47.2371C17.0242 47.4161 16.7589 47.867 16.5335 48.2516C16.308 48.6363 15.6383 49.7834 15.0415 50.8046C14.4513 51.8258 13.881 52.8006 13.7749 52.973L13.5826 53.2913L13.9009 53.4504C15.0216 54.0141 19.4047 55.652 19.5108 55.5459C19.5241 55.526 20.0347 54.6639 20.6448 53.6228C21.2482 52.5818 21.845 51.5672 21.971 51.3683C22.3887 50.6587 24.2587 47.4559 24.2587 47.4427C24.2587 47.4294 23.3436 47.4228 22.223 47.4228C20.0745 47.4228 19.239 47.3498 17.9857 47.058C17.6807 46.9851 17.3955 46.9254 17.3624 46.9254C17.3292 46.9254 17.2231 47.0647 17.1236 47.2371Z" fill="white"/>
<path d="M5.31355 51.0037C3.8746 51.4082 2.95951 52.5819 2.95288 54.0208C2.95288 54.7967 3.1916 55.4664 3.6823 56.0632C4.0868 56.5605 5.8772 57.7475 7.78032 58.7753C14.0799 62.1903 20.5518 64.1531 27.6405 64.8096C29.4441 64.9754 33.5223 64.9754 35.2662 64.8096C42.461 64.1266 48.8799 62.0776 55.1927 58.457C57.6197 57.0645 58.2695 56.5738 58.6276 55.8643C59.2642 54.5911 59.0785 53.2781 58.117 52.2503C57.434 51.5143 56.4128 51.1496 55.4579 51.3021C54.8412 51.4015 54.6025 51.5143 53.4355 52.2238C47.5338 55.8179 41.8774 57.7807 35.3325 58.5034C34.0196 58.6493 30.1404 58.7024 28.7014 58.6029C23.8276 58.2448 19.1792 57.0778 14.2987 54.989C12.0309 54.0208 10.1609 53.0262 8.41028 51.8591C7.84663 51.4811 7.24983 51.1297 7.08406 51.07C6.65304 50.9175 5.73794 50.8843 5.31355 51.0037Z" fill="white"/>
</svg>
