<svg width="60" height="63" viewBox="0 0 60 63" fill="none" xmlns="http://www.w3.org/2000/svg">
<path d="M27.4483 0.999981C27.0345 1.58619 26.8965 2.68964 26.8965 5.48274V9.20688H22.2414C19.1724 9.20688 17.5862 9.34481 17.5862 9.58619C17.5862 10.1379 19.6207 12.9655 21.3793 14.8621C23.2069 16.8276 26.2069 18.931 28.8276 20.1034C31.2069 21.1379 31.3793 21.1379 31.3793 19.9655C31.3793 19.4483 31.6207 18.6552 31.931 18.2414C32.4483 17.5172 32.6552 17.4828 37.7931 17.4828C40.8276 17.4828 43.4483 17.6552 43.8276 17.8276C44.2069 18.069 44.5517 18.7241 44.6896 19.5517C44.8276 20.3103 45.1034 20.931 45.3103 20.931C46.069 20.931 50.4483 18.5172 52.2759 17.1034C53.3103 16.3103 54.7586 14.931 55.4828 14.069C56.7586 12.5172 58.6207 9.75861 58.6207 9.3793C58.6207 9.27585 56.3793 9.20688 53.6207 9.20688H48.6207V5.27585C48.6207 2.13791 48.5172 1.20688 48.069 0.793083C47.6207 0.310326 46.1724 0.24136 37.7586 0.24136C28.0345 0.24136 27.9655 0.24136 27.4483 0.999981ZM44.4828 6.79309V9.20688H37.7586H31.0345V6.79309V4.37929H37.7586H44.4828V6.79309Z" fill="white"/>
<path d="M16.207 20.4139V25.069H18.7243C22.0691 25.069 22.6553 25.4828 22.9312 28.1035C23.2415 31.1725 23.345 31.4139 24.4829 32.0346C25.5174 32.6208 25.5863 32.6208 27.8277 31.6208C29.0691 31.0346 30.3795 30.5863 30.6898 30.5863C31.5519 30.5863 32.6208 31.9311 35.1726 36.3794L37.3795 40.2415H48.6898H60.0002V27.9656V15.6897L58.414 17.4138C55.5519 20.6207 50.9657 23.6208 46.7243 25.069L45.0002 25.6552L44.7933 27.6552C44.4484 30.7587 44.1036 30.9311 38.0346 30.9311C33.2415 30.9311 33.0346 30.8966 32.2415 30.069C31.5519 29.4139 31.3795 28.8966 31.3795 27.4828C31.3795 26.138 31.2415 25.6897 30.7932 25.5518C25.207 23.8276 20.8277 21.069 17.345 17.0345L16.207 15.7242V20.4139Z" fill="white"/>
<path d="M36.1034 21.8275C35.9655 21.9655 35.8621 23.0689 35.8621 24.2758V26.4482H38.1034H40.3793L40.2759 24.1034L40.1724 21.7931L38.2759 21.6896C37.2069 21.6207 36.2414 21.6896 36.1034 21.8275Z" fill="white"/>
<path d="M13.2759 31.5172C12.931 34.2414 12.8966 34.2758 10.7241 35.4483C9.65518 36 8.37932 36.7241 7.86207 37.0689C6.96552 37.6207 6.86207 37.5862 5.10345 36.8276C4.10345 36.4138 3.10345 35.9655 2.89655 35.8965C2.62069 35.7586 0 39.5172 0 40.0689C0 40.1034 0.758621 40.6552 1.68966 41.2414C2.62069 41.8621 3.48276 42.5862 3.58621 42.8621C3.86207 43.5517 3.86207 49 3.58621 49.6896C3.48276 49.9655 2.62069 50.6896 1.68966 51.3103C0.758621 51.8965 0 52.4483 0 52.4827C0 53.0345 2.62069 56.7931 2.89655 56.6552C3.10345 56.5862 4.10345 56.1379 5.10345 55.7241C6.86207 54.9655 6.96552 54.931 7.86207 55.4828C8.37932 55.8276 9.68966 56.5517 10.7586 57.1034C12.8276 58.2069 12.931 58.3793 13.2759 61.1724L13.5173 63H16.0345H18.5862L18.7931 61.3448C19.1724 58.3103 19.2414 58.2414 21.3104 57.1379C22.3793 56.5517 23.6897 55.8276 24.2069 55.4828C25.1035 54.931 25.2069 54.9655 26.9655 55.7241C27.9655 56.1379 28.9655 56.5862 29.1724 56.6552C29.5173 56.7931 32.069 53.1724 32.069 52.5517C32.069 52.4483 31.5517 52.069 30.9655 51.6552C28.4138 50.1034 28.2759 49.8276 28.2759 46.2758C28.2759 42.7241 28.4138 42.4483 30.9655 40.8965C31.5517 40.4827 32.069 40.1379 32.069 40.0689C32.069 39.4827 29.5173 35.7586 29.2069 35.8965C28.9655 35.9655 27.9655 36.4138 26.9655 36.8276C25.2069 37.5862 25.1035 37.6207 24.2069 37.0689C23.6897 36.7241 22.3793 36 21.3104 35.4483C19.2414 34.3448 19.1379 34.1724 18.7931 31.3448L18.5517 29.5517H16.0345H13.5173L13.2759 31.5172ZM19.5173 38.6552C23.4828 40.4827 25.3448 44.6896 24.069 49C23.5173 50.8965 20.6552 53.7586 18.7586 54.3103C16.5862 54.931 14.5173 54.7931 12.5862 53.8965C9.51725 52.4483 7.58621 49.5172 7.58621 46.2758C7.58621 40.2069 14.0345 36.1034 19.5173 38.6552Z" fill="white"/>
<path d="M14.0688 42.8621C12.9654 43.4483 12.0688 45 12.0688 46.2759C12.0688 51 19.2758 51.6207 19.8964 46.931C20.1033 45.1379 19.5516 43.8276 18.2068 43C16.862 42.2069 15.3792 42.1379 14.0688 42.8621Z" fill="white"/>
</svg>
