<svg width="56" height="56" viewBox="0 0 56 56" fill="none" xmlns="http://www.w3.org/2000/svg">
<g clip-path="url(#clip0_482_2097)">
<path d="M40.25 45.5C39.7859 45.5 39.3408 45.6844 39.0126 46.0126C38.6844 46.3408 38.5 46.7859 38.5 47.25V52.5H3.5V10.5H10.5V12.25C10.5 12.7141 10.6844 13.1592 11.0126 13.4874C11.3408 13.8156 11.7859 14 12.25 14H29.75C30.2141 14 30.6592 13.8156 30.9874 13.4874C31.3156 13.1592 31.5 12.7141 31.5 12.25V10.5H38.5V12.25C38.5 12.7141 38.6844 13.1592 39.0126 13.4874C39.3408 13.8156 39.7859 14 40.25 14C40.7141 14 41.1592 13.8156 41.4874 13.4874C41.8156 13.1592 42 12.7141 42 12.25V8.75C42 8.28587 41.8156 7.84075 41.4874 7.51256C41.1592 7.18437 40.7141 7 40.25 7H31.5V5.25C31.5 3.85761 30.9469 2.52226 29.9623 1.53769C28.9777 0.553126 27.6424 0 26.25 0H15.75C14.3576 0 13.0223 0.553126 12.0377 1.53769C11.0531 2.52226 10.5 3.85761 10.5 5.25V7H1.75C1.28587 7 0.84075 7.18437 0.512562 7.51256C0.184373 7.84075 0 8.28587 0 8.75V54.25C0 54.7141 0.184373 55.1592 0.512562 55.4874C0.84075 55.8156 1.28587 56 1.75 56H40.25C40.7141 56 41.1592 55.8156 41.4874 55.4874C41.8156 55.1592 42 54.7141 42 54.25V47.25C42 46.7859 41.8156 46.3408 41.4874 46.0126C41.1592 45.6844 40.7141 45.5 40.25 45.5ZM14 5.25C14 4.78587 14.1844 4.34075 14.5126 4.01256C14.8408 3.68437 15.2859 3.5 15.75 3.5H26.25C26.7141 3.5 27.1592 3.68437 27.4874 4.01256C27.8156 4.34075 28 4.78587 28 5.25V10.5H14V5.25ZM55.489 21.511L48.489 14.511C48.3264 14.348 48.1333 14.2187 47.9207 14.1305C47.7081 14.0423 47.4802 13.9969 47.25 13.9969C47.0198 13.9969 46.7919 14.0423 46.5793 14.1305C46.3667 14.2187 46.1736 14.348 46.011 14.511L25.011 35.511C24.8486 35.6738 24.7199 35.867 24.6322 36.0796C24.5445 36.2922 24.4996 36.52 24.5 36.75V43.75C24.5 44.2141 24.6844 44.6592 25.0126 44.9874C25.3408 45.3156 25.7859 45.5 26.25 45.5H33.25C33.48 45.5004 33.7078 45.4555 33.9204 45.3678C34.133 45.2801 34.3262 45.1514 34.489 44.989L55.489 23.989C55.652 23.8264 55.7813 23.6333 55.8695 23.4207C55.9577 23.2081 56.0031 22.9802 56.0031 22.75C56.0031 22.5198 55.9577 22.2919 55.8695 22.0793C55.7813 21.8667 55.652 21.6736 55.489 21.511ZM28 42V37.4745L47.25 18.2245L51.7755 22.75L32.5255 42H28ZM21 43.75C21 44.2141 20.8156 44.6592 20.4874 44.9874C20.1592 45.3156 19.7141 45.5 19.25 45.5H12.25C11.7859 45.5 11.3408 45.3156 11.0126 44.9874C10.6844 44.6592 10.5 44.2141 10.5 43.75C10.5 43.2859 10.6844 42.8408 11.0126 42.5126C11.3408 42.1844 11.7859 42 12.25 42H19.25C19.7141 42 20.1592 42.1844 20.4874 42.5126C20.8156 42.8408 21 43.2859 21 43.75ZM21 33.25C21 33.7141 20.8156 34.1592 20.4874 34.4874C20.1592 34.8156 19.7141 35 19.25 35H12.25C11.7859 35 11.3408 34.8156 11.0126 34.4874C10.6844 34.1592 10.5 33.7141 10.5 33.25C10.5 32.7859 10.6844 32.3408 11.0126 32.0126C11.3408 31.6844 11.7859 31.5 12.25 31.5H19.25C19.7141 31.5 20.1592 31.6844 20.4874 32.0126C20.8156 32.3408 21 32.7859 21 33.25ZM29.75 24.5H12.25C11.7859 24.5 11.3408 24.3156 11.0126 23.9874C10.6844 23.6592 10.5 23.2141 10.5 22.75C10.5 22.2859 10.6844 21.8408 11.0126 21.5126C11.3408 21.1844 11.7859 21 12.25 21H29.75C30.2141 21 30.6592 21.1844 30.9874 21.5126C31.3156 21.8408 31.5 22.2859 31.5 22.75C31.5 23.2141 31.3156 23.6592 30.9874 23.9874C30.6592 24.3156 30.2141 24.5 29.75 24.5Z" fill="white"/>
</g>
<defs>
<clipPath id="clip0_482_2097">
<rect width="56" height="56" fill="white"/>
</clipPath>
</defs>
</svg>
