<svg width="59" height="65" viewBox="0 0 59 65" fill="none" xmlns="http://www.w3.org/2000/svg">
<path d="M27.4008 0.0203972C27.292 0.0476112 26.7342 0.142845 26.1763 0.224476C21.3057 1.01357 16.7344 4.42847 14.4487 8.9998C13.2378 11.4079 12.7889 13.3535 12.7753 16.2105C12.7753 18.4282 12.9249 19.4622 13.5372 21.3397C14.8569 25.4212 17.8772 28.9178 21.7955 30.8905C22.9519 31.4755 24.7342 32.0741 26.1083 32.3463C27.5097 32.632 30.8565 32.5911 32.2987 32.2782C37.2237 31.217 41.3869 28.0062 43.6454 23.5165C44.7882 21.2308 45.2916 19.0404 45.2916 16.2786C45.2916 14.1426 45.1283 13.0677 44.5297 11.2174C43.2236 7.17671 40.1897 3.63937 36.3802 1.72104C34.1082 0.578211 32.2034 0.102032 29.5096 0.0203972C28.462 -0.00681305 27.5097 -0.00681305 27.4008 0.0203972ZM31.0198 2.27885C33.1014 2.56456 35.5231 3.53053 37.2645 4.7822C38.1897 5.43525 40.0536 7.32637 40.6794 8.25152C41.7815 9.85693 42.6658 12.061 42.9787 14.0337C43.727 18.6323 42.2168 23.122 38.8019 26.428C37.1829 27.9926 35.5775 28.9722 33.4551 29.7069C29.2647 31.1354 24.2036 30.3191 20.6527 27.6661C19.7003 26.945 17.986 25.1763 17.3738 24.292C14.9657 20.7955 14.2582 16.1561 15.5235 12.129C16.2582 9.7753 17.4418 7.88418 19.2513 6.14272C20.5846 4.86383 21.2377 4.38766 22.7206 3.65298C25.3056 2.34688 28.1627 1.88431 31.0198 2.27885Z" fill="white"/>
<path d="M26.8022 4.52359C22.0404 5.38071 18.1085 9.36703 17.265 14.1696C15.8501 22.3327 22.9384 29.4754 31.047 28.0605C35.7272 27.2442 39.3734 23.8701 40.6387 19.2036C41.0604 17.6526 41.0604 14.9043 40.6387 13.3533C38.9516 7.14938 33.0742 3.39436 26.8022 4.52359ZM30.1219 7.62556V8.782L30.843 9.10853C32.1354 9.69355 33.1558 11.0405 33.3463 12.401L33.4279 13.0132H32.3259H31.2375L31.1559 12.537C31.047 11.952 30.4756 11.2581 29.8906 11.0269C29.6185 10.9044 28.9382 10.8364 28.1355 10.8364H26.8294L26.8839 12.3193C26.9111 13.571 26.9655 13.8703 27.2104 14.1832C27.7138 14.8635 28.1219 15.0676 29.2375 15.2036C31.0062 15.4213 32.0946 16.1288 32.8565 17.5301L33.3191 18.3872L33.3599 21.1355L33.4143 23.8973H31.7681H30.1219V24.9857V26.0742H29.0335H27.9451V24.9313V23.7749L27.224 23.4484C25.9315 22.8633 24.9111 21.5164 24.7206 20.1559L24.639 19.5437H25.741H26.8294L26.9111 20.0199C27.0199 20.6049 27.5913 21.2987 28.1763 21.53C28.4485 21.6525 29.1287 21.7205 29.9314 21.7205H31.2375L31.1831 20.2375C31.1559 18.9859 31.1015 18.6866 30.8566 18.3736C30.3532 17.6934 29.945 17.4893 28.8294 17.3533C27.0607 17.1356 25.9723 16.4281 25.2104 15.0268L24.7478 14.1696L24.707 11.4078L24.6526 8.65956H26.2988H27.9451V7.57114V6.48273H29.0335H30.1219V7.62556ZM21.4146 16.2784V17.3669H20.3262H19.2378V16.2784V15.19H20.3262H21.4146V16.2784ZM38.8292 16.2784V17.3669H37.7408H36.6524V16.2784V15.19H37.7408H38.8292V16.2784Z" fill="white"/>
<path d="M9.03381 6.72779L4.35364 11.8569L6.3536 11.8978L8.35355 11.9386V17.9248V23.9111L12.68 28.8498L16.9928 33.7885L17.0336 32.115L17.0745 30.428L15.9452 29.2851C13.333 26.6593 11.5644 23.3261 10.8433 19.7071C10.5576 18.2242 10.5168 14.6324 10.7889 13.1494C11.3467 10.0066 13.0881 6.34685 15.0473 4.22445C15.333 3.91153 15.5643 3.61222 15.5643 3.55779C15.5643 3.44895 13.9453 1.68028 13.7956 1.62586C13.7548 1.61226 11.6188 3.91153 9.03381 6.72779Z" fill="white"/>
<path d="M43.3597 2.53735C42.8835 3.04074 42.5026 3.48971 42.5026 3.54413C42.5026 3.58494 42.8699 4.07473 43.3325 4.61893C45.2236 6.86378 46.5705 9.72087 47.2236 12.8773C47.5229 14.3194 47.5501 17.9112 47.278 19.4077C46.5978 23.1083 44.7611 26.6321 42.1217 29.2851L40.9924 30.4279L41.0332 32.1013L41.0741 33.7748L45.3869 29.013L49.6997 24.2376V18.088L49.7133 11.9385L51.7133 11.8977L53.7133 11.8569L49.0331 6.75494C46.4617 3.95228 44.3257 1.63941 44.2849 1.6258C44.2441 1.61219 43.8223 2.02035 43.3597 2.53735Z" fill="white"/>
<path d="M4.68017 33.938L0 39.0672L1.99996 39.108L3.99992 39.1488V51.652V64.1687H8.35356H12.7072V55.7471V47.3391L11.7821 46.3868C10.1222 44.6997 8.9658 42.4549 8.55764 40.1556C8.4352 39.4345 8.35356 38.142 8.35356 36.8768V34.7816L11.6188 34.7544L14.884 34.7135L12.2038 31.7884C10.7345 30.183 9.4964 28.8497 9.45558 28.8361C9.41477 28.8225 7.26515 31.1218 4.68017 33.938Z" fill="white"/>
<path d="M45.8631 31.7612L43.1829 34.7135L46.4481 34.7544L49.7133 34.7816V36.8768C49.7133 38.142 49.6317 39.4345 49.5093 40.1556C49.1011 42.4549 47.9719 44.6453 46.2984 46.4004L45.3597 47.3663V55.7607V64.1687H49.7133H54.067V51.652V39.1488L56.0669 39.108L58.0669 39.0672L53.3867 33.9653C50.8154 31.1626 48.6793 28.8497 48.6385 28.8361C48.5977 28.8225 47.346 30.1422 45.8631 31.7612Z" fill="white"/>
<path d="M27.945 37.6522V40.5229L27.0199 39.6658C25.8907 38.6046 24.6934 37.8835 23.2513 37.4073L22.1628 37.04L16.3262 36.9855L10.4896 36.9447L10.5713 38.4141C10.7073 41.1079 11.5644 43.0262 13.4555 44.9173C14.6936 46.1554 15.8365 46.8765 17.401 47.3935C18.4895 47.7608 18.5167 47.7608 23.224 47.8152L27.945 47.8697V50.0193V52.1689L26.9655 52.2641C25.4417 52.4002 23.4825 52.7403 22.503 53.0396C20.5574 53.6382 19.2377 54.6178 19.2377 55.4613C19.2377 55.9239 19.7547 56.577 20.4894 57.0395C21.2241 57.5021 23.1288 58.1143 24.7478 58.4001C26.4757 58.713 31.0878 58.7538 32.9109 58.4681C36.3394 57.9511 38.8292 56.6858 38.8292 55.4613C38.8292 53.9784 35.6864 52.6859 31.047 52.2641L30.1219 52.1689V50.0193V47.8697L34.8565 47.8152C39.5502 47.7608 39.5774 47.7608 40.6659 47.3935C42.2305 46.8765 43.3733 46.1554 44.6114 44.9173C46.5025 43.0262 47.3596 41.1079 47.4956 38.4141L47.5773 36.9447L41.7407 36.9855L35.9041 37.0264L34.8156 37.3937C33.3735 37.8835 32.1762 38.6046 31.047 39.6658L30.1219 40.5229V37.6522V34.7815H29.0335H27.945V37.6522Z" fill="white"/>
<path d="M19.2377 59.3796C19.2377 60.1551 19.5914 60.6993 20.4485 61.2299C21.4145 61.8285 21.4145 61.8285 21.4145 60.7265V59.7333L20.4349 59.2708C19.8907 59.0123 19.4009 58.781 19.3465 58.7538C19.2785 58.7266 19.2377 59.0123 19.2377 59.3796Z" fill="white"/>
<path d="M37.7135 59.2436L36.6523 59.7334V60.7266C36.6523 61.2708 36.6932 61.7197 36.734 61.7197C36.9653 61.7197 38.0537 60.9578 38.421 60.5497C38.7611 60.1551 38.8292 59.9647 38.8292 59.4069C38.8292 59.0259 38.8156 58.7266 38.802 58.7402C38.7747 58.7402 38.285 58.9715 37.7135 59.2436Z" fill="white"/>
<path d="M23.5914 61.4068V62.4952L24.9247 62.7129C25.6458 62.8354 26.6254 62.9714 27.1016 63.0122L27.9451 63.0939V62.0055V60.917L27.1696 60.8354C26.054 60.7266 24.5574 60.5225 24.0404 60.4137L23.5914 60.3184V61.4068Z" fill="white"/>
<path d="M32.8429 60.5769C32.2034 60.6858 31.3327 60.7946 30.9109 60.8354L30.1218 60.917V62.0055V63.0939L31.047 62.9986C31.5504 62.9578 32.4755 62.8354 33.115 62.7265C33.7544 62.6177 34.3122 62.5361 34.3802 62.5361C34.4347 62.5361 34.4755 62.0463 34.4755 61.4476C34.4755 60.4953 34.4483 60.3592 34.2442 60.3728C34.1081 60.3864 33.4823 60.4817 32.8429 60.5769Z" fill="white"/>
</svg>
