<svg width="76" height="71" viewBox="0 0 76 71" fill="none" xmlns="http://www.w3.org/2000/svg">
<path fill-rule="evenodd" clip-rule="evenodd" d="M75.0593 37.0903L53.8629 70.597L36.9785 59.2635L38.0989 56.7879L50.4715 65.0189L50.6229 65.1265C50.9031 65.3105 51.2152 65.4349 51.5415 65.4925C51.8677 65.55 52.2016 65.5397 52.524 65.462C52.8464 65.3844 53.151 65.241 53.4202 65.04C53.6895 64.839 53.9181 64.5844 54.0931 64.2908L54.7774 63.1511H54.8138L58.0053 57.7249L72.54 35.3745L75.0896 37.0777L75.0593 37.0903ZM21.9715 10.0229L21.7292 13.3659L18.8102 13.233H18.5498L18.4408 19.7165L18.6164 24.5348H14.256L14.474 20.1787L14.365 13.214H14.0804L11.1613 13.347L10.9009 13.0304L11.1431 9.68097H21.7292L21.9715 10.0039V10.0229ZM34.6469 24.5348H30.1957L29.802 22.0782V22.0085L27.6521 21.9642L25.8353 22.0592L25.4719 24.5348H21.1721L25.4719 9.69997H30.7771L34.659 24.5348H34.6469ZM29.1056 18.6655L28.1366 13.8028H27.8943L26.6831 18.6655H27.8943H29.1056ZM44.4517 16.69L48.7274 24.5348H43.507L42.7621 22.724L41.4903 20.3117L39.8673 22.9519L39.1648 24.5348H34.7135L38.9528 17.4055L34.5561 9.69997H39.8188L40.6122 11.5551L41.8597 13.9295L43.289 11.3398L43.943 9.73162H48.5275L44.4699 16.6964L44.4517 16.69ZM30.0685 52.7293L29.7112 52.3748L24.6846 57.7756C24.6582 57.813 24.6299 57.8489 24.5998 57.8832C24.4587 58.0308 24.2911 58.1479 24.1066 58.2278C23.9222 58.3077 23.7245 58.3488 23.5249 58.3488C23.3252 58.3488 23.1275 58.3077 22.9431 58.2278C22.7586 58.1479 22.5911 58.0308 22.4499 57.8832L17.1811 52.3748L11.7306 57.7819C11.4429 58.0662 11.0605 58.222 10.6646 58.2161C10.2688 58.2102 9.89074 58.0431 9.61095 57.7503L4.4572 52.2924L3.37921 53.5588C3.19004 53.8235 2.92665 54.0199 2.6257 54.1209C2.32474 54.2218 2.00118 54.2221 1.70004 54.1218C1.39889 54.0215 1.13514 53.8256 0.945484 53.5612C0.755825 53.2969 0.64969 52.9773 0.641846 52.647L0.641846 1.58922C0.641846 1.16774 0.801997 0.76351 1.08707 0.465473C1.37214 0.167436 1.75878 0 2.16193 0L57.4906 0C57.6899 -1.66717e-06 57.8873 0.0411499 58.0714 0.121093C58.2554 0.201037 58.4226 0.318198 58.5633 0.465855C58.7039 0.613511 58.8153 0.788756 58.8911 0.981533C58.9668 1.17431 59.0054 1.38082 59.0046 1.58922V13.7332L58.2597 13.233C57.9246 13.006 57.5478 12.855 57.1536 12.7896C56.7593 12.7241 56.3563 12.7458 55.9705 12.8531V3.16579H3.6699V48.5631C3.93926 48.4147 4.24516 48.3547 4.54767 48.3908C4.85017 48.427 5.13522 48.5576 5.36561 48.7658C5.39479 48.7899 5.42121 48.8176 5.44434 48.8481H5.48673L10.7313 54.4515L16.1818 49.0507C16.4638 48.761 16.8433 48.5988 17.2386 48.5988C17.6339 48.5988 18.0134 48.761 18.2954 49.0507L23.5218 54.5148L28.5787 49.0697C28.8527 48.7714 29.2277 48.5977 29.6231 48.5858C30.0184 48.574 30.4024 48.725 30.6923 49.0064L31.6491 49.9308L30.4379 51.7923C30.26 52.0815 30.1309 52.4007 30.0564 52.7357L30.0685 52.7293ZM37.0694 41.3325H12.2393C11.9422 41.3325 11.6572 41.2091 11.4471 40.9894C11.237 40.7697 11.1189 40.4718 11.1189 40.1612C11.1189 39.8505 11.237 39.5526 11.4471 39.3329C11.6572 39.1132 11.9422 38.9898 12.2393 38.9898H38.547L37.0694 41.3325ZM41.999 33.5573H11.9002C11.603 33.5573 11.318 33.4339 11.1079 33.2142C10.8978 32.9946 10.7798 32.6966 10.7798 32.386C10.7798 32.0753 10.8978 31.7774 11.1079 31.5577C11.318 31.3381 11.603 31.2146 11.9002 31.2146H43.4767L41.999 33.5573ZM73.0729 29.8597L51.8765 63.3157L34.9679 52.0075L56.1643 18.5008L73.0669 29.8344L73.0729 29.8597ZM57.6177 38.9835C58.0683 39.8017 58.2768 40.7411 58.2167 41.6831C58.1566 42.6252 57.8308 43.5274 57.2803 44.2758C56.7298 45.0242 55.9794 45.5852 55.124 45.8878C54.2687 46.1904 53.3467 46.221 52.4746 45.9758C51.6026 45.7306 50.8196 45.2206 50.2248 44.5103C49.63 43.7999 49.25 42.9211 49.1328 41.985C49.0156 41.0489 49.1666 40.0975 49.5666 39.251C49.9665 38.4046 50.5976 37.7012 51.3799 37.2296C51.8994 36.9156 52.4731 36.7118 53.068 36.63C53.663 36.5482 54.2676 36.5899 54.847 36.7529C55.4265 36.9158 55.9696 37.1967 56.445 37.5795C56.9205 37.9623 57.319 38.4394 57.6177 38.9835ZM67.0168 33.7916L52.8031 55.9014C52.1394 55.4595 51.3352 55.3107 50.5667 55.4875C49.7982 55.6643 49.1281 56.1524 48.7031 56.8448L42.0414 52.3684C42.2515 52.0251 42.3948 51.6418 42.4632 51.2405C42.5315 50.8392 42.5236 50.4278 42.4398 50.0297C42.356 49.6316 42.198 49.2547 41.9748 48.9205C41.7516 48.5863 41.4676 48.3014 41.1391 48.082L55.3346 25.9594C55.6622 26.1792 56.028 26.3293 56.4111 26.4012C56.7942 26.473 57.1871 26.4652 57.5674 26.3782C57.9476 26.2912 58.3077 26.1266 58.627 25.894C58.9464 25.6613 59.2187 25.3651 59.4285 25.0224L66.1205 29.4988C65.9101 29.8418 65.7664 30.2247 65.6976 30.6257C65.6288 31.0268 65.6363 31.4381 65.7195 31.8361C65.8027 32.2341 65.9601 32.6111 66.1827 32.9456C66.4053 33.28 66.6887 33.5653 67.0168 33.7853V33.7916Z" fill="white"/>
</svg>
