<svg width="64" height="59" viewBox="0 0 64 59" fill="none" xmlns="http://www.w3.org/2000/svg">
<path fill-rule="evenodd" clip-rule="evenodd" d="M63.5973 30.6087L45.5695 58.1566L31.209 48.8386L32.1619 46.8033L42.685 53.5705L42.8138 53.659C43.0521 53.8103 43.3176 53.9125 43.595 53.9599C43.8725 54.0072 44.1565 53.9987 44.4307 53.9349C44.7049 53.871 44.9639 53.7531 45.1929 53.5878C45.422 53.4226 45.6164 53.2133 45.7652 52.9719L46.3472 52.0349H46.3781L49.0926 47.5737L61.4546 29.198L63.623 30.5983L63.5973 30.6087ZM18.4453 8.35482L18.2393 11.1034L15.7566 10.994H15.5351L15.4424 16.3246L15.5918 20.286H11.8832L12.0686 16.7046L11.9759 10.9784H11.7338L9.25115 11.0878L9.02966 10.8275L9.23569 8.07372H18.2393L18.4453 8.3392V8.35482ZM29.226 20.286H25.4401L25.1053 18.2662V18.209L23.2768 18.1725L21.7315 18.2506L21.4225 20.286H17.7654L21.4225 8.08933H25.9346L29.2363 20.286H29.226ZM24.513 15.4604L23.6889 11.4626H23.4828L22.4527 15.4604H23.4828H24.513ZM37.5651 13.8363L41.2016 20.286H36.7616L36.128 18.7972L35.0464 16.8139L33.666 18.9846L33.0685 20.286H29.2826L32.8882 14.4245L29.1487 8.08933H33.6248L34.2995 9.61457L35.3606 11.5667L36.5762 9.43758L37.1325 8.11536H41.0316L37.5806 13.8415L37.5651 13.8363ZM25.332 43.4665L25.0281 43.175L20.7529 47.6153C20.7304 47.6461 20.7063 47.6756 20.6808 47.7038C20.5607 47.8252 20.4182 47.9214 20.2613 47.9871C20.1045 48.0528 19.9363 48.0866 19.7665 48.0866C19.5967 48.0866 19.4286 48.0528 19.2717 47.9871C19.1148 47.9214 18.9723 47.8252 18.8522 47.7038L14.371 43.175L9.73532 47.6205C9.49064 47.8543 9.16537 47.9824 8.8287 47.9775C8.49203 47.9727 8.17051 47.8352 7.93254 47.5945L3.54921 43.1073L2.63236 44.1484C2.47147 44.366 2.24746 44.5276 1.99149 44.6106C1.73552 44.6935 1.46033 44.6938 1.20421 44.6113C0.948079 44.5289 0.723756 44.3678 0.562448 44.1504C0.40114 43.9331 0.310871 43.6704 0.304199 43.3988L0.304199 1.42098C0.304199 1.07445 0.44041 0.74211 0.682867 0.497075C0.925324 0.252039 1.25417 0.11438 1.59705 0.11438L48.6548 0.11438C48.8243 0.114379 48.9922 0.148212 49.1488 0.213938C49.3053 0.279665 49.4475 0.375991 49.5672 0.497389C49.6868 0.618786 49.7816 0.762866 49.846 0.92136C49.9104 1.07985 49.9432 1.24964 49.9425 1.42098V11.4053L49.309 10.994C49.024 10.8075 48.7035 10.6833 48.3682 10.6295C48.0328 10.5757 47.6901 10.5935 47.3619 10.6817V2.71717H2.8796V40.0412C3.1087 39.9192 3.36887 39.8698 3.62615 39.8995C3.88344 39.9293 4.12588 40.0367 4.32183 40.2078C4.34665 40.2277 4.36911 40.2504 4.38879 40.2755H4.42484L8.88544 44.8824L13.5212 40.442C13.761 40.2039 14.0838 40.0705 14.42 40.0705C14.7562 40.0705 15.079 40.2039 15.3188 40.442L19.7639 44.9345L24.0649 40.4577C24.2979 40.2125 24.6169 40.0696 24.9531 40.0599C25.2894 40.0501 25.616 40.1743 25.8625 40.4056L26.6763 41.1656L25.6462 42.6961C25.4948 42.9339 25.385 43.1963 25.3217 43.4717L25.332 43.4665ZM31.2863 34.0964H10.168C9.91527 34.0964 9.67289 33.995 9.49419 33.8144C9.31549 33.6338 9.21509 33.3888 9.21509 33.1334C9.21509 32.878 9.31549 32.633 9.49419 32.4524C9.67289 32.2718 9.91527 32.1704 10.168 32.1704H32.5431L31.2863 34.0964ZM35.479 27.704H9.87955C9.62682 27.704 9.38445 27.6025 9.20574 27.4219C9.02704 27.2413 8.92665 26.9964 8.92665 26.7409C8.92665 26.4855 9.02704 26.2406 9.20574 26.06C9.38445 25.8794 9.62682 25.7779 9.87955 25.7779H36.7358L35.479 27.704ZM61.9078 24.6639L43.88 52.1702L29.499 42.873L47.5268 15.3251L61.9027 24.6431L61.9078 24.6639ZM48.763 32.1652C49.1462 32.8378 49.3235 33.6102 49.2724 34.3847C49.2213 35.1592 48.9442 35.901 48.476 36.5163C48.0078 37.1316 47.3696 37.5928 46.6421 37.8416C45.9145 38.0904 45.1304 38.1156 44.3887 37.914C43.647 37.7124 42.9811 37.2931 42.4752 36.7091C41.9693 36.1251 41.6461 35.4026 41.5464 34.6329C41.4468 33.8633 41.5751 33.081 41.9153 32.3851C42.2555 31.6892 42.7922 31.1109 43.4576 30.7232C43.8995 30.465 44.3874 30.2975 44.8934 30.2302C45.3994 30.1629 45.9136 30.1973 46.4065 30.3312C46.8993 30.4652 47.3612 30.6961 47.7656 31.0108C48.1699 31.3255 48.5089 31.7178 48.763 32.1652ZM56.757 27.8966L44.6681 46.0745C44.1036 45.7112 43.4196 45.5888 42.766 45.7342C42.1123 45.8795 41.5424 46.2808 41.181 46.8501L35.5151 43.1698C35.6938 42.8875 35.8157 42.5724 35.8738 42.2424C35.9319 41.9125 35.9252 41.5742 35.8539 41.247C35.7826 40.9197 35.6483 40.6098 35.4584 40.335C35.2686 40.0602 35.0271 39.826 34.7476 39.6456L46.8211 21.4573C47.0997 21.638 47.4109 21.7614 47.7367 21.8205C48.0626 21.8795 48.3967 21.8731 48.7201 21.8015C49.0435 21.73 49.3498 21.5947 49.6214 21.4034C49.893 21.2122 50.1246 20.9687 50.3031 20.6868L55.9947 24.3672C55.8158 24.6492 55.6936 24.964 55.635 25.2937C55.5765 25.6235 55.5828 25.9616 55.6536 26.2889C55.7244 26.6161 55.8583 26.9261 56.0476 27.201C56.2369 27.476 56.478 27.7106 56.757 27.8914V27.8966Z" fill="white"/>
</svg>
