<?xml version="1.0" encoding="UTF-8"?>
<svg id="Layer_1" data-name="Layer 1" xmlns="http://www.w3.org/2000/svg" viewBox="0 0 132.57 117.71">
  <defs>
    <style>
      .cls-1 {
        fill: #65ad4a;
      }

      .cls-2 {
        fill: #66aa4d;
      }
    </style>
  </defs>
  <rect class="cls-2" x="56.19" y="32.04" width="3.37" height="9.99" transform="translate(-8.68 54.12) rotate(-47.02)"/>
  <rect class="cls-2" x="66.82" y="37.22" width="11.59" height="3.36" transform="translate(-6.83 60.7) rotate(-43.52)"/>
  <path class="cls-1" d="M71.31,107.21c-2.42,0-4.88-.04-7.3-.08-4.15-.07-8.43-.14-12.32,0l-1.53,.06-.2-1.52c-1.25-9.59-1.17-19.35,.22-29,1.04-7.18,2.54-14.06,4.48-20.43l.28-.91c.35-1.16,.71-2.35,1.08-3.56-7.07-1.98-13.91-5.82-19.72-11.21-6.98-6.46-11.6-15.14-13.02-24.45l-.21-1.35,1.41-.53c7.95-2.74,19.53-4.51,29.62,2.58,3.95,2.77,7.53,6.87,10.54,12.02,1.86-3.63,3.96-6.89,6.34-9.45,8.31-8.95,21.15-11.73,33.5-7.25l.7,.25,.34,.75c.84,2.02-3.96,13.31-4.01,13.42-2.34,5.02-5.26,9.55-8.67,13.46-5.75,6.58-12.49,10.9-19.43,12.55,1.44,5.41,2.66,10.77,3.32,14.61,2.59,15.08,2.27,23.1,1.37,38.39l-.09,1.53-1.53,.05c-1.67,.06-3.41,.09-5.17,.09Zm-14.54-3.53c2.42,0,4.88,.04,7.3,.08,3.6,.06,7.3,.12,10.76,.05,.81-14.05,1.02-21.89-1.42-36.09-.65-3.8-1.9-9.19-3.34-14.59-.79,.09-1.58,.14-2.37,.16-2.78,.07-5.61-.19-8.4-.74-.4,1.29-.78,2.54-1.14,3.75l-.28,.91c-1.88,6.21-3.35,12.92-4.37,19.94-1.28,8.84-1.41,17.77-.4,26.57,1.2-.03,2.42-.04,3.66-.04Zm3.53-54.36c2.44,.46,4.89,.67,7.32,.61,.51-.01,1.03-.04,1.54-.09-1.46-5.19-3.04-10.07-4.37-13.2-1.69,4.14-3.18,8.51-4.5,12.67Zm6.31-16.81c.41,.83,.8,1.69,1.18,2.56,1.46,3.37,3.17,8.66,4.73,14.23,6.3-1.46,12.47-5.43,17.79-11.51,3.21-3.67,5.95-7.93,8.15-12.66,.45-.96,2.96-7.58,3.67-10.25-10.81-3.48-21.46-.98-28.68,6.79-2.58,2.78-4.84,6.58-6.84,10.84ZM26.84,16.99c1.53,7.94,5.76,15.56,11.74,21.09,5.45,5.05,11.84,8.64,18.43,10.47,1.69-5.36,3.59-10.92,5.85-16-2.99-5.7-6.65-10.15-10.7-13-8.42-5.91-18.2-4.79-25.33-2.57Z"/>
</svg>